<ttFont>
        <CharString name=".notdef" fdSelectIndex="0">
          -564 endchar
        </CharString>
        <CharString name="cid00000" fdSelectIndex="0">
          -564 endchar
        </CharString>
        <CharString name="cid00001" fdSelectIndex="0">
          -564 endchar
        </CharString>
        <CharString name="cid00002" fdSelectIndex="0">
          -478 98 679 rmoveto
          149 -558 -149 hlineto
          143 -90 rmoveto
          -121 -135 121 vlineto
          endchar
        </CharString>
        <CharString name="cid00003" fdSelectIndex="0">
          -429 165 672 rmoveto
          -20 -170 rlineto
          -90 170 hlineto
          280 hmoveto
          -20 -170 rlineto
          -90 170 hlineto
          endchar
        </CharString>
        <CharString name="cid00004" fdSelectIndex="0">
          -98 645 678 rmoveto
          -34 -155 rlineto
          85 -100 -107 hlineto
          -39 -180 rlineto
          116 -100 -137 hlineto
          -42 -194 rlineto
          -147 hlineto
          43 194 rlineto
          -126 hlineto
          -44 -194 rlineto
          -146 hlineto
          46 194 rlineto
          -88 100 111 hlineto
          43 180 rlineto
          -124 100 147 hlineto
          37 155 rlineto
          141 hlineto
          -36 -155 rlineto
          124 hlineto
          35 155 rlineto
          -223 -435 rmoveto
          126 hlineto
          40 180 rlineto
          -125 hlineto
          endchar
        </CharString>
        <CharString name="cid00005" fdSelectIndex="0">
          -196 397 -130 rmoveto
          -146 84 hlineto
          -69 8 -68 24 -58 36 rrcurveto
          152 vlineto
          54 -34 65 -33 76 -12 rrcurveto
          173 vlineto
          -56 17 -37 13 -22 10 rrcurveto
          -62 27 -27 52 61 vvcurveto
          112 82 62 122 14 vhcurveto
          72 146 -76 vlineto
          53 -10 50 -20 44 -30 rrcurveto
          -133 vlineto
          -39 32 -53 26 -55 14 rrcurveto
          -154 vlineto
          116 -35 81 -34 -4 -149 -3 -111 -87 -52 -103 -18 rrcurveto
          58 199 rmoveto
          3 32 -28 22 -33 14 rrcurveto
          -129 vlineto
          35 7 19 17 4 37 rrcurveto
          -255 291 rmoveto
          -19 22 -16 29 -13 vhcurveto
          112 vlineto
          -35 -11 -16 -22 -31 vvcurveto
          endchar
        </CharString>
        <CharString name="cid00006" fdSelectIndex="0">
          -93 617 648 rmoveto
          -369 -669 rlineto
          -128 hlineto
          372 669 rlineto
          109 -738 rmoveto
          -94 hlineto
          -47 -62 24 74 hvcurveto
          122 vlineto
          60 54 47 56 vhcurveto
          87 hlineto
          68 27 -48 -70 hvcurveto
          -112 vlineto
          -58 -42 -39 -47 vhcurveto
          -35 68 rmoveto
          31 7 24 20 hvcurveto
          94 vlineto
          23 -7 21 -35 vhcurveto
          -19 hlineto
          -42 -3 -30 -23 hvcurveto
          -75 vlineto
          -15 0 -39 40 vhcurveto
          -321 377 rmoveto
          -91 hlineto
          -47 -52 24 74 hvcurveto
          122 vlineto
          60 44 47 56 vhcurveto
          87 hlineto
          68 37 -48 -70 hvcurveto
          -112 vlineto
          -58 -55 -39 -47 vhcurveto
          -36 68 rmoveto
          31 11 24 20 hvcurveto
          94 vlineto
          23 -7 21 -35 vhcurveto
          -19 hlineto
          -42 -3 -30 -23 hvcurveto
          -75 vlineto
          -15 -4 -39 40 vhcurveto
          endchar
        </CharString>
        <CharString name="cid00007" fdSelectIndex="0">
          -174 294 -73 rmoveto
          50 51 29 57 48 hvcurveto
          35 -74 rlineto
          118 hlineto
          -72 152 114 167 -119 -1 -43 -62 -21 47 -15 33 -11 16 -27 21 rlinecurve
          33 20 13 30 53 vvcurveto
          112 vlineto
          91 -50 61 -100 vhcurveto
          -72 hlineto
          -87 -67 -61 -91 hvcurveto
          -110 vlineto
          -38 11 -28 17 -21 vhcurveto
          -37 -29 -35 -10 -78 vvcurveto
          -137 vlineto
          -110 99 -39 80 vhcurveto
          23 103 rmoveto
          -48 -26 28 32 hvcurveto
          116 vlineto
          30 27 25 38 vhcurveto
          43 hlineto
          36 23 -9 -59 29 hvcurveto
          38 -84 rlineto
          -52 -47 -30 -27 -36 hhcurveto
          -25 346 rmoveto
          -37 -17 24 29 hvcurveto
          101 vlineto
          27 24 24 30 vhcurveto
          27 hlineto
          32 23 -24 -27 hvcurveto
          -101 vlineto
          -34 -16 -19 -39 vhcurveto
          endchar
        </CharString>
        <CharString name="cid00008" fdSelectIndex="0">
          -645 145 672 rmoveto
          -20 -170 rlineto
          -90 170 hlineto
          endchar
        </CharString>
        <CharString name="cid00009" fdSelectIndex="0">
          -466 312 -164 rmoveto
          -99 hlineto
          -112 116 -32 130 154 vvcurveto
          129 49 202 105 112 vhcurveto
          96 hlineto
          -75 -138 -36 -149 -154 vvcurveto
          -152 36 -116 68 -134 vhcurveto
          endchar
        </CharString>
        <CharString name="cid00010" fdSelectIndex="0">
          -495 34 -164 rmoveto
          99 hlineto
          112 116 32 130 154 vvcurveto
          129 -49 202 -105 112 vhcurveto
          -96 hlineto
          75 -138 36 -149 -154 vvcurveto
          -152 -36 -116 -68 -134 vhcurveto
          endchar
        </CharString>
        <CharString name="cid00011" fdSelectIndex="0">
          -273 506 349 rmoveto
          -80 -148 vlineto
          70 -109 -81 -55 -75 113 -72 -113 -83 55 72 109 rlineto
          -150 80 150 hlineto
          -72 108 83 56 72 -114 75 114 81 -56 -70 -108 rlineto
          endchar
        </CharString>
        <CharString name="cid00012" fdSelectIndex="0">
          -358 298 493 rmoveto
          -138 127 -108 -127 -133 -119 133 -119 108 119 138 vlineto
          endchar
        </CharString>
        <CharString name="cid00013" fdSelectIndex="0">
          -605 81 -155 rmoveto
          -29 29 21 21 22 24 2 40 rlinecurve
          -45 101 114 -83 hlineto
          -51 -34 -50 -51 -31 vhcurveto
          endchar
        </CharString>
        <CharString name="cid00014" fdSelectIndex="0">
          -400 375 356 rmoveto
          -104 -326 104 vlineto
          endchar
        </CharString>
        <CharString name="cid00015" fdSelectIndex="0">
          -603 162 60 rmoveto
          -110 -110 110 vlineto
          endchar
        </CharString>
        <CharString name="cid00016" fdSelectIndex="0">
          -398 395 678 rmoveto
          -207 -729 rlineto
          -140 hlineto
          212 729 rlineto
          endchar
        </CharString>
        <CharString name="cid00017" fdSelectIndex="0">
          -233 234 -50 rmoveto
          -99 -89 46 133 hvcurveto
          371 vlineto
          134 133 46 89 vhcurveto
          46 hlineto
          109 113 -47 -134 hvcurveto
          -361 vlineto
          -110 -73 -78 -125 vhcurveto
          -79 134 rmoveto
          42 hlineto
          44 13 44 44 hvcurveto
          328 vlineto
          45 -14 45 -42 vhcurveto
          -44 hlineto
          -44 -35 -45 -45 hvcurveto
          -328 vlineto
          -44 -9 -44 89 vhcurveto
          endchar
        </CharString>
        <CharString name="cid00018" fdSelectIndex="0">
          -432 314 680 rmoveto
          -730 -180 594 -93 136 vlineto
          endchar
        </CharString>
        <CharString name="cid00019" fdSelectIndex="0">
          -244 22 -50 rmoveto
          311 365 34 43 24 62 -1 31 rlinecurve
          -1 33 rlineto
          44 -1 -55 42 -42 hhcurveto
          -27 hlineto
          -42 -48 -42 -44 hvcurveto
          -19 -117 27 vlineto
          112 95 85 128 177 81 -105 -113 -77 -16 -48 -52 -60 vhcurveto
          -31 -35 -55 -57 -102 -102 rrcurveto
          244 -142 hlineto
          endchar
        </CharString>
        <CharString name="cid00020" fdSelectIndex="0">
          -260 476 679 rmoveto
          -172 -229 rlineto
          132 -21 93 -83 -148 vvcurveto
          -153 -106 -111 -190 3 vhcurveto
          -60 1 -101 40 -50 51 rrcurveto
          160 vlineto
          -56 25 126 -60 60 hhcurveto
          84 53 42 87 136 -160 34 -101 26 hvcurveto
          -1 hlineto
          142 192 rlineto
          -201 89 hlineto
          endchar
        </CharString>
        <CharString name="cid00021" fdSelectIndex="0">
          -177 621 309 rmoveto
          -128 -161 -242 -112 242 -297 494 142 -366 155 325 112 -325 vlineto
          endchar
        </CharString>
        <CharString name="cid00022" fdSelectIndex="0">
          -213 293 423 rmoveto
          125 -17 123 -58 1 -179 1 -174 -127 -40 -59 -11 -20 -5 -74 -6 -48 10 -22 2 -68 19 -51 37 rrcurveto
          136 vlineto
          18 -30 58 -38 55 -19 22 -8 53 -5 19 3 rrcurveto
          62 8 20 59 44 vvcurveto
          52 -10 60 -77 27 vhcurveto
          -74 26 -83 -7 -61 -2 rrcurveto
          373 423 -143 -323 -108 vlineto
          45 1 29 -2 43 -5 rrcurveto
          endchar
        </CharString>
        <CharString name="cid00023" fdSelectIndex="0">
          -258 516 190 rmoveto
          -61 vlineto
          -93 -67 -94 -131 -4 vhcurveto
          0 -88 0 -5 1 vhcurveto
          -80 8 -78 60 -22 83 -20 72 18 83 31 63 199 372 rcurveline
          155 hlineto
          -123 -282 rlineto
          128 -3 83 -77 -128 vvcurveto
          -104 -51 rmoveto
          37 vlineto
          48 -29 46 -63 vhcurveto
          -49 1 rlineto
          -57 1 -39 -45 -52 vvcurveto
          -33 vlineto
          -52 48 -36 43 vhcurveto
          53 hlineto
          53 40 39 46 hvcurveto
          endchar
        </CharString>
        <CharString name="cid00024" fdSelectIndex="0">
          -265 540 678 rmoveto
          -329 -727 rlineto
          -146 hlineto
          285 640 rlineto
          -318 87 hlineto
          endchar
        </CharString>
        <CharString name="cid00025" fdSelectIndex="0">
          -245 333 681 rmoveto
          98 84 -60 -103 hvcurveto
          -91 vlineto
          -6 -51 -31 -39 -25 -26 rrcurveto
          55 -26 17 -49 -51 vvcurveto
          -60 vlineto
          -133 -105 -53 -87 vhcurveto
          -96 hlineto
          -86 -107 53 133 hvcurveto
          59 vlineto
          51 26 50 45 26 vhcurveto
          -25 26 -31 39 -5 51 rrcurveto
          91 vlineto
          103 87 60 96 vhcurveto
          26 -82 rmoveto
          -49 -39 -38 -43 hvcurveto
          -42 vlineto
          -28 39 -56 49 vhcurveto
          44 hlineto
          49 37 56 28 hvcurveto
          44 vlineto
          43 -37 36 -49 vhcurveto
          3 -523 rmoveto
          48 38 36 43 hvcurveto
          51 vlineto
          29 -37 45 -49 vhcurveto
          -44 hlineto
          -50 -38 -45 -29 hvcurveto
          -51 vlineto
          -43 38 -36 50 vhcurveto
          endchar
        </CharString>
        <CharString name="cid00026" fdSelectIndex="0">
          -282 499 548 rmoveto
          25 -89 -20 -94 -46 -72 -225 -344 rcurveline
          -151 hlineto
          156 282 -18 -1 -51 7 -15 5 rlinecurve
          -70 21 -51 68 84 vvcurveto
          72 vlineto
          108 77 85 123 vhcurveto
          89 -12 0 6 hhcurveto
          82 75 -41 -91 26 hvcurveto
          -361 -111 rmoveto
          -55 34 -24 43 -2 vhcurveto
          64 -3 rlineto
          44 -2 48 32 45 vvcurveto
          43 vlineto
          66 -47 29 -43 vhcurveto
          -61 hlineto
          -42 -40 -39 -45 hvcurveto
          endchar
        </CharString>
        <CharString name="cid00027" fdSelectIndex="0">
          -623 152 170 rmoveto
          -110 -110 110 vlineto
          110 320 rmoveto
          -110 -110 110 vlineto
          endchar
        </CharString>
        <CharString name="cid00028" fdSelectIndex="0">
          -623 152 490 rmoveto
          -110 -110 110 vlineto
          29 -535 rmoveto
          -29 29 21 21 22 24 2 40 rlinecurve
          -45 101 114 -83 hlineto
          -51 -34 -50 -51 -31 vhcurveto
          endchar
        </CharString>
        <CharString name="cid00029" fdSelectIndex="0">
          -357 405 -129 rmoveto
          146 vlineto
          0 -234 235 -17 1 vhcurveto
          17 9 234 221 0 vvcurveto
          151 vlineto
          -348 -298 rlineto
          -164 vlineto
          endchar
        </CharString>
        <CharString name="cid00030" fdSelectIndex="0">
          -294 472 243 rmoveto
          -100 -426 100 vlineto
          426 200 rmoveto
          -100 -426 100 vlineto
          endchar
        </CharString>
        <CharString name="cid00031" fdSelectIndex="0">
          -360 57 -129 rmoveto
          146 vlineto
          0 234 235 17 1 vhcurveto
          -17 9 -234 221 0 vvcurveto
          151 vlineto
          348 -298 rlineto
          -164 vlineto
          endchar
        </CharString>
        <CharString name="cid00032" fdSelectIndex="0">
          -295 463 399 rmoveto
          -125 -286 rlineto
          -128 hlineto
          141 312 16 36 -4 56 -30 34 rlinecurve
          20 -21 -24 10 -31 hhcurveto
          -32 -14 -10 -20 -19 hvcurveto
          -18 -20 -9 -26 -30 vvcurveto
          -118 hlineto
          59 20 48 39 39 vhcurveto
          38 41 50 20 60 hhcurveto
          61 60 -19 -37 41 hvcurveto
          57 -51 21 -102 -34 -71 rrcurveto
          -129 -366 rmoveto
          -115 -131 115 vlineto
          endchar
        </CharString>
        <CharString name="cid00033" fdSelectIndex="0">
          -91 525 223 rmoveto
          -59 49 -19 62 vvcurveto
          245 vlineto
          50 -64 44 -51 vhcurveto
          -166 hlineto
          -51 -69 -44 -50 hvcurveto
          -333 vlineto
          -54 55 -54 65 vhcurveto
          338 -101 -357 hlineto
          -89 -140 50 149 hvcurveto
          354 vlineto
          130 130 86 117 vhcurveto
          162 hlineto
          132 96 -86 -130 hvcurveto
          -279 vlineto
          -62 -30 -33 -36 -14 vhcurveto
          -53 -20 -80 22 -21 47 rrcurveto
          -24 -17 -27 -13 -23 hhcurveto
          -77 hlineto
          -40 -50 33 80 hvcurveto
          132 vlineto
          63 46 54 64 vhcurveto
          46 hlineto
          13 26 -4 -15 14 hvcurveto
          41 88 vlineto
          -85 -258 rmoveto
          113 vlineto
          26 -15 25 -33 vhcurveto
          -18 hlineto
          -23 -14 -25 -26 hvcurveto
          -113 vlineto
          -28 8 -25 38 vhcurveto
          9 hlineto
          29 19 29 24 hvcurveto
          endchar
        </CharString>
        <CharString name="cid00034" fdSelectIndex="0">
          -118 177 -50 rmoveto
          -161 hlineto
          260 729 rlineto
          141 hlineto
          258 -729 rlineto
          -133 hlineto
          -45 151 rlineto
          -270 hlineto
          40 86 rmoveto
          187 hlineto
          -91 309 rlineto
          -2 hlineto
          endchar
        </CharString>
        <CharString name="cid00035" fdSelectIndex="0">
          -192 44 678 rmoveto
          297 hlineto
          188 49 -91 -96 -104 -62 -33 -31 -15 hvcurveto
          89 -34 26 -59 -2 -79 rrcurveto
          -146 -4 -112 -71 -177 hhcurveto
          -261 hlineto
          165 431 rmoveto
          137 hlineto
          78 60 34 73 65 -53 33 -90 hvcurveto
          -132 hlineto
          4 -515 rmoveto
          145 hlineto
          90 43 56 56 75 -58 36 -67 hvcurveto
          -153 hlineto
          endchar
        </CharString>
        <CharString name="cid00036" fdSelectIndex="0">
          -167 471 173 rmoveto
          144 hlineto
          -138 -97 -85 -127 vhcurveto
          -135 hlineto
          -87 -125 48 157 hvcurveto
          296 vlineto
          126 92 101 147 vhcurveto
          110 hlineto
          110 74 -69 -94 31 hvcurveto
          -137 -43 rlineto
          37 -17 -35 26 -39 hhcurveto
          -76 hlineto
          -69 -32 -54 -53 hvcurveto
          -239 vlineto
          -66 16 -47 74 vhcurveto
          85 hlineto
          61 28 44 53 4 hvcurveto
          endchar
        </CharString>
        <CharString name="cid00037" fdSelectIndex="0">
          -179 41 678 rmoveto
          302 hlineto
          111 145 -45 -192 -2 hvcurveto
          -1 -241 rlineto
          -176 -1 -147 -74 -122 hhcurveto
          -285 hlineto
          429 454 rmoveto
          90 -40 41 -110 vhcurveto
          -118 -427 127 hlineto
          73 68 25 90 hvcurveto
          endchar
        </CharString>
        <CharString name="cid00038" fdSelectIndex="0">
          -247 539 563 rmoveto
          -331 -178 273 -99 -273 -226 331 -109 -496 727 496 hlineto
          endchar
        </CharString>
        <CharString name="cid00039" fdSelectIndex="0">
          -264 545 579 rmoveto
          -319 -200 281 -97 -281 -332 -169 728 488 hlineto
          endchar
        </CharString>
        <CharString name="cid00040" fdSelectIndex="0">
          -190 598 337 rmoveto
          -162 vlineto
          -143 -62 -73 -124 -11 vhcurveto
          -48 -5 -46 3 -61 2 rrcurveto
          -108 4 -116 63 157 vvcurveto
          277 vlineto
          128 94 101 156 vhcurveto
          71 hlineto
          130 74 -68 -95 31 hvcurveto
          -142 -43 rlineto
          36 -16 -18 28 -58 hhcurveto
          -61 hlineto
          -71 -38 -45 -53 hvcurveto
          -251 vlineto
          -75 36 -39 64 vhcurveto
          68 hlineto
          93 11 58 76 -1 hvcurveto
          -1 45 rlineto
          -118 85 hlineto
          endchar
        </CharString>
        <CharString name="cid00041" fdSelectIndex="0">
          -171 217 278 rmoveto
          -328 -176 729 176 -290 256 290 136 -729 -136 328 vlineto
          endchar
        </CharString>
        <CharString name="cid00042" fdSelectIndex="0">
          -573 197 -50 rmoveto
          -146 728 146 hlineto
          endchar
        </CharString>
        <CharString name="cid00043" fdSelectIndex="0">
          -270 349 678 rmoveto
          156 -520 hlineto
          -154 -82 -75 -146 -242 -1 154 139 vhcurveto
          142 hlineto
          -115 7 -56 81 80 5 51 56 vhcurveto
          endchar
        </CharString>
        <CharString name="cid00044" fdSelectIndex="0">
          -239 554 123 rmoveto
          -172 vlineto
          -368 269 rlineto
          -269 -148 727 148 -202 vlineto
          355 200 rlineto
          -164 vlineto
          -275 -163 rlineto
          endchar
        </CharString>
        <CharString name="cid00045" fdSelectIndex="0">
          -258 203 56 rmoveto
          332 -107 -494 729 162 hlineto
          endchar
        </CharString>
        <CharString name="cid00046" fdSelectIndex="0">
          -110 518 678 rmoveto
          149 -728 -149 538 hlineto
          -158 -139 -156 138 rlineto
          -537 -168 729 168 vlineto
          158 -177 rlineto
          endchar
        </CharString>
        <CharString name="cid00047" fdSelectIndex="0">
          -154 218 -50 rmoveto
          -177 729 177 hlineto
          265 -505 rlineto
          505 146 -729 -154 vlineto
          -257 456 rlineto
          endchar
        </CharString>
        <CharString name="cid00048" fdSelectIndex="0">
          -173 402 -50 rmoveto
          -148 hlineto
          -89 -130 50 149 hvcurveto
          313 vlineto
          130 110 87 127 vhcurveto
          102 hlineto
          132 96 -86 -130 hvcurveto
          -317 vlineto
          -118 -111 -78 -89 vhcurveto
          -54 120 rmoveto
          64 42 35 64 hvcurveto
          283 vlineto
          50 -34 44 -71 vhcurveto
          -56 hlineto
          -71 -39 -45 -50 hvcurveto
          -282 vlineto
          -54 27 -45 75 vhcurveto
          endchar
        </CharString>
        <CharString name="cid00049" fdSelectIndex="0">
          -190 595 430 rmoveto
          -156 -107 -54 -150 -2 vhcurveto
          -142 -268 -159 730 300 hlineto
          95 163 -24 -226 hvcurveto
          -272 -118 rmoveto
          78 46 36 80 80 -34 38 -81 1 hvcurveto
          -136 -235 hlineto
          endchar
        </CharString>
        <CharString name="cid00050" fdSelectIndex="0">
          -127 586 58 rmoveto
          34 -41 33 -41 32 -26 rrcurveto
          -151 hlineto
          0 -15 13 -24 26 vhcurveto
          -27 -28 -56 -12 -38 hhcurveto
          -118 hlineto
          -91 -132 59 157 hvcurveto
          302 vlineto
          127 84 101 168 vhcurveto
          105 hlineto
          123 116 -81 -147 hvcurveto
          -301 vlineto
          -58 -25 -30 -17 -21 vhcurveto
          -242 18 rmoveto
          26 24 4 6 24 hvcurveto
          -73 65 -13 74 -1 46 rrcurveto
          126 hlineto
          -42 19 -48 30 -28 vhcurveto
          3 8 5 13 8 vvcurveto
          256 vlineto
          72 -50 47 -82 vhcurveto
          -87 hlineto
          -72 -40 -47 -52 hvcurveto
          -266 vlineto
          -56 16 -60 86 vhcurveto
          endchar
        </CharString>
        <CharString name="cid00051" fdSelectIndex="0">
          -175 600 -50 rmoveto
          -171 hlineto
          20 36 0 27 75 vvcurveto
          99 -16 48 -112 vhcurveto
          -113 -285 -173 728 347 hlineto
          193 30 -143 -63 -79 -35 -69 -72 -24 hvcurveto
          60 -27 42 -22 -136 vvcurveto
          -258 243 rmoveto
          78 39 28 71 38 -17 57 -89 hvcurveto
          -145 -194 hlineto
          endchar
        </CharString>
        <CharString name="cid00052" fdSelectIndex="0">
          -182 37 26 rmoveto
          161 vlineto
          -46 71 88 -41 104 hhcurveto
          71 71 16 52 7 hvcurveto
          8 64 -98 28 -39 9 -104 26 -66 23 -19 10 rrcurveto
          -62 35 -31 49 64 vvcurveto
          136 144 67 126 87 86 -23 -49 70 vhcurveto
          -140 vlineto
          -55 47 -84 45 -78 -7 rrcurveto
          -65 -6 -42 -19 -51 vvcurveto
          -50 106 -31 36 -11 vhcurveto
          137 -39 98 -31 -5 -152 rrcurveto
          -151 -5 -165 -61 -123 hhcurveto
          -89 -103 28 48 -77 hvcurveto
          endchar
        </CharString>
        <CharString name="cid00053" fdSelectIndex="0">
          -154 17 679 rmoveto
          632 -154 -232 -575 -155 575 -245 hlineto
          endchar
        </CharString>
        <CharString name="cid00054" fdSelectIndex="0">
          -151 198 674 rmoveto
          -479 vlineto
          -36 16 -52 68 vhcurveto
          100 hlineto
          66 23 49 45 hvcurveto
          473 161 -508 vlineto
          -152 -105 -64 -122 vhcurveto
          -133 hlineto
          -145 -99 98 138 8 hvcurveto
          488 vlineto
          endchar
        </CharString>
        <CharString name="cid00055" fdSelectIndex="0">
          -104 10 679 rmoveto
          179 hlineto
          0 128 -508 1 -17 vhcurveto
          9 17 185 508 0 vvcurveto
          195 hlineto
          -304 -729 rlineto
          -168 hlineto
          endchar
        </CharString>
        <CharString name="cid00056" fdSelectIndex="0">
          145 803 679 rmoveto
          145 hlineto
          -240 -729 rlineto
          -122 hlineto
          -104 259 -104 -259 rlineto
          -122 hlineto
          -240 729 rlineto
          181 hlineto
          154 -486 108 318 rlineto
          46 hlineto
          144 -354 rlineto
          endchar
        </CharString>
        <CharString name="cid00057" fdSelectIndex="0">
          -148 660 -50 rmoveto
          -217 hlineto
          -134 248 -129 -248 rlineto
          -171 hlineto
          214 380 -201 348 rlineto
          214 hlineto
          119 -217 113 217 rlineto
          161 hlineto
          -186 -333 rlineto
          endchar
        </CharString>
        <CharString name="cid00058" fdSelectIndex="0">
          -145 654 678 rmoveto
          -225 -470 rlineto
          -258 -194 269 vlineto
          -222 459 rlineto
          178 hlineto
          150 -338 142 338 rlineto
          endchar
        </CharString>
        <CharString name="cid00059" fdSelectIndex="0">
          -242 549 -50 rmoveto
          -521 151 hlineto
          331 475 rlineto
          -331 103 520 -94 hlineto
          -357 -483 rlineto
          358 hlineto
          endchar
        </CharString>
        <CharString name="cid00060" fdSelectIndex="0">
          -498 289 719 rmoveto
          -90 -126 -639 126 -90 -242 819 vlineto
          endchar
        </CharString>
        <CharString name="cid00061" fdSelectIndex="0">
          -398 395 678 rmoveto
          -227 -729 rlineto
          -140 hlineto
          232 729 rlineto
          endchar
        </CharString>
        <CharString name="cid00062" fdSelectIndex="0">
          -464 47 719 rmoveto
          -90 126 -639 -126 -90 242 819 vlineto
          endchar
        </CharString>
        <CharString name="cid00063" fdSelectIndex="0">
          -314 168 451 rmoveto
          -154 hlineto
          156 234 rlineto
          136 hlineto
          156 -234 rlineto
          -122 hlineto
          -87 134 1 -1 0 vvcurveto
          endchar
        </CharString>
        <CharString name="cid00064" fdSelectIndex="0">
          -265 485 2 rmoveto
          -90 -426 90 vlineto
          endchar
        </CharString>
        <CharString name="cid00065" fdSelectIndex="0">
          -597 151 672 rmoveto
          30 -200 rlineto
          -96 hlineto
          -50 200 rlineto
          endchar
        </CharString>
        <CharString name="cid00066" fdSelectIndex="0">
          -285 442 138 rmoveto
          -57 23 -76 42 -67 vhcurveto
          -118 hlineto
          -27 58 rlineto
          -29 -24 -33 -16 -32 hhcurveto
          -119 hlineto
          -56 -70 40 97 hvcurveto
          181 vlineto
          77 54 64 90 vhcurveto
          54 hlineto
          20 46 -8 -31 26 hvcurveto
          56 124 vlineto
          -144 -186 rmoveto
          62 -42 21 -32 vhcurveto
          -27 hlineto
          -32 -26 -31 -32 hvcurveto
          -160 vlineto
          -22 6 -43 52 vhcurveto
          33 hlineto
          40 28 17 48 hvcurveto
          endchar
        </CharString>
        <CharString name="cid00067" fdSelectIndex="0">
          -335 253 427 rmoveto
          68 hlineto
          66 64 -50 -74 hvcurveto
          -216 vlineto
          -76 -76 -61 -71 vhcurveto
          -53 hlineto
          -33 -24 11 17 -23 hvcurveto
          -28 -131 728 131 -280 vlineto
          17 18 26 12 38 hhcurveto
          -4 -358 rmoveto
          46 hlineto
          51 21 27 41 hvcurveto
          140 vlineto
          48 -31 26 -41 vhcurveto
          -44 hlineto
          -51 -22 -33 -32 hvcurveto
          -157 vlineto
          -32 38 -28 33 vhcurveto
          endchar
        </CharString>
        <CharString name="cid00068" fdSelectIndex="0">
          -373 313 93 rmoveto
          17 102 -24 vlineto
          -81 -73 -55 -59 vhcurveto
          -104 hlineto
          -60 -89 33 103 hvcurveto
          198 vlineto
          83 94 41 72 vhcurveto
          61 hlineto
          74 67 -75 -63 10 hvcurveto
          -105 -14 rlineto
          28 -6 -31 20 -29 hhcurveto
          -35 hlineto
          -32 -38 -26 -31 hvcurveto
          -144 vlineto
          -21 29 -40 41 vhcurveto
          42 hlineto
          41 28 23 28 hvcurveto
          endchar
        </CharString>
        <CharString name="cid00069" fdSelectIndex="0">
          -324 236 427 rmoveto
          -78 hlineto
          -66 -64 -50 -74 hvcurveto
          -216 vlineto
          -76 57 -61 100 vhcurveto
          49 hlineto
          32 29 14 21 23 hvcurveto
          -35 131 728 -131 -270 vlineto
          15 -28 -16 4 -38 hhcurveto
          5 -368 rmoveto
          -48 hlineto
          -51 -11 35 41 hvcurveto
          132 vlineto
          48 31 26 41 vhcurveto
          35 hlineto
          51 22 -33 -32 hvcurveto
          -150 vlineto
          -42 -38 -25 -33 vhcurveto
          endchar
        </CharString>
        <CharString name="cid00070" fdSelectIndex="0">
          -321 269 426 rmoveto
          94 83 -60 -97 hvcurveto
          -113 -297 -46 vlineto
          -25 15 -49 67 vhcurveto
          39 hlineto
          48 24 23 43 hvcurveto
          113 -30 hlineto
          -96 -80 -26 -86 vhcurveto
          -96 hlineto
          -67 -82 35 107 -16 hvcurveto
          177 vlineto
          88 85 69 99 vhcurveto
          -63 -195 rmoveto
          183 30 hlineto
          36 -39 32 -38 vhcurveto
          -32 hlineto
          -38 -36 -32 -36 hvcurveto
          endchar
        </CharString>
        <CharString name="cid00071" fdSelectIndex="0">
          -484 316 300 rmoveto
          -86 -104 -264 -117 264 -80 86 80 129 vlineto
          79 50 25 65 vhcurveto
          94 hlineto
          0 0 -71 -22 vvcurveto
          -57 hlineto
          -25 -10 -14 -28 hvcurveto
          -98 vlineto
          endchar
        </CharString>
        <CharString name="cid00072" fdSelectIndex="0">
          -356 428 427 rmoveto
          -522 vlineto
          -103 -93 -35 -57 vhcurveto
          -103 hlineto
          -57 -71 43 94 -1 hvcurveto
          115 hlineto
          -27 2 8 -29 38 hhcurveto
          43 hlineto
          31 21 23 23 hvcurveto
          87 vlineto
          -13 -12 -33 -8 -17 hhcurveto
          -76 hlineto
          -76 -61 50 75 hvcurveto
          168 vlineto
          78 65 61 79 vhcurveto
          62 hlineto
          23 23 -6 -12 23 hvcurveto
          53 vlineto
          -66 -391 rmoveto
          30 29 16 50 hvcurveto
          143 vlineto
          42 -37 19 -32 vhcurveto
          -21 hlineto
          -40 -26 -25 -42 hvcurveto
          -142 vlineto
          -28 16 -33 40 vhcurveto
          endchar
        </CharString>
        <CharString name="cid00073" fdSelectIndex="0">
          -300 372 226 rmoveto
          71 -39 18 -36 vhcurveto
          -47 hlineto
          -24 -44 -13 -28 hvcurveto
          -324 -135 729 135 -275 vlineto
          11 20 31 10 29 hhcurveto
          54 hlineto
          79 88 -50 -131 hvcurveto
          -294 -111 vlineto
          endchar
        </CharString>
        <CharString name="cid00074" fdSelectIndex="0">
          -563 65 516 rmoveto
          118 121 -118 vlineto
          -121 -566 rmoveto
          475 121 -475 vlineto
          endchar
        </CharString>
        <CharString name="cid00075" fdSelectIndex="0">
          -492 133 -50 rmoveto
          475 113 -484 vlineto
          -112 -100 -88 -110 vhcurveto
          113 vlineto
          59 10 38 30 56 vvcurveto
          113 567 rmoveto
          -116 117 116 hlineto
          endchar
        </CharString>
        <CharString name="cid00076" fdSelectIndex="0">
          -343 446 429 rmoveto
          -135 vlineto
          -179 -105 179 -106 rlineto
          -136 vlineto
          -270 155 rlineto
          -152 -127 728 127 -399 vlineto
          endchar
        </CharString>
        <CharString name="cid00077" fdSelectIndex="0">
          -576 188 -50 rmoveto
          -131 729 131 hlineto
          endchar
        </CharString>
        <CharString name="cid00078" fdSelectIndex="0">
          -121 555 -50 rmoveto
          268 vlineto
          41 -12 37 -40 1 vhcurveto
          -36 1 -20 -25 -57 vvcurveto
          -7 0 -259 0 vhcurveto
          -110 268 hlineto
          41 -22 38 -45 -72 -10 -53 -48 -3 0 -243 0 vhcurveto
          -145 486 145 -52 hlineto
          10 6 32 13 22 hhcurveto
          50 hlineto
          36 34 -17 -27 21 hvcurveto
          27 19 40 17 28 hhcurveto
          45 hlineto
          75 56 -70 -100 hvcurveto
          -287 vlineto
          endchar
        </CharString>
        <CharString name="cid00079" fdSelectIndex="0">
          -290 388 -50 rmoveto
          267 vlineto
          41 -33 40 -36 vhcurveto
          -68 hlineto
          -28 -39 -30 -35 hvcurveto
          -283 -147 487 147 -40 vlineto
          11 19 28 8 22 hhcurveto
          73 hlineto
          91 73 -65 -108 hvcurveto
          -293 vlineto
          endchar
        </CharString>
        <CharString name="cid00080" fdSelectIndex="0">
          -325 190 -50 rmoveto
          -86 -75 47 104 hvcurveto
          178 vlineto
          84 82 63 99 vhcurveto
          62 hlineto
          112 76 -67 -84 hvcurveto
          -184 vlineto
          -82 -62 -59 -96 vhcurveto
          -35 91 rmoveto
          45 22 38 28 hvcurveto
          142 vlineto
          32 -28 37 -46 vhcurveto
          -28 hlineto
          -36 -42 -20 -50 hvcurveto
          -136 vlineto
          -22 12 -49 56 vhcurveto
          endchar
        </CharString>
        <CharString name="cid00081" fdSelectIndex="0">
          -314 315 434 rmoveto
          80 70 -65 -77 hvcurveto
          -212 vlineto
          -75 -77 -45 -66 vhcurveto
          -93 hlineto
          -28 -22 9 12 -15 hvcurveto
          -240 -131 700 131 -35 vlineto
          17 23 35 11 33 hhcurveto
          112 -203 rmoveto
          59 -30 25 -42 vhcurveto
          -55 hlineto
          -32 -37 -30 -32 hvcurveto
          -134 vlineto
          -42 23 -28 39 vhcurveto
          56 hlineto
          40 38 18 58 hvcurveto
          endchar
        </CharString>
        <CharString name="cid00082" fdSelectIndex="0">
          -319 178 434 rmoveto
          -80 -70 -65 -77 hvcurveto
          -212 vlineto
          -75 77 -45 66 vhcurveto
          93 hlineto
          28 22 9 12 15 hvcurveto
          -240 131 700 -131 -35 vlineto
          17 -23 -35 11 -33 hhcurveto
          -112 -203 rmoveto
          59 30 25 42 vhcurveto
          55 hlineto
          32 37 -30 -32 hvcurveto
          -134 vlineto
          -42 -23 -28 -39 vhcurveto
          -56 hlineto
          -40 -38 18 58 hvcurveto
          endchar
        </CharString>
        <CharString name="cid00083" fdSelectIndex="0">
          -375 414 428 rmoveto
          -127 vlineto
          -55 -1 -101 -3 -82 -62 rrcurveto
          -285 -137 476 137 -67 vlineto
          39 30 78 36 121 3 rrcurveto
          endchar
        </CharString>
        <CharString name="cid00084" fdSelectIndex="0">
          -347 36 -6 rmoveto
          93 vlineto
          64 -27 66 -30 60 5 37 1 34 3 9 38 12 46 -61 26 -32 7 rrcurveto
          -107 26 -81 18 97 vvcurveto
          127 160 36 103 -24 vhcurveto
          38 -9 37 -12 31 -23 rrcurveto
          -101 vlineto
          -23 19 -19 13 -30 13 -40 18 -58 9 -38 -29 -30 -23 18 -38 29 -9 54 -17 39 -12 46 -19 rrcurveto
          75 -31 11 -53 -50 vvcurveto
          -105 -114 -42 -97 -71 -61 21 38 -61 vhcurveto
          endchar
        </CharString>
        <CharString name="cid00085" fdSelectIndex="0">
          -413 385 435 rmoveto
          -99 -107 -386 -147 386 -106 99 106 214 147 -214 vlineto
          endchar
        </CharString>
        <CharString name="cid00086" fdSelectIndex="0">
          -290 333 426 rmoveto
          157 -476 -143 42 hlineto
          -35 -33 -39 -7 -29 hhcurveto
          -41 hlineto
          -89 -77 39 141 hvcurveto
          296 122 -266 vlineto
          -67 15 -30 49 vhcurveto
          40 hlineto
          41 27 31 58 hvcurveto
          endchar
        </CharString>
        <CharString name="cid00087" fdSelectIndex="0">
          -183 411 425 rmoveto
          207 hlineto
          -210 -475 rlineto
          -183 hlineto
          -211 475 rlineto
          165 hlineto
          -272 117 -2 1 1 hhcurveto
          endchar
        </CharString>
        <CharString name="cid00088" fdSelectIndex="0">
          -45 565 425 rmoveto
          185 hlineto
          -181 -475 rlineto
          -128 hlineto
          -63 165 -63 -165 rlineto
          -121 hlineto
          -181 475 rlineto
          142 hlineto
          33 -86 32 -85 34 -86 4 11 25 63 23 61 -46 122 rcurveline
          106 hlineto
          33 -86 32 -85 34 -86 rrcurveto
          endchar
        </CharString>
        <CharString name="cid00089" fdSelectIndex="0">
          -207 589 426 rmoveto
          -188 -241 181 -235 rlineto
          -193 hlineto
          -114 148 -100 -148 rlineto
          -156 hlineto
          165 239 -165 237 rlineto
          162 hlineto
          98 -144 111 144 rlineto
          endchar
        </CharString>
        <CharString name="cid00090" fdSelectIndex="0">
          -229 570 426 rmoveto
          -273 -759 rlineto
          -183 hlineto
          95 264 -188 495 rlineto
          130 hlineto
          117 -319 116 319 rlineto
          endchar
        </CharString>
        <CharString name="cid00091" fdSelectIndex="0">
          -257 264 82 rmoveto
          253 -132 -486 hlineto
          247 389 rlineto
          -238 87 474 hlineto
          endchar
        </CharString>
        <CharString name="cid00092" fdSelectIndex="0">
          -453 329 699 rmoveto
          -70 -54 vlineto
          -26 -6 -10 -26 hvcurveto
          -205 vlineto
          -88 -52 -14 -13 -2 -28 12 -15 rlinecurve
          92 -75 rlineto
          -210 vlineto
          -25 6 -9 25 vhcurveto
          55 -60 -126 hlineto
          -48 -38 37 36 hvcurveto
          215 vlineto
          -83 84 -16 18 -2 39 17 16 rlinecurve
          84 70 rlineto
          210 vlineto
          34 26 39 54 vhcurveto
          endchar
        </CharString>
        <CharString name="cid00093" fdSelectIndex="0">
          -515 224 -90 rmoveto
          -144 768 144 hlineto
          endchar
        </CharString>
        <CharString name="cid00094" fdSelectIndex="0">
          -453 26 699 rmoveto
          -70 54 vlineto
          26 6 -10 -26 hvcurveto
          -205 vlineto
          88 -52 14 -13 2 -28 -12 -15 rlinecurve
          -92 -75 rlineto
          -210 vlineto
          -25 -6 -9 -25 vhcurveto
          -55 -60 126 hlineto
          48 38 37 36 hvcurveto
          215 vlineto
          83 84 16 18 2 39 -17 16 rlinecurve
          -84 70 rlineto
          210 vlineto
          34 -26 39 -54 vhcurveto
          endchar
        </CharString>
        <CharString name="cid00095" fdSelectIndex="0">
          -222 563 346 rmoveto
          -69 -24 -45 -56 -58 hhcurveto
          -110 -43 98 3 -74 hvcurveto
          -40 -51 -20 -54 -28 hvcurveto
          -49 65 39 74 59 45 64 2 rlinecurve
          100 6 28 -105 95 3 53 2 15 51 6 23 rrcurveto
          endchar
        </CharString>
        <CharString name="cid00358" fdSelectIndex="0">
          675 556 rmoveto
          -103 vlineto
          2 -188 -108 -166 0 vvcurveto
          -138 hlineto
          84 128 21 157 62 vvcurveto
          -370 110 hlineto
          endchar
        </CharString>
        <CharString name="cid00359" fdSelectIndex="0">
          437 573 rmoveto
          310 -118 hlineto
          -282 -89 -78 0 vhcurveto
          -133 hlineto
          93 156 -7 131 -7 72 rrcurveto
          -167 hlineto
          -360 119 rmoveto
          310 -98 hlineto
          -241 -97 -139 0 vhcurveto
          -135 hlineto
          72 144 24 143 -7 72 rrcurveto
          -167 hlineto
          endchar
        </CharString>
        <CharString name="cid00360" fdSelectIndex="0">
          81 573 rmoveto
          311 -88 hlineto
          -191 -67 -189 0 vhcurveto
          -135 hlineto
          53 124 12 153 -3 72 rrcurveto
          -171 hlineto
          572 119 rmoveto
          -116 -111 hlineto
          -114 -38 -79 -103 -61 vhcurveto
          -106 vlineto
          0 119 35 78 113 vhcurveto
          79 -113 116 -35 0 vvcurveto
          104 vlineto
          -119 84 -16 70 93 vvcurveto
          endchar
        </CharString>
        <CharString name="cid00361" fdSelectIndex="0">
          291 246 rmoveto
          441 -108 -580 419 139 hlineto
          endchar
        </CharString>
        <CharString name="cid00362" fdSelectIndex="0">
          251 226 rmoveto
          151 -108 -290 439 139 hlineto
          551 -101 rmoveto
          -125 hlineto
          -2 -49 15 -152 104 -47 rrcurveto
          -105 vlineto
          0 -143 43 -38 117 vhcurveto
          -39 -117 -142 -43 0 vvcurveto
          105 vlineto
          103 47 14 152 -2 49 rrcurveto
          -124 105 379 hlineto
          endchar
        </CharString>
        <CharString name="cid00363" fdSelectIndex="0">
          231 226 rmoveto
          151 -108 -290 439 139 hlineto
          580 -60 rmoveto
          -93 -103 vlineto
          32 -17 23 -36 -40 vvcurveto
          -100 vlineto
          -65 -44 -46 -61 vhcurveto
          -128 hlineto
          -63 -58 46 65 hvcurveto
          100 vlineto
          40 25 36 28 17 vhcurveto
          -96 93 166 88 118 -88 hlineto
          -1 -262 rmoveto
          57 vlineto
          25 -18 22 -26 vhcurveto
          -36 hlineto
          -25 -18 -22 -25 hvcurveto
          -57 vlineto
          -26 18 -21 25 vhcurveto
          36 hlineto
          26 18 21 26 hvcurveto
          endchar
        </CharString>
        <CharString name="cid00364" fdSelectIndex="0">
          701 452 rmoveto
          121 -581 -449 590 117 -451 211 vlineto
          endchar
        </CharString>
        <CharString name="cid00365" fdSelectIndex="0">
          729 433 rmoveto
          120 -600 -428 600 109 -192 199 vlineto
          -134 -199 rmoveto
          -140 199 140 hlineto
          endchar
        </CharString>
        <CharString name="cid00366" fdSelectIndex="0">
          119 119 rmoveto
          621 97 -484 82 474 293 -611 -115 474 -86 -474 hlineto
          endchar
        </CharString>
        <CharString name="cid00367" fdSelectIndex="0">
          440 236 rmoveto
          -109 -352 278 188 69 -188 110 299 -273 -176 -75 vlineto
          220 337 rmoveto
          301 -111 hlineto
          -191 -48 -166 0 vhcurveto
          -135 hlineto
          42 103 8 174 -3 72 rrcurveto
          -165 hlineto
          endchar
        </CharString>
        <CharString name="cid00368" fdSelectIndex="0">
          435 584 rmoveto
          331 -490 -331 17 -347 287 183 71 -183 115 290 -283 -167 -77 224 hlineto
          220 hmoveto
          245 -111 -245 vlineto
          endchar
        </CharString>
        <CharString name="cid00369" fdSelectIndex="0">
          653 585 rmoveto
          115 -490 -319 32 -341 278 162 69 -162 110 270 -273 -147 -75 218 349 119 -119 85 hlineto
          -85 -253 rmoveto
          85 121 -85 hlineto
          endchar
        </CharString>
        <CharString name="cid00370" fdSelectIndex="0">
          660 563 rmoveto
          -116 -111 hlineto
          -114 -24 -77 -103 -61 vhcurveto
          -108 vlineto
          0 107 35 78 113 vhcurveto
          79 -113 100 -35 0 vvcurveto
          104 vlineto
          -119 84 -2 70 93 vvcurveto
          -264 -217 rmoveto
          -109 -302 278 172 69 -172 110 280 -273 -157 -75 vlineto
          endchar
        </CharString>
        <CharString name="cid00371" fdSelectIndex="0">
          411 229 rmoveto
          -109 -316 278 168 73 -168 110 274 -276 -154 -76 vlineto
          517 237 rmoveto
          -169 -74 167 -103 -167 -82 181 -106 -304 470 292 hlineto
          endchar
        </CharString>
        <CharString name="cid00372" fdSelectIndex="0">
          410 578 rmoveto
          357 -111 -357 hlineto
          314 -43 rmoveto
          -35 -211 rlineto
          84 -99 -362 99 68 hlineto
          -24 211 rlineto
          98 hlineto
          16 -211 rlineto
          35 hlineto
          26 211 rlineto
          -234 -195 rmoveto
          -109 -307 278 168 73 -168 110 274 -276 -154 -76 vlineto
          endchar
        </CharString>
        <CharString name="cid00373" fdSelectIndex="0">
          388 230 rmoveto
          -109 -290 278 162 69 -162 110 270 -273 -147 -75 vlineto
          574 254 rmoveto
          -89 -90 vlineto
          31 -17 22 -23 -40 vvcurveto
          -94 vlineto
          -63 -52 -46 -59 vhcurveto
          -101 hlineto
          -60 -59 34 83 hvcurveto
          76 vlineto
          49 24 24 27 17 vhcurveto
          -83 89 138 85 117 -85 hlineto
          -2 -243 rmoveto
          66 vlineto
          24 -17 21 -25 vhcurveto
          -25 hlineto
          -24 -17 -21 -24 hvcurveto
          -66 vlineto
          -25 17 -20 24 vhcurveto
          25 hlineto
          25 17 20 25 hvcurveto
          endchar
        </CharString>
        <CharString name="cid00374" fdSelectIndex="0">
          117 574 rmoveto
          -441 591 441 vlineto
          -124 -326 rmoveto
          -330 212 330 hlineto
          endchar
        </CharString>
        <CharString name="cid00375" fdSelectIndex="0">
          589 587 rmoveto
          -137 -350 137 -126 -465 603 465 vlineto
          -127 -349 rmoveto
          -350 109 350 hlineto
          endchar
        </CharString>
        <CharString name="cid00376" fdSelectIndex="0">
          493 241 rmoveto
          123 112 -123 hlineto
          -120 -2 rmoveto
          -121 -112 121 hlineto
          352 -106 rmoveto
          -605 450 132 -127 121 129 120 -127 123 127 109 hlineto
          endchar
        </CharString>
        <CharString name="cid00377" fdSelectIndex="0">
          675 574 rmoveto
          -49 vlineto
          -105 47 -116 89 -55 vhcurveto
          -112 vlineto
          0 -133 60 -58 118 vhcurveto
          -39 -95 -105 -68 -33 -12 rrcurveto
          -333 431 120 -113 102 113 111 -308 hlineto
          75 54 34 94 114 vvcurveto
          49 vlineto
          -220 -322 rmoveto
          96 -102 -96 vlineto
          endchar
        </CharString>
        <CharString name="cid00378" fdSelectIndex="0">
          353 567 rmoveto
          -9 -69 -101 -210 -139 -156 rrcurveto
          172 hlineto
          57 80 56 86 38 84 47 -95 44 -62 67 -93 rrcurveto
          161 hlineto
          -99 129 -125 201 -24 105 rrcurveto
          endchar
        </CharString>
        <CharString name="cid00379" fdSelectIndex="0">
          240 578 rmoveto
          137 -86 hlineto
          -104 36 -30 34 -36 vhcurveto
          31 61 12 39 72 vvcurveto
          84 136 -73 vlineto
          -228 134 -36 0 vhcurveto
          -118 vlineto
          -82 27 -83 56 -40 55 rrcurveto
          -27 -51 -68 -76 0 vvcurveto
          -156 hlineto
          48 39 22 39 0 vvcurveto
          -66 60 rlineto
          -64 -88 -144 -57 0 vvcurveto
          116 vlineto
          103 67 37 64 121 vvcurveto
          endchar
        </CharString>
        <CharString name="cid00380" fdSelectIndex="0">
          512 569 rmoveto
          -201 hlineto
          -116 -73 -74 -87 -7 hvcurveto
          -3 -35 0 -43 -35 vvcurveto
          -110 86 -58 128 vhcurveto
          186 hlineto
          118 86 59 110 hvcurveto
          108 vlineto
          99 -86 66 -118 vhcurveto
          -166 -334 rmoveto
          -71 -25 26 39 -6 hvcurveto
          -3 19 -1 32 4 28 rrcurveto
          65 10 41 9 51 hhcurveto
          137 hlineto
          71 37 -29 -64 hvcurveto
          -41 vlineto
          -67 -73 -17 -46 vhcurveto
          endchar
        </CharString>
        <CharString name="cid00381" fdSelectIndex="0">
          112 438 rmoveto
          222 hlineto
          -43 -79 -75 -68 -121 -54 rrcurveto
          -105 vlineto
          70 11 198 96 56 107 59 -104 140 -92 121 -21 rrcurveto
          97 vlineto
          -100 32 -86 82 -51 98 rrcurveto
          222 113 -612 hlineto
          endchar
        </CharString>
        <CharString name="cid00382" fdSelectIndex="0">
          735 232 rmoveto
          -111 vlineto
          -80 17 -80 61 -38 52 rrcurveto
          -26 -58 -64 -62 0 vvcurveto
          -153 hlineto
          46 37 22 37 0 vvcurveto
          -64 58 rlineto
          -63 -83 -138 -56 0 vvcurveto
          108 vlineto
          91 56 34 57 10 112 rrcurveto
          -136 116 651 -116 -144 hlineto
          11 -191 121 -34 0 vvcurveto
          -303 72 rmoveto
          27 51 10 57 4 45 rrcurveto
          -108 hlineto
          6 -102 30 -19 31 -32 rrcurveto
          endchar
        </CharString>
        <CharString name="cid00383" fdSelectIndex="0">
          345 648 rmoveto
          136 -120 249 -113 -204 hlineto
          51 -98 58 -48 90 -33 rrcurveto
          -96 vlineto
          -121 21 -130 84 -59 104 -56 -107 -188 -95 -70 -11 rrcurveto
          104 vlineto
          121 54 35 42 43 79 rrcurveto
          -202 113 247 hlineto
          endchar
        </CharString>
        <CharString name="cid00384" fdSelectIndex="0">
          142 577 rmoveto
          571 -108 hlineto
          -256 -64 -107 0 vhcurveto
          -133 hlineto
          32 63 3 41 11 64 rrcurveto
          -364 100 376 hlineto
          3 53 0 15 -2 26 rrcurveto
          -433 hlineto
          endchar
        </CharString>
        <CharString name="cid00385" fdSelectIndex="0">
          695 611 rmoveto
          -103 -559 103 vlineto
          125 -378 rmoveto
          445 -104 -570 312 559 -103 -434 hlineto
          endchar
        </CharString>
        <CharString name="cid00386" fdSelectIndex="0">
          107 583 rmoveto
          608 -118 -608 hlineto
          514 -61 rmoveto
          -61 -174 rlineto
          165 -107 -608 107 131 hlineto
          -72 174 rlineto
          130 hlineto
          67 -169 rlineto
          73 hlineto
          46 169 rlineto
          endchar
        </CharString>
        <CharString name="cid00387" fdSelectIndex="0">
          289 428 rmoveto
          270 hlineto
          87 63 -43 -80 hvcurveto
          -91 vlineto
          -72 -72 -49 -88 vhcurveto
          -255 hlineto
          -92 -63 57 65 hvcurveto
          89 vlineto
          75 73 49 77 vhcurveto
          21 -233 rmoveto
          227 hlineto
          34 19 30 33 34 -19 31 -34 hvcurveto
          -227 hlineto
          -35 -17 -31 -34 -33 15 -30 37 hvcurveto
          185 389 rmoveto
          260 -103 -659 103 248 80 151 hlineto
          endchar
        </CharString>
        <CharString name="cid00388" fdSelectIndex="0">
          477 448 rmoveto
          270 -131 -821 131 422 125 129 vlineto
          endchar
        </CharString>
        <CharString name="cid00389" fdSelectIndex="0">
          468 719 rmoveto
          122 -822 -122 423 -83 hlineto
          2 -423 rlineto
          -127 822 125 -272 83 hlineto
          endchar
        </CharString>
        <CharString name="cid00390" fdSelectIndex="0">
          587 382 rmoveto
          -116 -93 116 -116 -116 -276 -129 821 129 -222 116 hlineto
          endchar
        </CharString>
        <CharString name="cid00391" fdSelectIndex="0">
          511 720 rmoveto
          115 -833 -115 528 -112 -528 -127 833 127 -188 112 hlineto
          -140 -362 rmoveto
          128 175 -128 vlineto
          endchar
        </CharString>
        <CharString name="cid00392" fdSelectIndex="0">
          431 720 rmoveto
          -309 -145 -137 145 -377 132 823 vlineto
          endchar
        </CharString>
        <CharString name="cid00393" fdSelectIndex="0">
          329 423 rmoveto
          -103 -142 103 -393 117 842 -117 hlineto
          186 hmoveto
          -842 118 842 vlineto
          endchar
        </CharString>
        <CharString name="cid00394" fdSelectIndex="0">
          420 728 rmoveto
          142 -841 -142 272 -133 117 133 113 -133 118 133 hlineto
          endchar
        </CharString>
        <CharString name="cid00395" fdSelectIndex="0">
          530 729 rmoveto
          -841 119 841 vlineto
          -326 -261 rmoveto
          -92 -114 92 -124 -112 -115 112 -227 124 841 -124 hlineto
          endchar
        </CharString>
        <CharString name="cid00396" fdSelectIndex="0">
          812 168 rmoveto
          -774 117 307 220 133 -220 334 hlineto
          endchar
        </CharString>
        <CharString name="cid00397" fdSelectIndex="0">
          582 730 rmoveto
          -574 -260 190 -127 -190 -172 -117 559 -151 140 477 104 132 -104 233 vlineto
          endchar
        </CharString>
        <CharString name="cid00398" fdSelectIndex="0">
          711 729 rmoveto
          114 -841 -114 444 -82 -444 -116 151 -489 117 172 170 117 -170 200 573 116 -280 82 hlineto
          endchar
        </CharString>
        <CharString name="cid00399" fdSelectIndex="0">
          282 334 rmoveto
          -177 -231 -118 615 -152 132 842 -132 -572 -261 177 vlineto
          endchar
        </CharString>
        <CharString name="cid00400" fdSelectIndex="0">
          810 169 rmoveto
          -771 116 209 219 123 -219 110 219 120 -219 209 hlineto
          endchar
        </CharString>
        <CharString name="cid00401" fdSelectIndex="0">
          813 374 rmoveto
          -766 -120 292 -285 142 285 332 hlineto
          endchar
        </CharString>
        <CharString name="cid00402" fdSelectIndex="0">
          801 -112 rmoveto
          -129 92 -171 110 171 hlineto
          -1 640 rlineto
          130 hlineto
          -752 -462 rmoveto
          577 -117 -230 -265 -146 265 -201 hlineto
          endchar
        </CharString>
        <CharString name="cid00403" fdSelectIndex="0">
          533 729 rmoveto
          119 -842 -119 93 -150 100 150 hlineto
          176 649 rmoveto
          119 -842 -119 hlineto
          -688 381 rmoveto
          477 -117 -189 -265 -127 265 -161 hlineto
          endchar
        </CharString>
        <CharString name="cid00404" fdSelectIndex="0">
          811 -112 rmoveto
          -132 842 132 hlineto
          -757 -482 rmoveto
          574 -117 -236 -245 -137 245 -201 hlineto
          endchar
        </CharString>
        <CharString name="cid00405" fdSelectIndex="0">
          802 370 rmoveto
          -124 -162 -278 -126 278 -176 -278 -128 278 -162 124 vlineto
          endchar
        </CharString>
        <CharString name="cid00406" fdSelectIndex="0">
          801 249 rmoveto
          -752 121 752 hlineto
          endchar
        </CharString>
        <CharString name="cid00407" fdSelectIndex="0">
          643 223 rmoveto
          -58 -23 -310 -92 -210 43 rrcurveto
          -142 vlineto
          0 385 -50 195 174 vhcurveto
          -246 140 842 -142 vlineto
          endchar
        </CharString>
        <CharString name="cid00408" fdSelectIndex="0">
          526 -112 rmoveto
          -137 831 137 hlineto
          endchar
        </CharString>
        <CharString name="cid01086" fdSelectIndex="0">
          22 30 640 rmoveto
          -124 276 vlineto
          -5 -102 -105 -162 -140 -113 rrcurveto
          -160 vlineto
          0 386 269 282 vvcurveto
          110 vlineto
          243 -192 rmoveto
          270 -131 -821 131 422 125 129 vlineto
          endchar
        </CharString>
        <CharString name="cid01087" fdSelectIndex="0">
          17 449 668 rmoveto
          -93 vlineto
          2 -188 -108 -136 0 vvcurveto
          -138 hlineto
          94 127 11 118 62 vvcurveto
          -280 110 hlineto
          775 -109 rmoveto
          -118 -113 -175 -119 464 119 -171 vlineto
          -598 -375 rmoveto
          602 -114 hlineto
          -3 -98 -38 -84 0 vvcurveto
          -123 hlineto
          47 88 -4 94 0 vvcurveto
          -481 hlineto
          endchar
        </CharString>
        <CharString name="cid01088" fdSelectIndex="0">
          13 712 -103 rmoveto
          113 -472 165 -126 -278 vlineto
          335 779 rmoveto
          -419 -110 280 hlineto
          -62 -11 -118 -94 -127 vhcurveto
          138 hlineto
          0 109 143 -2 178 vhcurveto
          243 -82 rmoveto
          232 -122 -549 122 205 108 112 vlineto
          endchar
        </CharString>
        <CharString name="cid01089" fdSelectIndex="0">
          17 449 668 rmoveto
          -93 vlineto
          2 -188 -108 -136 0 vvcurveto
          -138 hlineto
          94 127 11 118 62 vvcurveto
          -280 110 hlineto
          775 -109 rmoveto
          -118 -113 -175 -119 464 119 -171 vlineto
          1 -470 rmoveto
          -421 -100 428 -101 -569 302 562 hlineto
          endchar
        </CharString>
        <CharString name="cid01090" fdSelectIndex="0">
          14 431 677 rmoveto
          -83 vlineto
          -121 -51 -125 -36 -63 vhcurveto
          -141 hlineto
          69 103 25 104 77 vvcurveto
          -267 108 hlineto
          772 -124 rmoveto
          -118 -115 -156 -117 451 117 -177 vlineto
          -585 -676 rmoveto
          223 453 46 -453 81 592 -216 -465 -40 465 -94 vlineto
          endchar
        </CharString>
        <CharString name="cid01091" fdSelectIndex="0">
          14 431 677 rmoveto
          -83 vlineto
          -121 -51 -125 -36 -63 vhcurveto
          -141 hlineto
          69 103 25 104 77 vvcurveto
          -267 108 hlineto
          772 -124 rmoveto
          -118 -115 -156 -117 451 117 -177 vlineto
          -263 -583 rmoveto
          -80 -307 203 171 50 -171 81 262 -200 -160 -54 vlineto
          194 241 rmoveto
          289 -99 hlineto
          -96 -21 -128 0 vhcurveto
          -113 hlineto
          16 90 1 130 0 vvcurveto
          -172 hlineto
          endchar
        </CharString>
        <CharString name="cid01092" fdSelectIndex="0">
          14 431 677 rmoveto
          -83 vlineto
          -121 -51 -125 -36 -63 vhcurveto
          -141 hlineto
          69 103 25 104 77 vvcurveto
          -267 108 hlineto
          772 -124 rmoveto
          -118 -115 -156 -117 451 117 -177 vlineto
          -283 -329 rmoveto
          298 -346 -298 12 -297 203 161 50 -161 81 252 -200 -150 -54 195 hlineto
          206 hmoveto
          173 -115 -173 vlineto
          endchar
        </CharString>
        <CharString name="cid01093" fdSelectIndex="0">
          17 449 668 rmoveto
          -93 vlineto
          2 -188 -108 -136 0 vvcurveto
          -138 hlineto
          94 127 11 118 62 vvcurveto
          -280 110 hlineto
          775 -109 rmoveto
          -118 -113 -195 -119 484 119 -171 vlineto
          -569 -368 rmoveto
          581 -303 -581 hlineto
          472 105 rmoveto
          94 -368 -94 vlineto
          endchar
        </CharString>
        <CharString name="cid01094" fdSelectIndex="0">
          17 449 688 rmoveto
          -93 vlineto
          2 -188 -108 -136 0 vvcurveto
          -138 hlineto
          94 127 11 118 62 vvcurveto
          -280 110 hlineto
          775 -129 rmoveto
          -118 -113 -175 -119 464 119 -171 vlineto
          3 -671 rmoveto
          -556 319 127 -82 309 82 120 hlineto
          -429 -231 rmoveto
          309 70 -309 hlineto
          endchar
        </CharString>
        <CharString name="cid01095" fdSelectIndex="0">
          17 449 698 rmoveto
          -93 vlineto
          2 -188 -108 -136 0 vvcurveto
          -138 hlineto
          94 127 11 118 62 vvcurveto
          -280 110 hlineto
          775 -139 rmoveto
          -118 -113 -175 -119 464 119 -171 vlineto
          -50 -347 rmoveto
          -29 vlineto
          -1 -79 42 -94 78 -41 rrcurveto
          -84 vlineto
          0 -116 45 -51 88 vhcurveto
          -34 -71 -92 -51 -29 -9 rrcurveto
          -282 323 94 -85 99 85 89 -231 hlineto
          66 41 30 82 85 vvcurveto
          25 vlineto
          -185 -231 rmoveto
          59 -99 -59 vlineto
          endchar
        </CharString>
        <CharString name="cid01096" fdSelectIndex="0">
          12 435 668 rmoveto
          -93 vlineto
          2 -188 -108 -136 0 vvcurveto
          -138 hlineto
          94 127 11 118 62 vvcurveto
          -266 110 hlineto
          659 -163 rmoveto
          111 -112 -111 -192 -120 529 120 hlineto
          -296 -534 rmoveto
          123 hlineto
          52 -106 77 -118 62 -85 rrcurveto
          -143 hlineto
          -40 53 -67 110 0 vvcurveto
          -112 -163 rlineto
          -157 hlineto
          122 145 83 164 0 vvcurveto
          endchar
        </CharString>
        <CharString name="cid01097" fdSelectIndex="0">
          13 431 677 rmoveto
          -93 vlineto
          2 -188 -108 -136 0 vvcurveto
          -138 hlineto
          94 127 11 118 62 vvcurveto
          -262 110 hlineto
          771 -118 rmoveto
          -118 -113 -175 -119 464 119 -171 vlineto
          -63 -363 rmoveto
          16 -118 153 -190 0 vvcurveto
          -132 hlineto
          -45 60 -21 30 -29 64 -11 -38 -40 -68 -45 -48 rrcurveto
          -134 hlineto
          28 22 8 18 20 28 rrcurveto
          -38 46 -25 41 0 vvcurveto
          -13 -43 -44 -63 -42 -49 rrcurveto
          -139 hlineto
          106 109 63 137 13 63 rrcurveto
          117 hlineto
          8 -58 18 -33 36 -59 33 66 16 48 7 35 rrcurveto
          endchar
        </CharString>
        <CharString name="cid01098" fdSelectIndex="0">
          17 431 676 rmoveto
          -401 -108 267 hlineto
          -77 -16 -102 -78 -115 vhcurveto
          141 hlineto
          36 63 51 125 121 vvcurveto
          -212 -392 rmoveto
          -53 -66 -29 -74 hvcurveto
          -103 vlineto
          -56 57 -41 53 vhcurveto
          393 -1 rlineto
          63 45 43 55 hvcurveto
          103 vlineto
          62 -45 41 -72 vhcurveto
          -42 -114 rmoveto
          26 16 -8 -22 hvcurveto
          -24 vlineto
          -22 -20 -6 -24 vhcurveto
          -270 hlineto
          -26 -23 -2 28 -1 hvcurveto
          -1 26 rlineto
          15 -1 14 15 38 hhcurveto
          525 442 rmoveto
          -113 211 -119 -494 119 165 113 hlineto
          endchar
        </CharString>
        <CharString name="cid01099" fdSelectIndex="0">
          13 431 678 rmoveto
          -93 vlineto
          2 -188 -108 -136 0 vvcurveto
          -138 hlineto
          94 127 11 118 62 vvcurveto
          -262 110 hlineto
          771 -119 rmoveto
          -118 -113 -175 -119 464 119 -171 vlineto
          -557 -470 rmoveto
          103 565 -103 -194 vlineto
          58 -58 55 -44 87 -21 rrcurveto
          -89 vlineto
          -95 12 -128 60 -64 82 -92 -87 -88 -36 -107 -35 rrcurveto
          99 vlineto
          71 27 72 46 49 44 rrcurveto
          endchar
        </CharString>
        <CharString name="cid01100" fdSelectIndex="0">
          14 360 254 rmoveto
          136 -67 218 -99 -164 hlineto
          44 -51 35 -28 101 -28 rrcurveto
          -99 vlineto
          -122 11 -94 52 -77 94 -59 -83 -148 -68 -95 -12 rrcurveto
          96 vlineto
          71 26 74 46 41 44 rrcurveto
          -169 99 208 hlineto
          71 490 rmoveto
          -83 vlineto
          -121 -51 -125 -36 -63 vhcurveto
          -141 hlineto
          69 103 25 104 77 vvcurveto
          -267 108 hlineto
          772 -124 rmoveto
          -118 -115 -156 -117 451 117 -177 vlineto
          endchar
        </CharString>
        <CharString name="cid01101" fdSelectIndex="0">
          14 127 -112 rmoveto
          336 557 -87 -425 -43 425 -85 -425 -42 425 -79 vlineto
          -253 789 rmoveto
          -83 vlineto
          -121 -51 -125 -36 -63 vhcurveto
          -141 hlineto
          69 103 25 104 77 vvcurveto
          -267 108 hlineto
          772 -124 rmoveto
          -118 -115 -156 -117 451 117 -177 vlineto
          endchar
        </CharString>
        <CharString name="cid01102" fdSelectIndex="0">
          17 431 676 rmoveto
          -93 vlineto
          -170 -91 -145 0 vhcurveto
          -135 hlineto
          64 107 26 129 62 vvcurveto
          -265 110 hlineto
          775 -117 rmoveto
          -118 -113 -175 -119 464 119 -171 vlineto
          23 -471 rmoveto
          -104 hlineto
          -31 -105 rlineto
          123 -95 -585 95 130 hlineto
          -31 105 rlineto
          -99 96 597 hlineto
          -240 -201 rmoveto
          28 105 rlineto
          -177 hlineto
          29 -105 rlineto
          endchar
        </CharString>
        <CharString name="cid01103" fdSelectIndex="0">
          14 431 677 rmoveto
          -83 vlineto
          -121 -51 -125 -36 -63 vhcurveto
          -141 hlineto
          69 103 25 104 77 vvcurveto
          -267 108 hlineto
          772 -124 rmoveto
          -118 -115 -156 -117 451 117 -177 vlineto
          36 -360 rmoveto
          -93 -101 vlineto
          38 -14 20 -33 -37 vvcurveto
          -31 vlineto
          -59 -46 -38 -54 vhcurveto
          -305 hlineto
          -78 -30 49 49 hvcurveto
          29 vlineto
          37 22 36 40 12 vhcurveto
          -94 93 224 55 124 -55 hlineto
          -148 -225 rmoveto
          177 hlineto
          39 15 18 30 29 -18 20 -39 hvcurveto
          -172 hlineto
          -28 -22 -18 -31 -38 20 -10 28 hvcurveto
          endchar
        </CharString>
        <CharString name="cid01104" fdSelectIndex="0">
          17 410 539 rmoveto
          -230 -180 -222 -167 -109 vhcurveto
          -1 156 122 103 75 139 10 140 rlinecurve
          -230 125 371 hlineto
          273 78 rmoveto
          122 -822 -122 423 -83 hlineto
          2 -423 rlineto
          -127 822 125 -272 83 hlineto
          endchar
        </CharString>
        <CharString name="cid01105" fdSelectIndex="0">
          16 685 729 rmoveto
          -221 -84 221 -119 -486 119 169 84 -169 119 486 vlineto
          -619 -534 rmoveto
          -118 496 vlineto
          0 6 -98 -47 -91 vhcurveto
          125 hlineto
          0 37 88 1 101 vhcurveto
          1 118 rlineto
          -384 490 rmoveto
          -390 -109 252 hlineto
          -59 -11 -105 -91 -125 vhcurveto
          135 hlineto
          0 104 121 1 183 vhcurveto
          endchar
        </CharString>
        <CharString name="cid01106" fdSelectIndex="0">
          420 685 rmoveto
          -94 vlineto
          -163 -98 -151 0 vhcurveto
          -138 hlineto
          55 86 44 119 1 94 rrcurveto
          -254 109 hlineto
          656 44 rmoveto
          123 -506 -123 209 -85 -209 -119 506 119 -201 85 hlineto
          134 -620 rmoveto
          -602 283 125 -173 477 hlineto
          endchar
        </CharString>
        <CharString name="cid01107" fdSelectIndex="0">
          21 319 287 rmoveto
          -137 hlineto
          87 127 18 103 59 vvcurveto
          -257 109 390 -81 hlineto
          -1 -183 -100 -134 0 vvcurveto
          367 442 rmoveto
          123 -467 -123 166 -84 -166 -120 467 120 -206 84 hlineto
          -468 -636 rmoveto
          218 455 44 -455 79 591 -213 -466 -37 466 -91 vlineto
          endchar
        </CharString>
        <CharString name="cid01108" fdSelectIndex="0">
          23 217 203 rmoveto
          594 -310 -594 hlineto
          484 108 rmoveto
          94 -375 -94 vlineto
          -7 286 rmoveto
          -137 hlineto
          87 127 18 103 59 vvcurveto
          -257 109 390 -81 hlineto
          -1 -183 -100 -134 0 vvcurveto
          367 442 rmoveto
          123 -467 -123 166 -84 -166 -119 467 119 -206 84 hlineto
          endchar
        </CharString>
        <CharString name="cid01109" fdSelectIndex="0">
          22 685 729 rmoveto
          123 -486 -123 186 -84 -186 -118 486 118 -204 84 hlineto
          125 -637 rmoveto
          -582 300 127 -73 335 73 120 hlineto
          -455 -212 rmoveto
          335 60 -335 hlineto
          -36 251 rmoveto
          -136 hlineto
          84 127 18 103 2 59 rrcurveto
          -257 109 390 -81 hlineto
          -173 -101 -144 0 vhcurveto
          endchar
        </CharString>
        <CharString name="cid01110" fdSelectIndex="0">
          8 676 729 rmoveto
          120 -496 -120 199 -92 -199 -118 496 118 -201 92 hlineto
          -200 -341 rmoveto
          119 hlineto
          44 -80 91 -144 65 -75 rrcurveto
          -148 hlineto
          -44 53 -36 53 -35 52 -33 -54 -42 -61 -41 -43 rrcurveto
          -164 hlineto
          136 145 88 154 0 vvcurveto
          -73 498 rmoveto
          -93 vlineto
          -86 -44 -151 -70 -118 vhcurveto
          -140 hlineto
          65 92 58 179 68 vvcurveto
          -242 109 hlineto
          endchar
        </CharString>
        <CharString name="cid01111" fdSelectIndex="0">
          52 685 729 rmoveto
          123 -486 -123 169 -83 -169 -119 486 119 -221 83 hlineto
          -4 -342 rmoveto
          15 -106 144 -173 0 vvcurveto
          -136 hlineto
          -30 40 -34 57 -29 51 rrcurveto
          0 -30 -71 -65 -77 vhcurveto
          -128 hlineto
          14 18 12 14 19 25 rrcurveto
          -36 41 -22 53 0 vvcurveto
          -23 -55 -27 -38 -42 -58 rrcurveto
          -142 hlineto
          92 109 45 96 24 74 rrcurveto
          134 hlineto
          7 -53 28 -41 24 -40 22 38 23 52 8 44 rrcurveto
          -128 519 rmoveto
          -85 vlineto
          -76 -31 -139 -72 -118 vhcurveto
          -135 hlineto
          56 71 51 179 59 vvcurveto
          -259 109 hlineto
          endchar
        </CharString>
        <CharString name="cid01112" fdSelectIndex="0">
          27 420 685 rmoveto
          -85 vlineto
          -76 -31 -139 -72 -118 vhcurveto
          -135 hlineto
          56 71 51 179 59 vvcurveto
          -259 109 hlineto
          655 44 rmoveto
          123 -486 -123 169 -84 -169 -118 486 118 -221 84 hlineto
          16 -326 rmoveto
          69 45 -41 -62 hvcurveto
          -91 vlineto
          -57 -47 -43 -61 vhcurveto
          -387 hlineto
          -55 -55 29 71 hvcurveto
          89 vlineto
          74 84 31 54 vhcurveto
          307 -104 rmoveto
          -266 hlineto
          -38 -15 -15 -14 1 hvcurveto
          1 -38 rlineto
          -29 1 24 3 26 hhcurveto
          264 hlineto
          23 22 5 21 hvcurveto
          35 vlineto
          18 -19 14 -24 vhcurveto
          endchar
        </CharString>
        <CharString name="cid01113" fdSelectIndex="0">
          20 30 640 rmoveto
          422 -107 hlineto
          -293 -386 -261 0 vhcurveto
          160 vlineto
          140 113 105 162 5 102 rrcurveto
          -286 hlineto
          778 -134 rmoveto
          -116 -93 116 -116 -116 -276 -129 821 129 -222 116 hlineto
          endchar
        </CharString>
        <CharString name="cid01114" fdSelectIndex="0">
          11 94 184 rmoveto
          602 -114 hlineto
          -3 -98 -38 -84 0 vvcurveto
          -123 hlineto
          47 88 -4 94 0 vvcurveto
          -481 hlineto
          355 597 rmoveto
          -93 vlineto
          2 -188 -108 -136 0 vvcurveto
          -138 hlineto
          94 127 11 118 62 vvcurveto
          -280 110 hlineto
          768 -198 rmoveto
          -118 -105 -102 -120 481 120 -86 106 -108 -106 -67 vlineto
          endchar
        </CharString>
        <CharString name="cid01115" fdSelectIndex="0">
          11 712 -103 rmoveto
          -598 287 116 -165 482 hlineto
          86 400 rmoveto
          -118 -105 -122 -120 551 120 -118 106 -108 -106 -85 vlineto
          -244 248 rmoveto
          -93 vlineto
          2 -188 -108 -136 0 vvcurveto
          -138 hlineto
          94 127 11 118 62 vvcurveto
          -280 110 hlineto
          endchar
        </CharString>
        <CharString name="cid01116" fdSelectIndex="0">
          11 99 -123 rmoveto
          221 456 46 -456 81 595 -216 -468 -38 468 -94 vlineto
          -244 800 rmoveto
          -83 vlineto
          -121 -51 -125 -36 -63 vhcurveto
          -141 hlineto
          69 103 25 104 77 vvcurveto
          -286 108 hlineto
          768 -208 rmoveto
          -118 -105 -102 -120 481 120 -86 106 -108 -106 -67 vlineto
          endchar
        </CharString>
        <CharString name="cid01117" fdSelectIndex="0">
          11 798 419 rmoveto
          -118 -106 -122 -119 551 119 -118 107 -108 -107 -85 vlineto
          -243 247 rmoveto
          -93 vlineto
          2 -188 -108 -136 0 vvcurveto
          -138 hlineto
          94 127 11 118 62 vvcurveto
          -280 110 hlineto
          363 -470 rmoveto
          123 hlineto
          42 -116 98 -128 51 -65 rrcurveto
          -145 hlineto
          -40 53 -67 106 0 vvcurveto
          -114 -159 rlineto
          -153 hlineto
          122 145 83 164 0 vvcurveto
          endchar
        </CharString>
        <CharString name="cid01118" fdSelectIndex="0">
          11 580 173 rmoveto
          71 58 -36 -73 hvcurveto
          -71 vlineto
          -56 -47 -50 -62 vhcurveto
          -394 hlineto
          -63 -47 44 67 hvcurveto
          69 vlineto
          76 64 30 85 vhcurveto
          204 493 rmoveto
          -93 vlineto
          2 -188 -108 -136 0 vvcurveto
          -138 hlineto
          94 127 11 118 62 vvcurveto
          -280 110 hlineto
          768 -197 rmoveto
          -118 -106 -102 -121 481 121 -86 107 -108 -107 -67 vlineto
          -101 -455 rmoveto
          21 vlineto
          16 -16 15 -19 vhcurveto
          -289 hlineto
          -38 -4 -16 -14 hvcurveto
          -25 vlineto
          -20 16 -7 26 vhcurveto
          290 hlineto
          24 10 11 19 hvcurveto
          endchar
        </CharString>
        <CharString name="cid01119" fdSelectIndex="0">
          5 686 720 rmoveto
          107 -833 -107 283 -82 -283 -117 833 117 -188 82 hlineto
          -264 -22 rmoveto
          -276 -364 -281 0 vhcurveto
          -1 167 140 113 81 176 5 82 rlinecurve
          -253 128 392 hlineto
          264 -204 rmoveto
          -82 -117 82 hlineto
          endchar
        </CharString>
        <CharString name="cid01120" fdSelectIndex="0">
          4 664 729 rmoveto
          117 -536 -117 129 -74 -129 -117 536 117 -127 74 hlineto
          128 -694 rmoveto
          -592 283 115 -163 477 hlineto
          -372 667 rmoveto
          -84 vlineto
          -183 -103 -141 0 vhcurveto
          -135 hlineto
          72 115 30 125 59 vvcurveto
          -254 109 hlineto
          634 -277 rmoveto
          88 -74 -88 vlineto
          endchar
        </CharString>
        <CharString name="cid01121" fdSelectIndex="0">
          -9 188 -113 rmoveto
          218 455 44 -455 79 591 -213 -466 -37 466 -91 vlineto
          -115 842 rmoveto
          114 -466 -114 88 -74 -88 -114 466 114 -98 74 hlineto
          -345 -344 rmoveto
          -137 hlineto
          77 116 26 114 2 59 rrcurveto
          -257 109 390 -71 hlineto
          -173 -101 -154 0 vhcurveto
          345 160 rmoveto
          88 -74 -88 vlineto
          endchar
        </CharString>
        <CharString name="cid01122" fdSelectIndex="0">
          -73 583 720 rmoveto
          -309 -145 -137 145 -377 132 823 vlineto
          -685 -80 rmoveto
          -125 254 vlineto
          -5 -112 -73 -153 -140 -109 rrcurveto
          -168 vlineto
          72 54 288 225 269 vvcurveto
          119 vlineto
          endchar
        </CharString>
        <CharString name="cid01123" fdSelectIndex="0">
          -63 133 176 rmoveto
          -107 459 vlineto
          0 6 -98 -44 -83 vhcurveto
          131 hlineto
          0 40 78 93 vvcurveto
          117 vlineto
          -137 554 rmoveto
          -190 -120 -121 120 -190 134 501 vlineto
          -302 -57 rmoveto
          -390 -107 256 hlineto
          -59 -23 -122 -77 -115 vhcurveto
          136 hlineto
          0 98 143 178 vvcurveto
          endchar
        </CharString>
        <CharString name="cid01124" fdSelectIndex="0">
          -47 741 -102 rmoveto
          120 -466 163 -125 -283 vlineto
          436 832 rmoveto
          -189 -116 -126 116 -215 135 530 vlineto
          -298 -58 rmoveto
          -393 -105 263 hlineto
          -57 -11 -139 -86 -93 vhcurveto
          129 hlineto
          0 100 88 1 206 vhcurveto
          endchar
        </CharString>
        <CharString name="cid01125" fdSelectIndex="0">
          -51 737 89 rmoveto
          -416 -100 416 -101 -562 302 562 hlineto
          -309 478 rmoveto
          -93 vlineto
          2 -188 -108 -136 0 vvcurveto
          -138 hlineto
          94 127 11 118 62 vvcurveto
          -259 110 hlineto
          573 60 rmoveto
          129 -488 -129 185 -132 116 132 hlineto
          endchar
        </CharString>
        <CharString name="cid01126" fdSelectIndex="0">
          -51 429 677 rmoveto
          -83 vlineto
          -91 -36 -137 -37 -72 vhcurveto
          -135 hlineto
          46 98 26 105 72 vvcurveto
          -263 108 hlineto
          573 53 rmoveto
          129 -441 -129 143 -133 114 133 hlineto
          -457 -659 rmoveto
          218 455 44 -455 88 591 -222 -466 -37 466 -91 vlineto
          endchar
        </CharString>
        <CharString name="cid01127" fdSelectIndex="0">
          -44 446 234 rmoveto
          298 -346 -298 12 -314 203 161 50 -161 81 262 -200 -150 -54 202 hlineto
          204 hmoveto
          173 -109 -173 vlineto
          -112 697 rmoveto
          -83 vlineto
          -121 -53 -125 -37 -63 vhcurveto
          -140 hlineto
          69 103 25 104 77 vvcurveto
          -263 108 hlineto
          583 53 rmoveto
          129 -450 -129 152 -143 114 143 hlineto
          endchar
        </CharString>
        <CharString name="cid01128" fdSelectIndex="0">
          -32 162 193 rmoveto
          594 -306 -594 hlineto
          277 791 rmoveto
          -93 vlineto
          -14 -1 -14 -1 -14 vhcurveto
          -1 -13 -2 -13 -2 -13 rrcurveto
          -5 -1 -4 -1 -4 vhcurveto
          -1 -4 0 -4 -1 -4 -4 -17 -4 -15 -4 -15 -1 -4 -2 -4 -1 -3 -6 -18 -6 -17 -6 -16 -4 -9 -4 -9 -4 -8 -12 -25 -12 -20 -9 -14 -5 -8 -4 -6 -3 -4 -1 -3 -1 -1 -1 -1 rrcurveto
          -1 -1 rlineto
          -138 hlineto
          2 3 3 3 2 3 4 7 5 6 4 6 4 7 4 6 3 6 6 9 rcurveline
          3 6 4 6 3 6 16 31 11 29 9 27 1 6 2 5 2 6 1 5 2 5 1 5 2 11 2 10 2 9 4 26 2 23 1 20 rrcurveto
          15 -270 110 vlineto
          598 52 rmoveto
          125 -490 -125 185 -146 116 146 hlineto
          9 -550 rmoveto
          102 -356 -102 vlineto
          endchar
        </CharString>
        <CharString name="cid01129" fdSelectIndex="0">
          -35 439 668 rmoveto
          -93 vlineto
          2 -188 -108 -136 0 vvcurveto
          -138 hlineto
          94 127 11 118 62 vvcurveto
          -270 110 hlineto
          597 60 rmoveto
          126 -488 -126 185 -145 116 145 hlineto
          126 -653 rmoveto
          -586 305 128 -70 337 70 121 hlineto
          -458 -217 rmoveto
          337 68 -337 hlineto
          endchar
        </CharString>
        <CharString name="cid01130" fdSelectIndex="0">
          -36 439 678 rmoveto
          -409 -109 270 hlineto
          2 -59 -11 -152 -89 -92 rrcurveto
          132 hlineto
          0 105 109 208 vvcurveto
          -22 -356 rmoveto
          0 -74 -216 -122 -124 vhcurveto
          156 hlineto
          48 62 36 64 28 62 rrcurveto
          0 58 -129 53 -59 vhcurveto
          140 hlineto
          0 -153 219 -26 121 vhcurveto
          67 501 rmoveto
          -188 -135 -116 135 -211 124 515 vlineto
          endchar
        </CharString>
        <CharString name="cid01131" fdSelectIndex="0">
          13 439 668 rmoveto
          -93 vlineto
          2 -188 -108 -136 0 vvcurveto
          -138 hlineto
          94 127 11 118 62 vvcurveto
          -270 110 hlineto
          589 60 rmoveto
          134 -498 -134 195 -137 116 137 hlineto
          23 -365 rmoveto
          15 -106 144 -183 0 vvcurveto
          -136 hlineto
          -30 40 -34 57 -29 51 rrcurveto
          0 -30 -71 -65 -77 vhcurveto
          -128 hlineto
          14 18 12 14 19 25 rrcurveto
          -36 41 -22 53 0 vvcurveto
          -23 -55 -27 -38 -42 -58 rrcurveto
          -142 hlineto
          92 109 45 106 24 74 rrcurveto
          134 hlineto
          7 -53 28 -51 24 -40 22 38 23 62 8 44 rrcurveto
          endchar
        </CharString>
        <CharString name="cid01132" fdSelectIndex="0">
          -22 439 668 rmoveto
          -93 vlineto
          2 -188 -108 -136 0 vvcurveto
          -138 hlineto
          94 127 11 118 62 vvcurveto
          -270 110 hlineto
          595 60 rmoveto
          128 -495 -128 192 -143 116 143 hlineto
          24 -351 rmoveto
          60 57 -41 -62 hvcurveto
          -102 vlineto
          -56 -46 -41 -61 vhcurveto
          -388 hlineto
          -35 1 -75 28 70 vvcurveto
          100 vlineto
          73 12 82 30 44 hhcurveto
          307 -102 rmoveto
          -266 hlineto
          -38 -14 -15 -14 hvcurveto
          1 -42 rlineto
          -29 1 24 -1 26 hhcurveto
          267 hlineto
          23 19 11 19 hvcurveto
          35 vlineto
          18 -19 18 -24 vhcurveto
          endchar
        </CharString>
        <CharString name="cid01133" fdSelectIndex="0">
          -27 439 668 rmoveto
          -93 vlineto
          2 -138 -108 -176 0 vvcurveto
          -138 hlineto
          74 127 31 108 62 vvcurveto
          -270 110 hlineto
          595 60 rmoveto
          128 -488 -128 185 -143 116 143 hlineto
          -435 -442 rmoveto
          103 565 -103 -187 vlineto
          38 -56 80 -39 75 -27 rrcurveto
          -89 vlineto
          -85 12 -148 57 -55 84 -73 -89 -95 -40 -118 -36 rrcurveto
          104 vlineto
          81 27 62 38 49 54 rrcurveto
          endchar
        </CharString>
        <CharString name="cid01134" fdSelectIndex="0">
          -44 159 217 rmoveto
          -329 585 81 -456 41 456 87 -456 42 456 78 vlineto
          -321 463 rmoveto
          -393 -104 262 hlineto
          1 -57 -10 -140 -88 -92 rrcurveto
          130 hlineto
          0 99 89 1 205 vhcurveto
          181 148 rmoveto
          -188 -125 -116 125 -164 125 468 vlineto
          endchar
        </CharString>
        <CharString name="cid01135" fdSelectIndex="0">
          -33 429 668 rmoveto
          -93 vlineto
          2 -140 -98 -161 0 vvcurveto
          -138 hlineto
          64 127 31 95 62 vvcurveto
          -260 110 hlineto
          588 60 rmoveto
          125 -472 -125 169 -146 116 146 hlineto
          137 -440 rmoveto
          -104 hlineto
          -31 -115 rlineto
          128 -98 -590 98 130 hlineto
          -31 115 rlineto
          -99 106 597 hlineto
          -240 -221 rmoveto
          28 115 rlineto
          -177 hlineto
          29 -115 rlineto
          endchar
        </CharString>
        <CharString name="cid01136" fdSelectIndex="0">
          -4 421 677 rmoveto
          -83 vlineto
          -121 -51 -125 -36 -63 vhcurveto
          -141 hlineto
          69 103 25 104 77 vvcurveto
          -257 108 hlineto
          598 53 rmoveto
          134 -450 -134 152 -153 117 153 hlineto
          156 -346 rmoveto
          -93 -99 vlineto
          38 -14 18 -34 -36 vvcurveto
          -41 vlineto
          -59 -56 -38 -64 vhcurveto
          -267 hlineto
          -98 -28 49 49 hvcurveto
          36 vlineto
          37 22 39 40 12 vhcurveto
          -94 93 224 65 134 -65 hlineto
          17 -235 rmoveto
          39 15 19 30 39 -28 19 -39 hvcurveto
          -156 hlineto
          -28 -26 -23 -31 -38 20 -15 28 hvcurveto
          endchar
        </CharString>
        <CharString name="cid01137" fdSelectIndex="0">
          24 30 654 rmoveto
          -129 248 vlineto
          -7 -114 -81 -151 -132 -114 rrcurveto
          -168 vlineto
          75 56 286 231 273 vvcurveto
          116 vlineto
          99 -231 rmoveto
          -103 -142 103 -393 117 842 -117 hlineto
          176 hmoveto
          -842 118 842 vlineto
          endchar
        </CharString>
        <CharString name="cid01138" fdSelectIndex="0">
          13 400 695 rmoveto
          -104 vlineto
          -1 -213 -102 -91 0 vvcurveto
          -135 hlineto
          91 95 11 145 59 vvcurveto
          -234 109 hlineto
          480 -161 rmoveto
          196 111 -532 -111 214 -103 122 vlineto
          275 196 rmoveto
          113 -532 -113 hlineto
          119 -290 rmoveto
          -592 283 115 -163 477 hlineto
          endchar
        </CharString>
        <CharString name="cid01139" fdSelectIndex="0">
          -4 188 -113 rmoveto
          218 455 44 -455 79 591 -213 -466 -37 466 -91 vlineto
          -280 664 rmoveto
          179 111 vlineto
          -1 -472 rlineto
          -110 177 -110 hlineto
          -30 -90 -40 -58 0 vvcurveto
          -137 hlineto
          87 127 18 103 59 vvcurveto
          -257 109 390 -71 hlineto
          -22 -2 -21 -2 -20 vhcurveto
          255 179 rmoveto
          113 -472 -113 hlineto
          endchar
        </CharString>
        <CharString name="cid01140" fdSelectIndex="0">
          16 400 695 rmoveto
          -104 vlineto
          -1 -213 -102 -91 0 vvcurveto
          -135 hlineto
          91 95 11 145 59 vvcurveto
          -234 109 hlineto
          489 -151 rmoveto
          186 111 vlineto
          -1 -502 rlineto
          -110 194 -108 122 hlineto
          280 186 rmoveto
          113 -502 -113 hlineto
          -481 -35 rmoveto
          594 -300 -594 hlineto
          484 108 rmoveto
          84 -375 -84 vlineto
          endchar
        </CharString>
        <CharString name="cid01141" fdSelectIndex="0">
          16 400 695 rmoveto
          -104 vlineto
          -1 -213 -102 -91 0 vvcurveto
          -135 hlineto
          91 95 11 145 59 vvcurveto
          -234 109 hlineto
          489 -151 rmoveto
          186 111 vlineto
          -1 -502 rlineto
          -110 194 -108 122 hlineto
          280 186 rmoveto
          113 -502 -113 hlineto
          113 -340 rmoveto
          -556 300 127 -73 309 73 120 hlineto
          -429 -212 rmoveto
          309 60 -309 hlineto
          endchar
        </CharString>
        <CharString name="cid01142" fdSelectIndex="0">
          7 400 695 rmoveto
          -104 vlineto
          -1 -213 -102 -91 0 vvcurveto
          -135 hlineto
          91 95 11 145 59 vvcurveto
          -234 109 hlineto
          480 -161 rmoveto
          196 111 -532 -111 214 -93 122 vlineto
          265 196 rmoveto
          113 -532 -113 hlineto
          -226 -31 rmoveto
          119 -1 44 -90 91 -113 65 -75 rlinecurve
          -148 hlineto
          -44 53 -36 43 -35 52 -33 -46 -42 -59 -41 -43 rrcurveto
          -155 hlineto
          136 145 79 134 0 vvcurveto
          endchar
        </CharString>
        <CharString name="cid01143" fdSelectIndex="0">
          42 400 695 rmoveto
          -104 vlineto
          -1 -213 -102 -91 0 vvcurveto
          -135 hlineto
          91 95 11 145 59 vvcurveto
          -234 109 hlineto
          489 -151 rmoveto
          186 111 vlineto
          -1 -502 rlineto
          -110 194 -108 122 hlineto
          280 186 rmoveto
          113 -502 -113 hlineto
          -20 -62 rmoveto
          15 -106 144 -173 0 vvcurveto
          -136 hlineto
          -30 40 -34 57 -29 51 rrcurveto
          0 -30 -71 -65 -77 vhcurveto
          -128 hlineto
          14 18 12 14 19 25 rrcurveto
          -36 41 -22 53 0 vvcurveto
          -23 -55 -27 -38 -42 -58 rrcurveto
          -142 hlineto
          92 109 45 96 24 74 rrcurveto
          134 hlineto
          7 -53 28 -41 24 -40 22 38 23 52 8 44 rrcurveto
          endchar
        </CharString>
        <CharString name="cid01144" fdSelectIndex="0">
          17 688 170 rmoveto
          60 57 -41 -62 hvcurveto
          -82 vlineto
          -56 -46 -41 -61 vhcurveto
          -388 hlineto
          -35 1 -63 26 -12 69 rrcurveto
          83 vlineto
          73 12 82 30 44 hhcurveto
          62 525 rmoveto
          -104 vlineto
          -1 -213 -102 -91 0 vvcurveto
          -135 hlineto
          91 95 11 145 59 vvcurveto
          -234 109 hlineto
          489 -151 rmoveto
          186 111 vlineto
          -1 -502 rlineto
          -110 194 -108 122 hlineto
          280 186 rmoveto
          113 -502 -113 hlineto
          -46 -162 rmoveto
          -266 hlineto
          -38 -8 -16 -13 -6 hvcurveto
          -1 -26 rlineto
          -26 12 15 0 26 hhcurveto
          267 hlineto
          23 19 7 19 hvcurveto
          19 vlineto
          18 -19 18 -24 vhcurveto
          endchar
        </CharString>
        <CharString name="cid01145" fdSelectIndex="0">
          -4 30 640 rmoveto
          422 -107 hlineto
          -293 -386 -261 0 vhcurveto
          160 vlineto
          140 113 105 162 5 102 rrcurveto
          -286 hlineto
          612 212 rmoveto
          142 -841 -142 272 -133 117 133 113 -133 118 133 hlineto
          endchar
        </CharString>
        <CharString name="cid01146" fdSelectIndex="0">
          -9 449 668 rmoveto
          -93 vlineto
          2 -188 -108 -136 0 vvcurveto
          -138 hlineto
          94 127 11 118 62 vvcurveto
          -280 110 hlineto
          609 60 rmoveto
          140 -481 -140 102 -139 104 139 81 -139 104 139 hlineto
          -464 -443 rmoveto
          604 -118 -1 hlineto
          -2 -101 -41 -88 0 vvcurveto
          -125 hlineto
          47 91 -4 98 0 vvcurveto
          -478 hlineto
          endchar
        </CharString>
        <CharString name="cid01147" fdSelectIndex="0">
          -9 449 668 rmoveto
          -93 vlineto
          2 -188 -108 -136 0 vvcurveto
          -138 hlineto
          94 127 11 118 62 vvcurveto
          -280 110 hlineto
          609 60 rmoveto
          140 -481 -140 102 -139 104 139 81 -139 104 139 hlineto
          -129 -458 rmoveto
          266 -105 hlineto
          -2 -98 -40 -84 0 vvcurveto
          -123 hlineto
          47 89 -4 83 0 vvcurveto
          -144 hlineto
          -350 115 rmoveto
          316 -95 hlineto
          -2 -98 -40 -94 0 vvcurveto
          -123 hlineto
          47 89 -4 83 0 vvcurveto
          -194 hlineto
          endchar
        </CharString>
        <CharString name="cid01148" fdSelectIndex="0">
          4 449 668 rmoveto
          -93 vlineto
          2 -188 -108 -136 0 vvcurveto
          -138 hlineto
          94 127 11 118 62 vvcurveto
          -280 110 hlineto
          597 60 rmoveto
          140 -540 -140 138 -139 110 139 74 -139 110 139 hlineto
          165 -712 rmoveto
          -592 283 115 -163 477 hlineto
          endchar
        </CharString>
        <CharString name="cid01149" fdSelectIndex="0">
          -7 449 668 rmoveto
          -93 vlineto
          2 -188 -108 -136 0 vvcurveto
          -138 hlineto
          94 127 11 118 62 vvcurveto
          -280 110 hlineto
          609 60 rmoveto
          140 -481 -140 102 -139 104 139 81 -139 104 139 hlineto
          142 -549 rmoveto
          -431 -100 431 -101 -572 302 572 hlineto
          endchar
        </CharString>
        <CharString name="cid01150" fdSelectIndex="0">
          -60 426 708 rmoveto
          -396 -110 258 hlineto
          -62 -10 -146 -93 -98 vhcurveto
          137 hlineto
          0 103 94 1 217 vhcurveto
          175 127 rmoveto
          -86 -127 -106 127 -72 -129 -108 129 -68 127 440 vlineto
          -592 -843 rmoveto
          218 455 44 -455 88 591 -222 -466 -37 466 -91 vlineto
          endchar
        </CharString>
        <CharString name="cid01151" fdSelectIndex="0">
          -3 449 668 rmoveto
          -93 vlineto
          2 -188 -108 -136 0 vvcurveto
          -138 hlineto
          94 127 11 118 62 vvcurveto
          -280 110 hlineto
          609 60 rmoveto
          140 -481 -140 102 -139 104 139 81 -139 104 139 hlineto
          -448 -445 rmoveto
          594 -300 -594 hlineto
          484 108 rmoveto
          84 -375 -84 vlineto
          endchar
        </CharString>
        <CharString name="cid01152" fdSelectIndex="0">
          -3 449 668 rmoveto
          -93 vlineto
          2 -188 -108 -136 0 vvcurveto
          -138 hlineto
          94 127 11 118 62 vvcurveto
          -280 110 hlineto
          609 60 rmoveto
          140 -481 -140 102 -139 104 139 81 -139 104 139 hlineto
          146 -750 rmoveto
          -566 300 127 -73 319 73 120 hlineto
          -439 -212 rmoveto
          319 60 -319 hlineto
          endchar
        </CharString>
        <CharString name="cid01153" fdSelectIndex="0">
          -21 449 668 rmoveto
          -93 vlineto
          2 -188 -108 -136 0 vvcurveto
          -138 hlineto
          94 127 11 118 62 vvcurveto
          -280 110 hlineto
          597 60 rmoveto
          140 -540 -140 138 -139 110 139 74 -139 110 139 hlineto
          -200 -453 rmoveto
          119 -1 44 -90 91 -113 65 -75 rlinecurve
          -148 hlineto
          -44 53 -36 43 -35 52 -33 -46 -42 -59 -41 -43 rrcurveto
          -155 hlineto
          136 145 79 134 0 vvcurveto
          endchar
        </CharString>
        <CharString name="cid01154" fdSelectIndex="0">
          23 449 668 rmoveto
          -93 vlineto
          2 -188 -108 -136 0 vvcurveto
          -138 hlineto
          94 127 11 118 62 vvcurveto
          -280 110 hlineto
          609 60 rmoveto
          140 -481 -140 102 -139 104 139 81 -139 104 139 hlineto
          13 -472 rmoveto
          15 -106 144 -173 0 vvcurveto
          -136 hlineto
          -30 40 -34 57 -29 51 rrcurveto
          0 -30 -71 -65 -77 vhcurveto
          -128 hlineto
          14 18 12 14 19 25 rrcurveto
          -36 41 -22 53 0 vvcurveto
          -23 -55 -27 -38 -42 -58 rrcurveto
          -142 hlineto
          92 109 45 96 24 74 rrcurveto
          134 hlineto
          7 -53 28 -41 24 -40 22 38 23 52 8 44 rrcurveto
          endchar
        </CharString>
        <CharString name="cid01155" fdSelectIndex="0">
          -33 635 177 rmoveto
          -371 hlineto
          -53 -78 -30 -77 hvcurveto
          -84 vlineto
          -57 49 -42 63 vhcurveto
          401 hlineto
          61 48 42 57 hvcurveto
          84 vlineto
          64 -57 43 -63 vhcurveto
          -198 510 rmoveto
          -407 -108 272 hlineto
          -60 -10 -144 -91 -95 vhcurveto
          134 hlineto
          0 103 91 1 213 vhcurveto
          189 146 rmoveto
          -103 -100 -104 100 -71 -100 -105 100 -125 124 508 vlineto
          -161 -661 rmoveto
          24 21 -17 -20 hvcurveto
          -19 vlineto
          -20 -21 -8 -24 vhcurveto
          -272 hlineto
          -27 -17 1 27 -12 hvcurveto
          27 vlineto
          13 6 10 16 39 hhcurveto
          endchar
        </CharString>
        <CharString name="cid01156" fdSelectIndex="0">
          -22 179 -112 rmoveto
          336 587 -87 -455 -43 455 -85 -455 -42 455 -79 vlineto
          -143 840 rmoveto
          140 -451 -140 71 -139 109 139 79 -139 109 139 hlineto
          -203 32 rmoveto
          -83 vlineto
          -121 -51 -125 -36 -63 vhcurveto
          -141 hlineto
          69 103 25 104 77 vvcurveto
          -256 108 hlineto
          endchar
        </CharString>
        <CharString name="cid01157" fdSelectIndex="0">
          19 491 468 rmoveto
          -92 -114 92 -124 -112 -115 112 -227 124 841 -124 hlineto
          -461 -90 rmoveto
          -126 213 vlineto
          -5 -82 -51 -156 -140 -113 rrcurveto
          -167 vlineto
          0 335 243 282 vvcurveto
          119 vlineto
          306 90 rmoveto
          -841 119 841 vlineto
          endchar
        </CharString>
        <CharString name="cid01158" fdSelectIndex="0">
          16 801 -92 rmoveto
          -619 283 125 -163 494 hlineto
          -282 596 rmoveto
          106 111 -532 -111 120 -97 112 97 82 -98 112 vlineto
          -21 71 rmoveto
          -104 vlineto
          -1 -213 -102 -91 0 vvcurveto
          -135 hlineto
          91 95 11 145 59 vvcurveto
          -234 109 hlineto
          661 35 rmoveto
          113 -532 -113 hlineto
          endchar
        </CharString>
        <CharString name="cid01159" fdSelectIndex="0">
          -4 165 -113 rmoveto
          218 478 44 -478 79 614 -213 -489 -37 489 -91 vlineto
          -280 747 rmoveto
          96 111 vlineto
          -1 -462 rlineto
          -110 100 -117 46 hlineto
          -29 -78 -34 -49 0 vvcurveto
          -137 hlineto
          87 127 18 103 59 vvcurveto
          -257 109 390 -51 hlineto
          251 96 rmoveto
          113 -462 -113 hlineto
          -271 202 rmoveto
          99 62 -86 hlineto
          -4 -22 -4 -21 -5 -19 rrcurveto
          endchar
        </CharString>
        <CharString name="cid01160" fdSelectIndex="0">
          16 794 -112 rmoveto
          -615 310 132 -76 358 76 125 hlineto
          -394 497 rmoveto
          -104 vlineto
          -1 -213 -102 -91 0 vvcurveto
          -135 hlineto
          91 95 11 145 59 vvcurveto
          -234 109 hlineto
          489 -71 rmoveto
          106 111 vlineto
          -1 -492 rlineto
          -110 80 -97 112 97 82 -98 112 hlineto
          270 106 rmoveto
          113 -492 -113 hlineto
          -380 -262 rmoveto
          358 67 -358 hlineto
          endchar
        </CharString>
        <CharString name="cid01161" fdSelectIndex="0">
          6 509 624 rmoveto
          106 111 vlineto
          -1 -522 rlineto
          -110 110 -107 112 107 82 -108 112 hlineto
          -31 68 rmoveto
          -86 vlineto
          -1 -213 -101 -129 0 vvcurveto
          -136 hlineto
          91 95 11 165 59 vvcurveto
          -204 109 hlineto
          396 -525 rmoveto
          119 hlineto
          44 -90 91 -114 65 -75 rrcurveto
          -148 hlineto
          -44 53 -36 43 -35 52 -33 -46 -42 -59 -41 -43 rrcurveto
          -155 hlineto
          136 145 79 134 0 vvcurveto
          255 563 rmoveto
          113 -522 -113 hlineto
          endchar
        </CharString>
        <CharString name="cid01162" fdSelectIndex="0">
          16 104 698 rmoveto
          -120 467 vlineto
          7 -72 -8 -162 -68 -171 rrcurveto
          133 hlineto
          36 70 43 157 179 vvcurveto
          119 vlineto
          90 -690 rmoveto
          -774 117 287 230 133 -230 354 hlineto
          endchar
        </CharString>
        <CharString name="cid01163" fdSelectIndex="0">
          12 800 388 rmoveto
          -117 -770 117 315 126 128 -126 80 vlineto
          41 121 7 105 0 vvcurveto
          -483 115 606 -115 hlineto
          -3 -73 -34 -113 -12 -40 rrcurveto
          -564 -208 rmoveto
          606 -95 hlineto
          -2 -98 -40 -97 0 vvcurveto
          -125 hlineto
          37 106 0 69 0 vvcurveto
          -476 hlineto
          endchar
        </CharString>
        <CharString name="cid01164" fdSelectIndex="0">
          12 800 388 rmoveto
          -117 -770 117 305 126 128 -126 80 vlineto
          41 121 7 105 0 vvcurveto
          -473 115 606 -115 hlineto
          -3 -73 -34 -113 -12 -40 rrcurveto
          65 -491 rmoveto
          -630 300 123 -172 507 hlineto
          endchar
        </CharString>
        <CharString name="cid01165" fdSelectIndex="0">
          12 800 388 rmoveto
          -117 -770 117 305 126 128 -126 80 vlineto
          41 121 7 105 0 vvcurveto
          -473 115 606 -115 hlineto
          -3 -73 -34 -113 -12 -40 rrcurveto
          57 -299 rmoveto
          -471 -100 471 -101 -612 302 612 hlineto
          endchar
        </CharString>
        <CharString name="cid01166" fdSelectIndex="0">
          12 800 407 rmoveto
          -117 -770 117 285 117 128 -117 106 vlineto
          36 113 6 94 0 vvcurveto
          -473 115 606 -115 hlineto
          -2 -63 -26 -94 -15 -50 rrcurveto
          -567 -520 rmoveto
          221 470 42 -470 82 611 -215 -482 -37 482 -94 -615 vlineto
          endchar
        </CharString>
        <CharString name="cid01167" fdSelectIndex="0">
          12 800 407 rmoveto
          -117 -770 117 285 117 128 -117 106 vlineto
          36 113 6 94 0 vvcurveto
          -473 115 606 -115 hlineto
          -2 -63 -26 -94 -15 -50 rrcurveto
          -262 -173 rmoveto
          297 -346 -297 12 -308 203 159 50 -159 81 262 -200 -150 -54 196 hlineto
          205 hmoveto
          173 -104 -173 vlineto
          endchar
        </CharString>
        <CharString name="cid01168" fdSelectIndex="0">
          12 800 407 rmoveto
          -117 -770 117 285 117 128 -117 106 vlineto
          36 113 6 94 0 vvcurveto
          -473 115 606 -115 hlineto
          -2 -63 -26 -94 -15 -50 rrcurveto
          -137 -207 rmoveto
          115 hlineto
          14 -50 65 -186 35 -43 -123 -1 rcurveline
          -18 40 -18 56 -16 51 -18 -54 -22 -55 -24 -38 rrcurveto
          -109 -27 -287 203 171 50 -171 81 272 -200 -160 -54 175 -43 hlineto
          40 68 64 148 15 54 rrcurveto
          endchar
        </CharString>
        <CharString name="cid01169" fdSelectIndex="0">
          12 800 407 rmoveto
          -117 -770 117 285 117 128 -117 106 vlineto
          36 113 6 94 0 vvcurveto
          -473 115 606 -115 hlineto
          -2 -63 -26 -94 -15 -50 rrcurveto
          87 -229 rmoveto
          -68 -76 vlineto
          23 -12 18 -27 -29 vvcurveto
          -74 vlineto
          -47 -33 -34 -47 vhcurveto
          -115 hlineto
          -48 -44 34 47 hvcurveto
          74 vlineto
          29 19 27 22 12 vhcurveto
          -73 68 122 57 101 -57 hlineto
          -222 -207 rmoveto
          -80 -287 203 150 50 -150 81 262 -200 -140 -54 vlineto
          387 15 rmoveto
          42 vlineto
          18 -14 16 -19 vhcurveto
          -27 hlineto
          -19 -14 -16 -18 hvcurveto
          -42 vlineto
          -19 14 -15 19 vhcurveto
          27 hlineto
          19 14 15 19 hvcurveto
          endchar
        </CharString>
        <CharString name="cid01170" fdSelectIndex="0">
          12 800 388 rmoveto
          -117 -770 117 305 126 128 -126 80 vlineto
          41 121 7 105 0 vvcurveto
          -473 115 606 -115 hlineto
          -3 -73 -34 -113 -12 -40 rrcurveto
          -550 -184 rmoveto
          596 -300 -596 hlineto
          494 108 rmoveto
          84 -385 -84 vlineto
          endchar
        </CharString>
        <CharString name="cid01171" fdSelectIndex="0">
          12 800 388 rmoveto
          -117 -770 117 305 126 128 -126 80 vlineto
          41 121 7 105 0 vvcurveto
          -473 115 606 -115 hlineto
          -3 -73 -34 -113 -12 -40 rrcurveto
          37 -499 rmoveto
          -595 320 126 -73 349 73 120 hlineto
          -469 -222 rmoveto
          349 59 -349 hlineto
          endchar
        </CharString>
        <CharString name="cid01172" fdSelectIndex="0">
          12 800 397 rmoveto
          -122 hlineto
          14 46 29 103 3 68 rrcurveto
          115 -606 -115 473 vlineto
          0 -7 -100 -38 -117 vhcurveto
          -83 117 -128 -117 -305 -117 770 hlineto
          -436 -44 rmoveto
          0 -84 -222 -121 -127 vhcurveto
          153 hlineto
          114 176 rlineto
          0 67 -123 40 -53 vhcurveto
          144 hlineto
          -51 65 -113 151 -27 133 rrcurveto
          endchar
        </CharString>
        <CharString name="cid01173" fdSelectIndex="0">
          22 479 366 rmoveto
          110 -132 -110 -317 -118 780 118 -134 vlineto
          11 35 37 117 4 85 rrcurveto
          127 -621 -118 485 vlineto
          0 -7 -154 -43 -92 vhcurveto
          68 -187 rmoveto
          -372 hlineto
          -55 -76 -26 -78 hvcurveto
          -87 vlineto
          -58 58 -39 54 -2 vhcurveto
          399 hlineto
          62 48 43 57 hvcurveto
          83 vlineto
          65 -48 42 -70 vhcurveto
          -45 -108 rmoveto
          26 18 -13 -19 hvcurveto
          -24 vlineto
          -19 -18 -9 -25 vhcurveto
          -275 hlineto
          -26 -29 -1 29 hvcurveto
          27 vlineto
          14 17 15 38 vhcurveto
          endchar
        </CharString>
        <CharString name="cid01174" fdSelectIndex="0">
          12 800 388 rmoveto
          -117 -770 117 305 126 128 -126 80 vlineto
          41 121 7 105 0 vvcurveto
          -473 115 606 -115 hlineto
          -3 -73 -34 -113 -12 -40 rrcurveto
          -524 -299 rmoveto
          103 565 -103 -197 vlineto
          38 -58 78 -33 87 -31 rrcurveto
          -87 vlineto
          -85 12 -138 45 -64 94 -92 -87 -88 -42 -107 -35 rrcurveto
          99 vlineto
          71 27 72 52 49 44 rrcurveto
          endchar
        </CharString>
        <CharString name="cid01175" fdSelectIndex="0">
          85 83 664 rmoveto
          -118 343 vlineto
          -68 -7 -176 -78 -146 vhcurveto
          -22 160 -107 -160 -182 -117 609 -151 140 477 94 132 -94 233 -140 -574 -174 hlineto
          14 15 95 110 261 vvcurveto
          122 vlineto
          endchar
        </CharString>
        <CharString name="cid01176" fdSelectIndex="0">
          28 553 360 rmoveto
          -105 -523 105 113 119 102 -119 75 vlineto
          24 83 6 91 1 50 rrcurveto
          -299 93 422 -103 hlineto
          -2 -90 -14 -74 -17 -50 rrcurveto
          -331 -180 rmoveto
          606 -95 hlineto
          -2 -98 -40 -84 0 vvcurveto
          -123 hlineto
          47 89 -4 73 0 vvcurveto
          -484 hlineto
          706 501 rmoveto
          -117 -104 -208 -129 488 129 -163 vlineto
          endchar
        </CharString>
        <CharString name="cid01177" fdSelectIndex="0">
          70 747 591 rmoveto
          138 -136 -392 -114 vlineto
          27 56 26 89 129 vvcurveto
          111 -447 -109 315 vlineto
          1 -49 -4 -115 -40 -112 rrcurveto
          -40 105 -133 -105 -172 -105 717 248 111 111 hlineto
          -97 -703 rmoveto
          123 -492 169 -130 -292 vlineto
          endchar
        </CharString>
        <CharString name="cid01178" fdSelectIndex="0">
          50 727 601 rmoveto
          111 -111 -111 -206 -697 103 182 112 130 -112 35 hlineto
          33 91 1 77 -1 48 rrcurveto
          -315 109 447 -51 hlineto
          -129 -22 -89 -23 -56 vhcurveto
          104 342 126 hlineto
          -576 -841 rmoveto
          208 442 44 -442 77 574 -207 -452 -35 452 -88 -578 vlineto
          endchar
        </CharString>
        <CharString name="cid01179" fdSelectIndex="0">
          50 727 601 rmoveto
          111 -111 -111 -206 -697 103 162 112 130 -112 55 hlineto
          33 91 1 77 -1 48 rrcurveto
          -315 109 447 -51 hlineto
          -129 -22 -89 -23 -56 vhcurveto
          104 342 126 hlineto
          -296 -495 rmoveto
          298 -346 -298 12 -307 203 171 50 -171 81 262 -200 -160 -54 205 hlineto
          206 hmoveto
          173 -115 -173 vlineto
          endchar
        </CharString>
        <CharString name="cid01180" fdSelectIndex="0">
          28 114 184 rmoveto
          596 -280 -596 hlineto
          439 456 rmoveto
          -105 -523 105 113 119 102 -119 75 vlineto
          24 83 6 91 1 50 rrcurveto
          -299 93 422 -103 hlineto
          -2 -90 -14 -74 -17 -50 rrcurveto
          375 206 rmoveto
          -117 -104 -208 -129 488 129 -163 vlineto
          -104 -554 rmoveto
          64 -385 -64 vlineto
          endchar
        </CharString>
        <CharString name="cid01181" fdSelectIndex="0">
          28 711 -111 rmoveto
          -605 309 126 -66 359 66 120 hlineto
          -158 162 rmoveto
          -105 -523 105 113 119 102 -119 75 vlineto
          24 83 6 91 1 50 rrcurveto
          -299 93 422 -103 hlineto
          -2 -90 -14 -74 -17 -50 rrcurveto
          375 206 rmoveto
          -117 -104 -208 -129 488 129 -163 vlineto
          -480 -579 rmoveto
          359 54 -359 hlineto
          endchar
        </CharString>
        <CharString name="cid01182" fdSelectIndex="0">
          28 816 566 rmoveto
          -117 -104 -278 -129 64 -553 105 133 139 102 -139 49 vlineto
          29 89 7 101 1 54 rrcurveto
          -299 93 422 -103 hlineto
          -2 -103 -19 -82 -20 -49 rrcurveto
          150 389 129 -163 hlineto
          -315 -399 rmoveto
          119 -1 44 -90 91 -113 65 -75 rlinecurve
          -148 hlineto
          -44 53 -36 43 -35 52 -33 -46 -42 -59 -41 -43 rrcurveto
          -155 hlineto
          136 145 79 134 0 vvcurveto
          endchar
        </CharString>
        <CharString name="cid01183" fdSelectIndex="0">
          28 609 170 rmoveto
          -350 hlineto
          -44 -82 -30 -73 -12 hvcurveto
          -82 vlineto
          -57 57 -38 53 -2 vhcurveto
          388 hlineto
          61 46 41 56 hvcurveto
          82 vlineto
          62 -57 41 -60 vhcurveto
          -194 190 rmoveto
          23 46 24 81 2 117 rrcurveto
          93 -422 -104 299 vlineto
          -1 -58 -8 -82 -34 -93 rrcurveto
          -83 139 -92 -139 -93 -105 523 105 hlineto
          263 206 rmoveto
          -104 163 -129 -506 129 226 104 hlineto
          -250 -383 rmoveto
          24 19 -18 -18 hvcurveto
          -19 vlineto
          -19 -19 -7 -23 vhcurveto
          -267 hlineto
          -26 -15 0 26 -12 hvcurveto
          1 26 rlineto
          13 6 8 16 38 hhcurveto
          endchar
        </CharString>
        <CharString name="cid01184" fdSelectIndex="0">
          43 727 729 rmoveto
          104 -841 -104 444 -82 -444 -116 151 -499 117 132 170 107 -170 26 hlineto
          53 168 -10 154 68 vvcurveto
          -285 118 418 hlineto
          1 -102 3 -209 -35 -140 -19 -57 rlinecurve
          108 573 116 -280 82 hlineto
          endchar
        </CharString>
        <CharString name="cid01185" fdSelectIndex="0">
          37 705 729 rmoveto
          114 -536 -114 219 -74 -219 -114 42 -487 105 133 139 92 -139 43 hlineto
          32 99 4 89 -1 45 rrcurveto
          -265 109 387 -71 hlineto
          -115 -16 -94 -21 -62 vhcurveto
          99 389 114 -221 74 hlineto
          120 -610 rmoveto
          -632 282 120 -159 512 hlineto
          endchar
        </CharString>
        <CharString name="cid01186" fdSelectIndex="0">
          31 255 390 rmoveto
          52 hlineto
          24 87 2 75 41 vvcurveto
          -265 109 387 -71 hlineto
          -98 -12 -82 -16 -61 vhcurveto
          90 339 114 -181 74 181 114 -445 -114 168 -74 -168 -114 1 -487 105 133 109 92 hlineto
          -71 -621 rmoveto
          208 482 44 -482 77 614 -209 -492 -33 492 -88 -618 vlineto
          endchar
        </CharString>
        <CharString name="cid01187" fdSelectIndex="0">
          21 695 729 rmoveto
          114 -496 -114 179 -74 -179 -114 22 -477 105 123 119 92 -119 39 hlineto
          27 91 3 80 -1 42 rrcurveto
          -245 109 367 -71 hlineto
          -103 -13 -86 -18 -62 vhcurveto
          103 369 114 -221 74 hlineto
          106 -620 rmoveto
          -605 298 126 -63 359 63 120 hlineto
          -479 -200 rmoveto
          359 47 -359 hlineto
          endchar
        </CharString>
        <CharString name="cid01188" fdSelectIndex="0">
          33 694 729 rmoveto
          114 -496 -114 179 -74 -179 -114 22 -476 105 123 119 92 -119 39 hlineto
          27 91 3 80 -1 42 rrcurveto
          -245 109 367 -71 hlineto
          -103 -13 -86 -18 -62 vhcurveto
          102 369 114 -221 74 hlineto
          -32 -342 rmoveto
          15 -106 144 -173 0 vvcurveto
          -136 hlineto
          -30 40 -34 57 -29 51 rrcurveto
          0 -30 -71 -65 -77 vhcurveto
          -128 hlineto
          14 18 12 14 19 25 -35 40 -22 51 -1 2 -23 -54 -27 -38 -42 -58 rrcurveto
          -142 hlineto
          92 109 45 96 24 74 rrcurveto
          134 hlineto
          7 -53 28 -41 24 -40 22 38 23 52 8 44 rrcurveto
          endchar
        </CharString>
        <CharString name="cid01189" fdSelectIndex="0">
          21 695 729 rmoveto
          114 -496 -114 179 -74 -179 -114 22 -477 105 123 119 92 -119 39 hlineto
          27 91 3 80 -1 42 rrcurveto
          -245 109 367 -71 hlineto
          -103 -13 -86 -18 -62 vhcurveto
          103 369 114 -221 74 hlineto
          -36 -338 rmoveto
          60 57 -41 -62 hvcurveto
          -82 vlineto
          -56 -46 -41 -61 vhcurveto
          -398 hlineto
          -35 -75 26 70 hvcurveto
          83 vlineto
          73 12 82 30 44 hhcurveto
          317 -104 rmoveto
          -276 hlineto
          -38 -8 -16 -13 -6 hvcurveto
          -1 -26 rlineto
          -26 12 15 0 26 hhcurveto
          277 hlineto
          23 19 7 19 hvcurveto
          19 vlineto
          18 -19 18 -24 vhcurveto
          endchar
        </CharString>
        <CharString name="cid01190" fdSelectIndex="0">
          -11 87 652 rmoveto
          -117 331 vlineto
          -66 0 -170 -75 -142 vhcurveto
          -49 147 -113 -147 -151 -118 615 -152 132 842 -132 -572 -169 hlineto
          25 49 52 126 200 vvcurveto
          120 vlineto
          endchar
        </CharString>
        <CharString name="cid01191" fdSelectIndex="0">
          -15 593 350 rmoveto
          -105 -563 105 133 129 102 -129 82 vlineto
          26 86 7 96 1 52 rrcurveto
          -309 93 432 -103 hlineto
          -2 -96 -16 -78 -19 -50 rrcurveto
          182 -297 rmoveto
          -498 114 622 -97 hlineto
          -3 -98 -38 -84 0 vvcurveto
          -123 hlineto
          31 73 9 92 0 vvcurveto
          113 676 rmoveto
          -498 -129 498 vlineto
          endchar
        </CharString>
        <CharString name="cid01192" fdSelectIndex="0">
          -3 603 340 rmoveto
          -105 -573 105 133 139 102 -139 79 vlineto
          29 89 7 101 1 54 rrcurveto
          -309 93 432 -103 hlineto
          -2 -103 -19 -82 -20 -49 rrcurveto
          322 -442 rmoveto
          -612 273 130 -150 482 hlineto
          -13 708 rmoveto
          -548 -129 548 vlineto
          endchar
        </CharString>
        <CharString name="cid01193" fdSelectIndex="0">
          -30 164 -122 rmoveto
          208 462 44 -462 77 594 -209 -472 -33 472 -88 -598 vlineto
          423 503 rmoveto
          -105 -553 105 143 119 122 -119 53 vlineto
          26 86 7 96 1 52 rrcurveto
          -309 93 432 -103 hlineto
          -2 -96 -16 -78 -19 -50 rrcurveto
          284 349 rmoveto
          -458 -129 458 vlineto
          endchar
        </CharString>
        <CharString name="cid01194" fdSelectIndex="0">
          -36 154 184 rmoveto
          596 -280 -596 hlineto
          429 446 rmoveto
          -105 -553 105 133 129 102 -129 82 vlineto
          26 86 7 96 1 52 rrcurveto
          -309 93 432 -103 hlineto
          -2 -96 -16 -78 -19 -50 rrcurveto
          285 379 rmoveto
          -498 -129 498 vlineto
          25 -717 rmoveto
          64 -385 -64 vlineto
          endchar
        </CharString>
        <CharString name="cid01195" fdSelectIndex="0">
          -27 761 -112 rmoveto
          -575 298 126 -63 329 63 120 hlineto
          -178 164 rmoveto
          -105 -553 105 133 129 102 -129 82 vlineto
          26 86 7 96 1 52 rrcurveto
          -309 93 432 -103 hlineto
          -2 -96 -16 -78 -19 -50 rrcurveto
          285 379 rmoveto
          -498 -129 498 vlineto
          -311 -743 rmoveto
          329 47 -329 hlineto
          endchar
        </CharString>
        <CharString name="cid01196" fdSelectIndex="0">
          -28 591 340 rmoveto
          -105 -561 105 133 139 102 -139 79 vlineto
          29 89 7 101 1 54 rrcurveto
          -309 93 432 -103 hlineto
          -2 -103 -19 -82 -20 -49 rrcurveto
          297 389 rmoveto
          -548 -129 548 vlineto
          -196 -562 rmoveto
          119 -1 44 -90 91 -113 65 -75 rlinecurve
          -148 hlineto
          -44 53 -36 43 -35 52 -33 -46 -42 -59 -41 -43 rrcurveto
          -155 hlineto
          136 145 79 134 0 vvcurveto
          endchar
        </CharString>
        <CharString name="cid01197" fdSelectIndex="0">
          -22 649 170 rmoveto
          60 57 -41 -62 hvcurveto
          -82 vlineto
          -56 -46 -41 -61 vhcurveto
          -398 hlineto
          -35 1 -63 26 -12 69 rrcurveto
          83 vlineto
          73 12 82 30 44 hhcurveto
          304 180 rmoveto
          -105 -563 105 133 129 102 -129 82 vlineto
          26 86 7 96 1 52 rrcurveto
          -309 93 432 -103 hlineto
          -2 -96 -16 -78 -19 -50 rrcurveto
          295 379 rmoveto
          -498 -129 498 vlineto
          -27 -663 rmoveto
          -276 hlineto
          -38 -8 -16 -13 -6 hvcurveto
          -1 -26 rlineto
          -26 12 15 0 26 hhcurveto
          277 hlineto
          23 19 7 19 hvcurveto
          22 vlineto
          18 -19 15 -24 vhcurveto
          endchar
        </CharString>
        <CharString name="cid01198" fdSelectIndex="0">
          -47 86 678 rmoveto
          -120 467 vlineto
          7 -72 -3 -170 -83 -156 rrcurveto
          130 hlineto
          0 92 137 282 vvcurveto
          99 vlineto
          45 -669 rmoveto
          -711 116 129 194 103 -194 90 194 100 -194 289 hlineto
          endchar
        </CharString>
        <CharString name="cid01199" fdSelectIndex="0">
          17 318 373 rmoveto
          90 135 120 -135 27 hlineto
          39 121 4 120 0 vvcurveto
          -480 115 606 -125 hlineto
          -3 -70 -27 -115 -11 -46 rrcurveto
          122 -111 -775 111 164 135 124 hlineto
          431 -611 rmoveto
          -640 300 133 -172 507 hlineto
          endchar
        </CharString>
        <CharString name="cid01200" fdSelectIndex="0">
          17 324 389 rmoveto
          71 117 127 -117 31 hlineto
          41 121 7 104 0 vvcurveto
          -483 115 606 -115 hlineto
          -3 -72 -33 -112 -13 -41 rrcurveto
          130 -101 -775 101 166 117 128 hlineto
          -220 -620 rmoveto
          221 470 42 -470 82 611 -215 -482 -37 482 -94 -615 vlineto
          endchar
        </CharString>
        <CharString name="cid01201" fdSelectIndex="0">
          17 318 373 rmoveto
          90 135 120 -135 20 hlineto
          46 128 7 113 0 vvcurveto
          -483 115 606 -115 hlineto
          -3 -89 -51 -152 0 vvcurveto
          135 -111 -775 111 164 135 124 hlineto
          394 -619 rmoveto
          -595 320 126 -73 349 73 120 hlineto
          -469 -222 rmoveto
          349 59 -349 hlineto
          endchar
        </CharString>
        <CharString name="cid01202" fdSelectIndex="0">
          17 318 373 rmoveto
          90 135 120 -135 20 hlineto
          46 128 7 113 0 vvcurveto
          -483 115 606 -115 hlineto
          -3 -89 -51 -152 0 vvcurveto
          135 -111 -775 111 164 135 124 hlineto
          46 -311 rmoveto
          123 -1 42 -116 98 -128 51 -65 rlinecurve
          -145 hlineto
          -40 53 -67 106 0 vvcurveto
          -114 -159 rlineto
          -153 hlineto
          122 145 83 165 0 vvcurveto
          endchar
        </CharString>
        <CharString name="cid01203" fdSelectIndex="0">
          -2 786 294 rmoveto
          -756 -120 312 -285 132 285 312 hlineto
          -686 506 rmoveto
          -117 474 vlineto
          0 -7 -128 -47 -91 vhcurveto
          125 hlineto
          0 52 118 2 101 vhcurveto
          117 vlineto
          endchar
        </CharString>
        <CharString name="cid01204" fdSelectIndex="0">
          -9 779 376 rmoveto
          -112 -321 -84 255 -95 vlineto
          -2 -98 -40 -84 0 vvcurveto
          -123 hlineto
          47 89 -4 73 0 vvcurveto
          -484 115 225 84 -302 112 496 hlineto
          41 121 -3 97 0 vvcurveto
          -451 115 583 -105 hlineto
          -3 -74 -31 -117 -10 -37 rrcurveto
          endchar
        </CharString>
        <CharString name="cid01205" fdSelectIndex="0">
          -8 780 362 rmoveto
          -750 -111 320 -148 123 148 307 hlineto
          -64 -364 rmoveto
          128 -487 172 -123 -300 vlineto
          6 823 rmoveto
          -121 457 vlineto
          0 4 -100 -49 -94 vhcurveto
          129 hlineto
          0 45 94 105 vvcurveto
          116 vlineto
          endchar
        </CharString>
        <CharString name="cid01206" fdSelectIndex="0">
          -9 779 376 rmoveto
          -112 -301 -74 240 -101 -451 -100 451 -101 -592 302 226 74 -322 112 496 vlineto
          41 121 -3 97 0 vvcurveto
          -451 115 583 -105 hlineto
          -3 -74 -31 -117 -10 -37 rrcurveto
          endchar
        </CharString>
        <CharString name="cid01207" fdSelectIndex="0">
          -29 104 -114 rmoveto
          221 470 42 -470 82 228 83 -302 92 494 vlineto
          34 112 -3 86 0 vvcurveto
          -451 115 583 -105 hlineto
          -2 -63 -23 -96 -14 -49 rrcurveto
          111 -92 -301 -83 257 -215 -482 -37 482 -94 -615 hlineto
          endchar
        </CharString>
        <CharString name="cid01208" fdSelectIndex="0">
          -29 759 406 rmoveto
          -92 -281 -93 221 -99 vlineto
          -96 -21 -128 0 vhcurveto
          -113 hlineto
          16 90 1 130 0 vvcurveto
          -172 95 -34 -179 -140 -54 185 -80 -307 203 161 50 -161 81 238 80 -322 92 494 hlineto
          34 112 -3 86 0 vvcurveto
          -451 115 583 -105 hlineto
          -2 -63 -23 -96 -14 -49 rrcurveto
          endchar
        </CharString>
        <CharString name="cid01209" fdSelectIndex="0">
          -29 759 406 rmoveto
          -92 -301 -80 244 -346 -298 12 -307 203 161 50 -161 81 235 80 -302 92 494 vlineto
          34 112 -3 86 0 vvcurveto
          -451 115 583 -105 hlineto
          -2 -63 -23 -96 -14 -49 rrcurveto
          -38 -426 rmoveto
          173 -111 -173 vlineto
          -290 54 rmoveto
          -54 195 233 -45 -179 vlineto
          endchar
        </CharString>
        <CharString name="cid01210" fdSelectIndex="0">
          -29 759 406 rmoveto
          -92 -301 -101 -72 -179 -150 -54 175 -80 -287 203 161 50 -161 81 208 80 -302 92 494 vlineto
          34 112 -3 86 0 vvcurveto
          -451 115 583 -105 hlineto
          -2 -63 -23 -96 -14 -49 rrcurveto
          107 -228 rmoveto
          -68 -77 vlineto
          23 -12 18 -27 -29 vvcurveto
          -74 vlineto
          -47 -33 -34 -47 vhcurveto
          -105 hlineto
          -48 -34 34 47 hvcurveto
          74 vlineto
          29 19 27 22 12 vhcurveto
          -73 68 126 57 81 -57 hlineto
          6 -192 rmoveto
          42 vlineto
          18 -14 16 -19 vhcurveto
          -27 hlineto
          -19 -14 -16 -18 hvcurveto
          -42 vlineto
          -19 14 -15 19 vhcurveto
          27 hlineto
          19 14 15 19 hvcurveto
          endchar
        </CharString>
        <CharString name="cid01211" fdSelectIndex="0">
          -9 779 376 rmoveto
          -112 -321 -60 259 -300 -596 300 211 60 -302 112 496 vlineto
          41 121 -3 97 0 vvcurveto
          -451 115 583 -105 hlineto
          -3 -74 -31 -117 -10 -37 rrcurveto
          -37 -364 rmoveto
          84 -385 -84 vlineto
          endchar
        </CharString>
        <CharString name="cid01212" fdSelectIndex="0">
          -9 779 396 rmoveto
          -112 -311 -101 -126 101 -312 112 503 vlineto
          34 112 -3 86 0 vvcurveto
          -451 115 583 -105 hlineto
          -2 -63 -23 -96 -14 -49 rrcurveto
          51 -507 rmoveto
          -595 320 126 -73 349 73 120 hlineto
          -469 -222 rmoveto
          349 59 -349 hlineto
          endchar
        </CharString>
        <CharString name="cid01213" fdSelectIndex="0">
          -9 779 396 rmoveto
          -112 -311 -101 -126 101 -312 112 503 vlineto
          34 112 -3 86 0 vvcurveto
          -451 115 583 -105 hlineto
          -2 -63 -23 -96 -14 -49 rrcurveto
          -319 -232 rmoveto
          131 hlineto
          44 -91 80 -121 51 -65 rrcurveto
          -142 hlineto
          -40 53 -57 106 0 vvcurveto
          -104 -159 rlineto
          -150 hlineto
          122 145 65 132 0 vvcurveto
          endchar
        </CharString>
        <CharString name="cid01214" fdSelectIndex="0">
          -9 779 376 rmoveto
          -112 -321 -90 124 vlineto
          81 49 -42 -64 hvcurveto
          -72 vlineto
          -77 -57 -32 -62 vhcurveto
          -378 hlineto
          -65 -54 41 56 hvcurveto
          84 vlineto
          77 76 29 54 vhcurveto
          106 90 -302 112 496 hlineto
          41 121 -3 97 0 vvcurveto
          -451 115 583 -105 hlineto
          -3 -74 -31 -117 -10 -37 rrcurveto
          -104 -309 rmoveto
          -272 hlineto
          -38 -13 -14 -15 hvcurveto
          -26 vlineto
          -30 25 2 26 vhcurveto
          277 hlineto
          24 16 14 19 hvcurveto
          19 vlineto
          20 -19 11 -26 vhcurveto
          endchar
        </CharString>
        <CharString name="cid01215" fdSelectIndex="0">
          -10 778 386 rmoveto
          -112 -321 -82 244 -103 -187 vlineto
          54 -58 52 -33 87 -31 rrcurveto
          -88 vlineto
          -85 12 -131 46 -71 92 -92 -87 -98 -40 -107 -35 rrcurveto
          99 vlineto
          71 27 72 52 49 44 rrcurveto
          -189 103 205 82 -301 112 499 hlineto
          37 116 -3 92 0 vvcurveto
          -451 115 583 -105 hlineto
          -3 -68 -26 -104 -13 -46 rrcurveto
          endchar
        </CharString>
        <CharString name="cid01216" fdSelectIndex="0">
          -6 30 268 rmoveto
          327 hlineto
          35 98 10 109 60 vvcurveto
          -314 117 458 -99 hlineto
          -139 -28 -93 -22 -53 vhcurveto
          111 -117 -230 -265 -146 265 -201 hlineto
          752 -263 rmoveto
          -129 92 -171 110 171 hlineto
          -1 640 rlineto
          130 hlineto
          endchar
        </CharString>
        <CharString name="cid01217" fdSelectIndex="0">
          -23 30 458 rmoveto
          326 hlineto
          21 62 5 37 1 47 rrcurveto
          -299 103 422 -43 hlineto
          -2 -86 -13 -70 -16 -50 rrcurveto
          122 -97 -259 -155 -127 155 -181 hlineto
          601 -308 rmoveto
          -478 114 612 -97 hlineto
          -3 -98 -38 -84 0 vvcurveto
          -133 hlineto
          47 88 -7 77 0 vvcurveto
          131 135 rmoveto
          -119 32 -181 90 181 420 119 hlineto
          endchar
        </CharString>
        <CharString name="cid01218" fdSelectIndex="0">
          -10 30 448 rmoveto
          319 hlineto
          18 60 5 41 1 45 rrcurveto
          -299 93 422 -43 hlineto
          -2 -80 -11 -67 -15 -49 rrcurveto
          129 -97 -259 -145 -127 145 -181 hlineto
          748 -463 rmoveto
          -609 266 116 -144 493 hlineto
          -16 158 rmoveto
          -119 51 -181 90 181 421 119 hlineto
          endchar
        </CharString>
        <CharString name="cid01219" fdSelectIndex="0">
          -16 177 -122 rmoveto
          208 462 44 -462 77 594 -209 -472 -33 472 -88 -598 vlineto
          -143 601 rmoveto
          319 hlineto
          18 60 5 41 1 45 rrcurveto
          -299 93 422 -43 hlineto
          -2 -80 -11 -67 -15 -49 rrcurveto
          129 -97 -259 -145 -127 145 -181 hlineto
          742 -153 rmoveto
          -119 22 -191 90 191 390 119 hlineto
          endchar
        </CharString>
        <CharString name="cid01220" fdSelectIndex="0">
          15 30 458 rmoveto
          321 hlineto
          16 58 5 45 1 43 rrcurveto
          -299 93 422 -73 hlineto
          -1 -71 -9 -54 -11 -41 rrcurveto
          122 -97 -259 -145 -127 145 -181 hlineto
          614 -195 rmoveto
          15 -106 144 -173 0 vvcurveto
          -136 hlineto
          -30 40 -34 57 -29 51 rrcurveto
          0 -30 -71 -65 -77 vhcurveto
          -128 hlineto
          14 18 12 14 19 25 -35 40 -22 51 -1 2 -23 -54 -27 -38 -42 -58 rrcurveto
          -142 hlineto
          92 109 45 96 24 74 rrcurveto
          134 hlineto
          7 -53 28 -41 24 -40 22 38 23 52 8 44 rrcurveto
          251 32 rmoveto
          -119 32 -181 90 181 410 119 hlineto
          endchar
        </CharString>
        <CharString name="cid01221" fdSelectIndex="0">
          -26 641 170 rmoveto
          60 57 -41 -62 hvcurveto
          -82 vlineto
          -56 -46 -41 -61 vhcurveto
          -388 hlineto
          -35 1 -63 26 -12 69 rrcurveto
          83 vlineto
          73 12 82 30 44 hhcurveto
          -261 298 rmoveto
          322 hlineto
          15 54 5 39 1 43 rrcurveto
          -299 101 422 -51 hlineto
          -2 -75 -10 -63 -13 -48 rrcurveto
          126 -97 -259 -145 -127 145 -181 hlineto
          732 -173 rmoveto
          -119 42 -181 90 181 400 119 hlineto
          -164 -664 rmoveto
          -266 hlineto
          -38 -8 -16 -13 -6 hvcurveto
          -1 -26 rlineto
          -26 12 15 0 26 hhcurveto
          267 hlineto
          23 19 7 19 hvcurveto
          19 vlineto
          18 -19 18 -24 vhcurveto
          endchar
        </CharString>
        <CharString name="cid01222" fdSelectIndex="0">
          49 30 268 rmoveto
          239 hlineto
          39 101 13 114 62 vvcurveto
          -253 117 388 -99 hlineto
          -149 -31 -96 -22 -50 vhcurveto
          104 -117 -199 -265 -127 265 -151 hlineto
          512 578 rmoveto
          109 -842 -109 93 -150 100 150 hlineto
          176 649 rmoveto
          119 -842 -119 hlineto
          endchar
        </CharString>
        <CharString name="cid01223" fdSelectIndex="0">
          17 30 458 rmoveto
          262 hlineto
          15 54 5 39 1 43 rrcurveto
          -259 93 382 -43 hlineto
          -2 -75 -10 -63 -13 -48 rrcurveto
          56 -97 -199 -155 -127 155 -111 hlineto
          595 -173 rmoveto
          -112 32 -161 90 161 420 112 hlineto
          -176 -563 rmoveto
          119 -1 44 -90 91 -113 65 -75 rlinecurve
          -148 hlineto
          -44 53 -36 43 -35 52 -33 -46 -42 -59 -41 -43 rrcurveto
          -155 hlineto
          136 145 79 134 0 vvcurveto
          356 21 rmoveto
          -119 542 119 hlineto
          endchar
        </CharString>
        <CharString name="cid01224" fdSelectIndex="0">
          4 30 248 rmoveto
          293 hlineto
          45 106 15 125 66 vvcurveto
          -295 117 438 -99 hlineto
          -171 -42 -103 -20 -41 vhcurveto
          140 -117 -236 -245 -137 245 -201 hlineto
          742 -243 rmoveto
          -132 842 132 hlineto
          endchar
        </CharString>
        <CharString name="cid01225" fdSelectIndex="0">
          -23 631 212 rmoveto
          129 -296 -128 -117 128 -188 117 326 vlineto
          12 53 4 44 1 39 rrcurveto
          -309 93 432 -63 hlineto
          -1 -65 -8 -56 -11 -45 rrcurveto
          155 271 133 -517 hlineto
          -123 -159 rmoveto
          -488 114 612 -97 hlineto
          -3 -98 -38 -84 0 vvcurveto
          -123 hlineto
          47 88 -7 77 0 vvcurveto
          endchar
        </CharString>
        <CharString name="cid01226" fdSelectIndex="0">
          -10 631 172 rmoveto
          139 -306 -118 -137 118 -158 107 315 vlineto
          21 71 6 57 1 48 rrcurveto
          -299 93 432 -63 hlineto
          -2 -86 -13 -70 -16 -50 rrcurveto
          156 311 133 -557 hlineto
          14 -284 rmoveto
          -609 266 116 -144 493 hlineto
          endchar
        </CharString>
        <CharString name="cid01227" fdSelectIndex="0">
          -18 176 -122 rmoveto
          208 462 44 -462 77 594 -209 -472 -33 472 -88 -598 vlineto
          -142 591 rmoveto
          323 hlineto
          15 57 4 48 1 41 rrcurveto
          -309 93 432 -63 hlineto
          -1 -69 -9 -60 -12 -47 rrcurveto
          117 -117 -266 -108 -117 108 -178 hlineto
          601 -109 rmoveto
          487 133 -487 vlineto
          endchar
        </CharString>
        <CharString name="cid01228" fdSelectIndex="0">
          -24 631 214 rmoveto
          127 -296 -118 -117 118 -188 117 326 vlineto
          12 53 4 44 1 39 rrcurveto
          -309 93 432 -63 hlineto
          -1 -65 -8 -56 -11 -45 rrcurveto
          155 271 133 -515 hlineto
          -608 -30 rmoveto
          607 -280 -607 hlineto
          494 106 rmoveto
          71 -376 -71 vlineto
          endchar
        </CharString>
        <CharString name="cid01229" fdSelectIndex="0">
          -24 631 212 rmoveto
          129 -296 -128 -117 128 -188 117 326 vlineto
          12 53 4 44 1 39 rrcurveto
          -309 93 432 -63 hlineto
          -1 -65 -8 -56 -11 -45 rrcurveto
          155 271 133 -517 hlineto
          -1 -324 rmoveto
          -585 298 126 -63 339 63 120 hlineto
          -459 -200 rmoveto
          339 47 -339 hlineto
          endchar
        </CharString>
        <CharString name="cid01230" fdSelectIndex="0">
          -20 631 172 rmoveto
          129 -286 -138 -137 138 -178 107 312 vlineto
          24 75 6 61 1 50 rrcurveto
          -309 93 432 -63 hlineto
          -2 -91 -14 -75 -18 -50 rrcurveto
          169 321 133 -557 hlineto
          -315 -5 rmoveto
          119 -1 44 -90 91 -113 65 -75 rlinecurve
          -148 hlineto
          -44 53 -36 43 -35 52 -33 -46 -42 -59 -41 -43 rrcurveto
          -155 hlineto
          136 145 79 134 0 vvcurveto
          endchar
        </CharString>
        <CharString name="cid01231" fdSelectIndex="0">
          -4 660 346 rmoveto
          -134 hlineto
          47 121 8 126 0 vvcurveto
          -483 117 617 -117 hlineto
          -2 -101 -53 -146 0 vvcurveto
          124 -56 rmoveto
          -124 -162 -278 -116 278 -186 -278 -128 278 -162 124 vlineto
          endchar
        </CharString>
        <CharString name="cid01232" fdSelectIndex="0">
          -10 778 381 rmoveto
          -112 -185 -137 -120 137 -94 -136 -121 136 -228 112 498 vlineto
          39 119 -3 94 0 vvcurveto
          -461 115 593 -105 hlineto
          -3 -71 -28 -110 -12 -42 rrcurveto
          72 -484 rmoveto
          -630 300 123 -172 507 hlineto
          endchar
        </CharString>
        <CharString name="cid01233" fdSelectIndex="0">
          -9 779 434 rmoveto
          -120 -186 -83 128 -218 -492 -32 492 -94 -625 vlineto
          4 1 rlineto
          219 480 42 -480 82 112 83 -182 120 512 vlineto
          25 97 -2 73 0 vvcurveto
          -461 115 593 -105 hlineto
          -2 -53 -17 -75 -13 -52 rrcurveto
          -327 -203 rmoveto
          129 83 -129 hlineto
          endchar
        </CharString>
        <CharString name="cid01234" fdSelectIndex="0">
          -26 99 670 rmoveto
          -113 440 vlineto
          6 -68 7 -180 -88 -147 rrcurveto
          145 hlineto
          0 75 131 265 vvcurveto
          112 vlineto
          78 -691 rmoveto
          -732 121 732 hlineto
          endchar
        </CharString>
        <CharString name="cid01235" fdSelectIndex="0">
          44 128 201 rmoveto
          -116 483 vlineto
          0 4 -107 -47 -89 vhcurveto
          124 hlineto
          0 40 98 2 98 vhcurveto
          116 vlineto
          -606 528 rmoveto
          -115 481 vlineto
          0 -2 -124 -38 -69 vhcurveto
          123 hlineto
          0 42 94 99 vvcurveto
          115 vlineto
          98 -456 rmoveto
          -802 106 802 hlineto
          endchar
        </CharString>
        <CharString name="cid01236" fdSelectIndex="0">
          20 808 270 rmoveto
          -778 103 496 hlineto
          39 119 -1 102 0 vvcurveto
          -451 115 583 -114 hlineto
          -77 -25 -103 -11 -42 vhcurveto
          148 hlineto
          -73 -476 rmoveto
          -630 300 123 -172 507 hlineto
          endchar
        </CharString>
        <CharString name="cid01237" fdSelectIndex="0">
          20 808 270 rmoveto
          -778 103 495 hlineto
          42 123 -3 98 0 vvcurveto
          -451 115 583 -115 hlineto
          -3 -75 -26 -113 -8 -33 rrcurveto
          149 hlineto
          -90 -284 rmoveto
          -450 -100 450 -101 -591 302 591 hlineto
          endchar
        </CharString>
        <CharString name="cid01238" fdSelectIndex="0">
          12 104 -122 rmoveto
          229 470 42 -470 82 611 -218 -482 -42 482 -94 -615 vlineto
          700 521 rmoveto
          -107 -770 107 495 vlineto
          37 115 -3 91 0 vvcurveto
          -451 115 583 -105 hlineto
          -3 -67 -21 -102 -10 -47 rrcurveto
          endchar
        </CharString>
        <CharString name="cid01239" fdSelectIndex="0">
          12 800 408 rmoveto
          -107 -770 107 498 vlineto
          34 111 -3 85 0 vvcurveto
          -451 115 583 -105 hlineto
          -2 -63 -23 -93 -13 -50 rrcurveto
          -228 -438 rmoveto
          -80 -307 203 171 50 -171 81 262 -200 -160 -54 vlineto
          194 241 rmoveto
          289 -99 hlineto
          -96 -21 -128 0 vhcurveto
          -113 hlineto
          16 90 1 130 0 vvcurveto
          -172 hlineto
          endchar
        </CharString>
        <CharString name="cid01240" fdSelectIndex="0">
          20 121 214 rmoveto
          -310 596 310 vlineto
          -569 508 rmoveto
          -123 431 vlineto
          0 4 -101 -41 -95 vhcurveto
          124 hlineto
          0 37 90 106 vvcurveto
          123 vlineto
          105 -452 rmoveto
          -778 103 778 hlineto
          -193 -361 rmoveto
          -385 94 385 hlineto
          endchar
        </CharString>
        <CharString name="cid01241" fdSelectIndex="0">
          20 808 280 rmoveto
          -778 103 499 hlineto
          38 118 -3 93 0 vvcurveto
          -451 115 583 -105 hlineto
          -3 -70 -27 -107 -12 -44 rrcurveto
          154 hlineto
          -100 -494 rmoveto
          -595 330 126 -83 349 83 120 hlineto
          -469 -232 rmoveto
          349 59 -349 hlineto
          endchar
        </CharString>
        <CharString name="cid01242" fdSelectIndex="0">
          20 808 261 rmoveto
          -778 112 495 hlineto
          42 123 -3 98 0 vvcurveto
          -451 115 583 -105 hlineto
          -3 -77 -33 -121 -9 -33 rrcurveto
          157 hlineto
          -448 -176 rmoveto
          123 hlineto
          42 -116 98 -129 51 -65 rrcurveto
          -145 hlineto
          -40 53 -67 106 0 vvcurveto
          -114 -159 rlineto
          -153 hlineto
          122 145 83 165 0 vvcurveto
          endchar
        </CharString>
        <CharString name="cid01243" fdSelectIndex="0">
          20 226 199 rmoveto
          356 hlineto
          81 49 -52 -64 hvcurveto
          -77 vlineto
          -77 -57 -42 -62 vhcurveto
          -378 hlineto
          -65 -54 41 69 hvcurveto
          91 vlineto
          77 76 34 54 vhcurveto
          582 69 rmoveto
          -778 105 495 hlineto
          42 123 -3 98 0 vvcurveto
          -451 115 583 -105 hlineto
          -3 -77 -33 -121 -9 -33 rrcurveto
          157 hlineto
          -260 -281 rmoveto
          -272 hlineto
          -38 -13 -24 -15 hvcurveto
          -31 vlineto
          -30 25 -8 26 vhcurveto
          277 hlineto
          24 16 24 19 hvcurveto
          24 vlineto
          20 -19 21 -26 vhcurveto
          endchar
        </CharString>
        <CharString name="cid01244" fdSelectIndex="0">
          -38 67 664 rmoveto
          -118 293 vlineto
          -69 -7 -183 -83 -148 vhcurveto
          -82 -9 -85 -1 -73 15 rrcurveto
          -142 vlineto
          0 385 -50 195 174 vhcurveto
          -246 140 842 -142 -506 vlineto
          -26 -11 -77 -24 -96 -20 rrcurveto
          30 39 69 113 222 vvcurveto
          122 vlineto
          endchar
        </CharString>
        <CharString name="cid01245" fdSelectIndex="0">
          -90 30 654 rmoveto
          -128 290 vlineto
          -16 -82 -87 -146 -140 -113 rrcurveto
          -167 vlineto
          0 362 256 24 281 vhcurveto
          99 vlineto
          235 -766 rmoveto
          -132 831 132 hlineto
          endchar
        </CharString>
        <CharString name="cid01246" fdSelectIndex="0">
          -49 434 673 rmoveto
          2 -101 rlineto
          -1 -212 -103 -90 0 vvcurveto
          -132 hlineto
          89 95 11 142 59 vvcurveto
          -270 107 hlineto
          585 57 rmoveto
          124 -471 -124 hlineto
          -465 -93 rmoveto
          585 -107 hlineto
          -2 -93 -36 -78 0 vvcurveto
          -127 hlineto
          44 83 -4 88 0 vvcurveto
          -460 hlineto
          endchar
        </CharString>
        <CharString name="cid01247" fdSelectIndex="0">
          -21 434 673 rmoveto
          2 -101 rlineto
          -1 -212 -103 -90 0 vvcurveto
          -132 hlineto
          89 95 11 142 59 vvcurveto
          -270 107 hlineto
          606 56 rmoveto
          128 -524 -128 hlineto
          131 -317 rmoveto
          -599 286 116 -164 483 hlineto
          endchar
        </CharString>
        <CharString name="cid01248" fdSelectIndex="0">
          -55 434 673 rmoveto
          2 -101 rlineto
          -1 -212 -103 -90 0 vvcurveto
          -132 hlineto
          89 95 11 142 59 vvcurveto
          -270 107 hlineto
          575 57 rmoveto
          118 -471 -118 hlineto
          128 -171 rmoveto
          -465 -93 465 -107 -598 306 598 hlineto
          endchar
        </CharString>
        <CharString name="cid01249" fdSelectIndex="0">
          -70 431 697 rmoveto
          -93 vlineto
          -121 -51 -125 -36 -63 vhcurveto
          -141 hlineto
          78 115 16 102 77 vvcurveto
          -267 108 hlineto
          688 -424 rmoveto
          -115 456 115 hlineto
          -615 -841 rmoveto
          225 471 45 -471 81 611 -217 -483 -44 483 -91 -614 vlineto
          endchar
        </CharString>
        <CharString name="cid01250" fdSelectIndex="0">
          -70 431 697 rmoveto
          -93 vlineto
          -121 -51 -125 -36 -63 vhcurveto
          -141 hlineto
          78 115 16 102 77 vvcurveto
          -267 108 hlineto
          688 -424 rmoveto
          -115 456 115 hlineto
          -300 -495 rmoveto
          298 -346 -298 12 -307 203 171 50 -171 81 262 -200 -160 -54 205 hlineto
          206 hmoveto
          173 -115 -173 vlineto
          endchar
        </CharString>
        <CharString name="cid01251" fdSelectIndex="0">
          -81 434 673 rmoveto
          2 -101 rlineto
          -1 -212 -103 -90 0 vvcurveto
          -132 hlineto
          89 95 11 142 59 vvcurveto
          -270 107 hlineto
          555 57 rmoveto
          118 -471 -118 hlineto
          -466 -66 rmoveto
          588 -305 -588 hlineto
          494 106 rmoveto
          94 -388 -94 vlineto
          endchar
        </CharString>
        <CharString name="cid01252" fdSelectIndex="0">
          -72 434 673 rmoveto
          2 -101 rlineto
          -1 -212 -103 -90 0 vvcurveto
          -132 hlineto
          89 95 11 142 59 vvcurveto
          -270 107 hlineto
          555 57 rmoveto
          128 -471 -128 hlineto
          131 -371 rmoveto
          -576 319 127 -82 322 82 127 hlineto
          -449 -231 rmoveto
          322 70 -322 hlineto
          endchar
        </CharString>
        <CharString name="cid01253" fdSelectIndex="0">
          -30 444 673 rmoveto
          2 -101 rlineto
          -1 -212 -103 -110 0 vvcurveto
          -132 hlineto
          89 95 11 162 59 vvcurveto
          -280 107 hlineto
          596 56 rmoveto
          128 -524 -128 hlineto
          -182 -8 rmoveto
          123 -1 42 -116 98 -127 51 -65 rlinecurve
          -145 hlineto
          -40 53 -67 107 0 vvcurveto
          -114 -160 rlineto
          -153 hlineto
          122 145 83 164 0 vvcurveto
          endchar
        </CharString>
        <CharString name="cid01254" fdSelectIndex="0">
          -55 434 673 rmoveto
          2 -101 rlineto
          -1 -212 -103 -90 0 vvcurveto
          -132 hlineto
          89 95 11 142 59 vvcurveto
          -270 107 hlineto
          565 57 rmoveto
          118 -471 -118 hlineto
          -358 -84 rmoveto
          367 hlineto
          71 58 -32 -74 hvcurveto
          -72 vlineto
          -67 -46 -42 -72 vhcurveto
          -387 hlineto
          -73 -47 47 57 hvcurveto
          76 vlineto
          77 74 30 55 vhcurveto
          332 -107 rmoveto
          -287 hlineto
          -38 -7 -13 -15 -1 hvcurveto
          -1 -26 rlineto
          -29 -1 23 0 26 hhcurveto
          288 hlineto
          24 20 11 19 hvcurveto
          19 vlineto
          19 -20 15 -26 vhcurveto
          endchar
        </CharString>
        <CharString name="cid01255" fdSelectIndex="0">
          -66 434 673 rmoveto
          2 -101 rlineto
          -1 -212 -103 -90 0 vvcurveto
          -132 hlineto
          89 95 11 142 59 vvcurveto
          -270 107 hlineto
          555 57 rmoveto
          118 -471 -118 hlineto
          -434 -160 rmoveto
          103 565 -103 -197 vlineto
          38 -58 78 -33 87 -31 rrcurveto
          -87 vlineto
          -85 12 -138 45 -64 94 -92 -87 -88 -42 -107 -35 rrcurveto
          99 vlineto
          71 27 72 52 49 44 rrcurveto
          endchar
        </CharString>
        <CharString name="cid01256" fdSelectIndex="0">
          -48 740 88 rmoveto
          99 -623 -99 112 vlineto
          34 -100 rlineto
          -146 -100 621 100 -137 hlineto
          33 100 rlineto
          -203 582 rmoveto
          -401 -105 268 hlineto
          -60 -11 -141 -90 -94 vhcurveto
          133 hlineto
          0 102 90 1 210 vhcurveto
          304 -316 rmoveto
          -124 476 124 hlineto
          -249 -742 rmoveto
          -112 hlineto
          -35 100 rlineto
          182 hlineto
          endchar
        </CharString>
        <CharString name="cid01257" fdSelectIndex="0">
          31 518 660 rmoveto
          -488 -105 137 hlineto
          -9 -133 -37 -110 -91 -92 rrcurveto
          -115 vlineto
          0 242 135 15 315 vhcurveto
          108 hlineto
          -7 -150 -38 -115 -104 -105 rrcurveto
          -116 vlineto
          88 47 184 166 280 vvcurveto
          196 -114 rmoveto
          270 -129 -831 129 432 105 129 vlineto
          endchar
        </CharString>
        <CharString name="cid01258" fdSelectIndex="0">
          14 505 668 rmoveto
          -88 vlineto
          -170 -146 -142 -89 -32 vhcurveto
          117 vlineto
          63 59 39 86 65 vvcurveto
          -98 hlineto
          -20 -213 -214 -107 0 vvcurveto
          123 vlineto
          63 56 35 54 6 87 rrcurveto
          -114 105 hlineto
          772 -109 rmoveto
          -118 -113 -175 -119 464 119 -171 vlineto
          -598 -375 rmoveto
          602 -114 hlineto
          -3 -98 -38 -84 0 vvcurveto
          -123 hlineto
          47 88 -4 94 0 vvcurveto
          -481 hlineto
          endchar
        </CharString>
        <CharString name="cid01259" fdSelectIndex="0">
          14 505 697 rmoveto
          -88 vlineto
          -170 -146 -142 -89 -32 vhcurveto
          117 vlineto
          63 59 39 86 65 vvcurveto
          -98 hlineto
          -20 -213 -214 -107 0 vvcurveto
          123 vlineto
          63 56 35 54 6 87 rrcurveto
          -114 105 hlineto
          772 -148 rmoveto
          -118 -113 -185 -128 484 128 -181 vlineto
          -262 -373 rmoveto
          266 -105 hlineto
          -2 -98 -40 -84 0 vvcurveto
          -123 hlineto
          47 89 -4 83 0 vvcurveto
          -144 hlineto
          -350 115 rmoveto
          316 -95 hlineto
          -2 -98 -40 -94 0 vvcurveto
          -123 hlineto
          47 89 -4 83 0 vvcurveto
          -194 hlineto
          endchar
        </CharString>
        <CharString name="cid01260" fdSelectIndex="0">
          0 485 678 rmoveto
          -88 vlineto
          -170 -136 -142 -89 -32 vhcurveto
          117 vlineto
          63 59 29 86 65 vvcurveto
          -88 hlineto
          -20 -213 -204 -107 0 vvcurveto
          123 vlineto
          63 56 25 54 6 87 rrcurveto
          -104 105 hlineto
          650 -183 rmoveto
          108 -112 -108 -222 -123 569 123 hlineto
          29 -833 rmoveto
          -598 287 125 -169 473 hlineto
          endchar
        </CharString>
        <CharString name="cid01261" fdSelectIndex="0">
          21 495 688 rmoveto
          -88 vlineto
          -170 -136 -132 -89 -32 vhcurveto
          117 vlineto
          63 59 29 76 65 vvcurveto
          -88 hlineto
          -20 -213 -214 -97 0 vvcurveto
          123 vlineto
          63 56 35 44 6 87 rrcurveto
          -114 105 hlineto
          779 -135 rmoveto
          -118 -115 -156 -117 451 117 -177 vlineto
          -585 -676 rmoveto
          221 454 46 -454 81 593 -216 -466 -38 466 -94 vlineto
          endchar
        </CharString>
        <CharString name="cid01262" fdSelectIndex="0">
          21 495 688 rmoveto
          -88 vlineto
          -170 -136 -132 -89 -32 vhcurveto
          117 vlineto
          63 59 29 76 65 vvcurveto
          -88 hlineto
          -20 -213 -214 -97 0 vvcurveto
          123 vlineto
          63 56 35 44 6 87 rrcurveto
          -114 105 hlineto
          779 -135 rmoveto
          -118 -115 -156 -117 451 117 -177 vlineto
          -293 -329 rmoveto
          298 -346 -298 12 -307 203 171 50 -171 81 262 -200 -160 -54 205 hlineto
          206 hmoveto
          173 -115 -173 vlineto
          endchar
        </CharString>
        <CharString name="cid01263" fdSelectIndex="0">
          14 505 678 rmoveto
          -88 vlineto
          -170 -146 -142 -89 -32 vhcurveto
          117 vlineto
          63 59 39 86 65 vvcurveto
          -98 hlineto
          -20 -213 -214 -107 0 vvcurveto
          123 vlineto
          63 56 35 54 6 87 rrcurveto
          -114 105 hlineto
          772 -149 rmoveto
          -118 -113 -175 -119 494 119 -201 vlineto
          -579 -338 rmoveto
          581 -303 -581 hlineto
          472 105 rmoveto
          94 -368 -94 vlineto
          endchar
        </CharString>
        <CharString name="cid01264" fdSelectIndex="0">
          14 495 689 rmoveto
          -88 vlineto
          -170 -146 -142 -89 -32 vhcurveto
          117 vlineto
          63 59 39 86 65 vvcurveto
          -88 hlineto
          -20 -213 -214 -107 0 vvcurveto
          123 vlineto
          63 56 35 54 6 87 rrcurveto
          -114 105 hlineto
          772 -130 rmoveto
          -118 -113 -185 -119 474 119 -171 vlineto
          3 -671 rmoveto
          -556 319 127 -82 309 82 120 hlineto
          -429 -231 rmoveto
          309 70 -309 hlineto
          endchar
        </CharString>
        <CharString name="cid01265" fdSelectIndex="0">
          0 505 668 rmoveto
          -88 vlineto
          -170 -146 -142 -89 -32 vhcurveto
          117 vlineto
          63 59 39 86 65 vvcurveto
          -98 hlineto
          -20 -213 -214 -107 0 vvcurveto
          123 vlineto
          63 56 35 54 6 87 rrcurveto
          -114 105 hlineto
          660 -183 rmoveto
          98 -112 -98 -182 -120 539 120 hlineto
          -300 -534 rmoveto
          123 hlineto
          42 -116 98 -128 51 -65 rrcurveto
          -145 hlineto
          -40 53 -67 106 0 vvcurveto
          -114 -159 rlineto
          -153 hlineto
          122 145 83 164 0 vvcurveto
          endchar
        </CharString>
        <CharString name="cid01266" fdSelectIndex="0">
          14 505 668 rmoveto
          -88 vlineto
          -170 -146 -142 -89 -32 vhcurveto
          117 vlineto
          63 59 39 86 65 vvcurveto
          -98 hlineto
          -20 -213 -214 -107 0 vvcurveto
          123 vlineto
          63 56 35 54 6 87 rrcurveto
          -114 105 hlineto
          772 -109 rmoveto
          -118 -113 -175 -119 464 119 -171 vlineto
          -67 -363 rmoveto
          16 -118 153 -190 0 vvcurveto
          -132 hlineto
          -45 60 -21 30 -29 64 -11 -38 -40 -68 -45 -48 rrcurveto
          -134 hlineto
          28 22 13 18 20 28 rrcurveto
          -38 46 -30 41 0 vvcurveto
          -13 -43 -44 -63 -42 -49 rrcurveto
          -139 hlineto
          106 109 63 137 13 63 rrcurveto
          117 hlineto
          8 -58 15 -41 39 -59 30 56 19 66 7 35 rrcurveto
          endchar
        </CharString>
        <CharString name="cid01267" fdSelectIndex="0">
          14 505 668 rmoveto
          -88 vlineto
          -170 -146 -142 -89 -32 vhcurveto
          117 vlineto
          63 59 39 86 65 vvcurveto
          -98 hlineto
          -20 -213 -214 -107 0 vvcurveto
          123 vlineto
          63 56 35 54 6 87 rrcurveto
          -114 105 hlineto
          772 -109 rmoveto
          -118 -113 -175 -119 464 119 -171 vlineto
          -466 -386 rmoveto
          345 hlineto
          71 57 -35 -73 hvcurveto
          -72 vlineto
          -56 -47 -50 -62 vhcurveto
          -394 hlineto
          -63 -47 44 67 hvcurveto
          71 vlineto
          76 55 28 85 vhcurveto
          355 -159 rmoveto
          21 vlineto
          16 -16 15 -19 vhcurveto
          -289 hlineto
          -38 -4 -16 -14 hvcurveto
          -25 vlineto
          -20 16 -7 26 vhcurveto
          290 hlineto
          24 10 11 19 hvcurveto
          endchar
        </CharString>
        <CharString name="cid01268" fdSelectIndex="0">
          21 134 -112 rmoveto
          336 557 -87 -425 -43 425 -85 -425 -42 425 -79 vlineto
          -196 800 rmoveto
          -88 vlineto
          -170 -136 -132 -89 -32 vhcurveto
          117 vlineto
          63 59 29 76 65 vvcurveto
          -88 hlineto
          -20 -213 -214 -97 0 vvcurveto
          123 vlineto
          63 56 35 44 6 87 rrcurveto
          -114 105 hlineto
          779 -135 rmoveto
          -118 -115 -156 -117 451 117 -177 vlineto
          endchar
        </CharString>
        <CharString name="cid01269" fdSelectIndex="0">
          21 458 660 rmoveto
          -108 vlineto
          -280 -154 -156 -88 -47 vhcurveto
          126 vlineto
          104 105 8 105 7 150 rrcurveto
          -78 hlineto
          -15 -315 -212 -135 0 vvcurveto
          125 vlineto
          91 92 7 100 9 133 rrcurveto
          -107 105 hlineto
          670 60 rmoveto
          109 -823 -109 435 -81 -435 -121 823 121 -271 81 hlineto
          endchar
        </CharString>
        <CharString name="cid01270" fdSelectIndex="0">
          2 435 668 rmoveto
          -88 vlineto
          -170 -116 -132 -89 -32 vhcurveto
          117 vlineto
          63 59 19 78 65 vvcurveto
          -68 hlineto
          -29 -215 -184 -77 0 vvcurveto
          123 vlineto
          59 44 24 64 1 61 rrcurveto
          -85 103 hlineto
          646 61 rmoveto
          114 -486 -114 169 -74 -169 -114 486 114 -221 74 hlineto
          -500 -313 rmoveto
          604 -118 -1 hlineto
          -2 -101 -41 -88 0 vvcurveto
          -125 hlineto
          47 91 -4 98 0 vvcurveto
          -478 hlineto
          endchar
        </CharString>
        <CharString name="cid01271" fdSelectIndex="0">
          6 435 668 rmoveto
          -88 vlineto
          -170 -116 -132 -89 -32 vhcurveto
          117 vlineto
          63 59 19 78 65 vvcurveto
          -68 hlineto
          -29 -215 -184 -77 0 vvcurveto
          123 vlineto
          59 44 24 64 1 61 rrcurveto
          -85 103 hlineto
          637 61 rmoveto
          114 -506 -114 209 -66 -209 -114 506 114 -201 66 hlineto
          127 -620 rmoveto
          -602 283 125 -163 477 hlineto
          endchar
        </CharString>
        <CharString name="cid01272" fdSelectIndex="0">
          3 445 688 rmoveto
          -88 vlineto
          -170 -126 -132 -89 -32 vhcurveto
          117 vlineto
          63 59 19 78 65 vvcurveto
          -68 hlineto
          -29 -215 -184 -77 0 vvcurveto
          123 vlineto
          59 44 24 64 1 61 rrcurveto
          -85 103 hlineto
          650 41 rmoveto
          111 -467 -111 166 -84 -166 -111 467 111 -206 84 hlineto
          -490 -636 rmoveto
          218 464 44 -464 79 600 -213 -475 -37 475 -91 vlineto
          endchar
        </CharString>
        <CharString name="cid01273" fdSelectIndex="0">
          3 435 668 rmoveto
          -88 vlineto
          -170 -116 -132 -89 -32 vhcurveto
          117 vlineto
          63 59 19 78 65 vvcurveto
          -68 hlineto
          -29 -215 -184 -77 0 vvcurveto
          123 vlineto
          59 44 24 64 1 61 rrcurveto
          -85 103 hlineto
          647 61 rmoveto
          114 -486 -114 169 -74 -169 -114 486 114 -221 74 hlineto
          -484 -315 rmoveto
          594 -300 -594 hlineto
          484 108 rmoveto
          84 -375 -84 vlineto
          endchar
        </CharString>
        <CharString name="cid01274" fdSelectIndex="0">
          3 435 688 rmoveto
          -88 vlineto
          -170 -116 -144 -89 -32 vhcurveto
          117 vlineto
          63 59 19 90 65 vvcurveto
          -68 hlineto
          -29 -215 -184 -89 0 vvcurveto
          123 vlineto
          59 44 24 76 1 61 rrcurveto
          -85 103 hlineto
          647 41 rmoveto
          114 -491 -114 191 -75 -191 -123 491 123 -204 75 hlineto
          110 -635 rmoveto
          -616 312 135 -63 361 63 120 hlineto
          -481 -221 rmoveto
          361 69 -361 hlineto
          endchar
        </CharString>
        <CharString name="cid01275" fdSelectIndex="0">
          -7 435 688 rmoveto
          -88 vlineto
          -170 -116 -162 -89 -32 vhcurveto
          119 vlineto
          63 59 19 106 65 vvcurveto
          -74 hlineto
          -11 -202 -184 -121 0 vvcurveto
          -2 121 58 71 19 70 1 61 rlinecurve
          -89 103 hlineto
          637 41 rmoveto
          114 -486 -114 189 -66 -189 -124 486 124 -201 66 hlineto
          -238 -351 rmoveto
          119 1 44 -90 91 -125 65 -75 rlinecurve
          -148 hlineto
          -44 53 -36 45 -35 52 -33 -46 -42 -61 -41 -43 rrcurveto
          -155 hlineto
          136 145 79 144 0 vvcurveto
          endchar
        </CharString>
        <CharString name="cid01276" fdSelectIndex="0">
          14 432 688 rmoveto
          -88 vlineto
          -170 -116 -141 -89 -32 vhcurveto
          117 vlineto
          63 59 19 87 65 vvcurveto
          -66 hlineto
          -29 -215 -184 -77 0 vvcurveto
          120 vlineto
          59 44 24 67 1 61 rrcurveto
          -77 103 hlineto
          619 41 rmoveto
          114 -496 -114 179 -74 -179 -114 496 114 -221 74 hlineto
          -16 -332 rmoveto
          15 -106 147 -183 0 vvcurveto
          -136 hlineto
          -30 40 -34 57 -29 51 rrcurveto
          0 -30 -71 -65 -77 vhcurveto
          -128 hlineto
          14 18 12 14 19 25 rrcurveto
          -36 41 -22 53 0 vvcurveto
          -23 -55 -27 -38 -42 -58 rrcurveto
          -142 hlineto
          92 109 46 106 24 74 rrcurveto
          132 hlineto
          7 -53 29 -51 24 -40 22 38 25 62 8 44 rrcurveto
          endchar
        </CharString>
        <CharString name="cid01277" fdSelectIndex="0">
          -14 654 188 rmoveto
          60 57 -41 -62 hvcurveto
          -100 vlineto
          -56 -46 -41 -61 vhcurveto
          -388 hlineto
          -35 1 -63 26 -12 69 rrcurveto
          101 vlineto
          73 12 82 30 44 hhcurveto
          356 541 rmoveto
          114 -494 -114 180 -72 -180 -116 494 116 -212 72 hlineto
          -225 164 rmoveto
          -101 vlineto
          -170 -116 -132 -89 -32 vhcurveto
          117 vlineto
          63 59 19 88 65 vvcurveto
          -68 hlineto
          -29 -215 -184 -87 0 vvcurveto
          123 vlineto
          59 44 24 74 1 61 rrcurveto
          -85 106 hlineto
          581 -597 rmoveto
          -266 hlineto
          -38 -8 -16 -13 -6 hvcurveto
          -1 -44 rlineto
          -26 12 15 0 26 hhcurveto
          267 hlineto
          23 19 7 19 hvcurveto
          37 vlineto
          18 -19 18 -24 vhcurveto
          endchar
        </CharString>
        <CharString name="cid01278" fdSelectIndex="0">
          2 508 640 rmoveto
          -108 vlineto
          -280 -174 -156 -88 -47 vhcurveto
          126 vlineto
          104 105 28 105 7 150 rrcurveto
          -98 hlineto
          -15 -315 -242 -135 0 vvcurveto
          125 vlineto
          91 92 37 100 9 133 rrcurveto
          -137 105 hlineto
          760 -258 rmoveto
          -103 -93 103 -116 -103 -286 -124 831 124 -222 103 hlineto
          endchar
        </CharString>
        <CharString name="cid01279" fdSelectIndex="0">
          8 505 688 rmoveto
          -88 vlineto
          -170 -146 -142 -89 -32 vhcurveto
          117 vlineto
          63 59 39 86 65 vvcurveto
          -98 hlineto
          -20 -213 -214 -107 0 vvcurveto
          123 vlineto
          63 56 35 54 6 87 rrcurveto
          -114 105 hlineto
          61 -504 rmoveto
          602 -114 hlineto
          -3 -98 -38 -84 0 vvcurveto
          -123 hlineto
          47 88 -4 94 0 vvcurveto
          -481 hlineto
          704 399 rmoveto
          -118 -115 -102 -117 481 117 -86 116 -108 -116 -67 vlineto
          endchar
        </CharString>
        <CharString name="cid01280" fdSelectIndex="0">
          18 98 -123 rmoveto
          221 454 46 -454 81 593 -216 -466 -38 466 -94 vlineto
          -196 811 rmoveto
          -88 vlineto
          -170 -136 -132 -89 -32 vhcurveto
          117 vlineto
          63 59 29 76 65 vvcurveto
          -88 hlineto
          -20 -213 -214 -97 0 vvcurveto
          123 vlineto
          63 56 35 44 6 87 rrcurveto
          -114 105 hlineto
          775 -219 rmoveto
          -118 -115 -102 -117 481 117 -86 116 -108 -116 -67 vlineto
          endchar
        </CharString>
        <CharString name="cid01281" fdSelectIndex="0">
          -22 633 730 rmoveto
          133 -842 -133 433 -148 62 hlineto
          -50 -175 -121 -103 -68 -36 rrcurveto
          126 vlineto
          104 105 28 105 7 150 rrcurveto
          -98 hlineto
          -15 -315 -242 -135 0 vvcurveto
          125 vlineto
          91 92 37 100 9 133 rrcurveto
          -137 105 478 -108 hlineto
          -32 -3 -30 -4 -29 vhcurveto
          132 hlineto
          endchar
        </CharString>
        <CharString name="cid01282" fdSelectIndex="0">
          -12 635 728 rmoveto
          125 -488 -125 175 -136 105 hlineto
          -29 -143 -122 -113 -78 -28 rrcurveto
          117 vlineto
          63 59 39 86 65 vvcurveto
          -98 hlineto
          -20 -213 -214 -107 0 vvcurveto
          123 vlineto
          63 56 35 54 6 87 rrcurveto
          -114 105 475 -88 hlineto
          -17 -2 -16 -2 -16 vhcurveto
          134 hlineto
          -463 -336 rmoveto
          604 -118 -1 hlineto
          -2 -101 -41 -88 0 vvcurveto
          -125 hlineto
          47 91 -4 98 0 vvcurveto
          -478 hlineto
          endchar
        </CharString>
        <CharString name="cid01283" fdSelectIndex="0">
          -15 635 728 rmoveto
          125 -488 -125 175 -136 105 hlineto
          -29 -143 -122 -113 -78 -28 rrcurveto
          117 vlineto
          63 59 39 86 65 vvcurveto
          -98 hlineto
          -20 -213 -214 -107 0 vvcurveto
          123 vlineto
          63 56 35 54 6 87 rrcurveto
          -114 105 475 -88 hlineto
          -17 -2 -16 -2 -16 vhcurveto
          134 hlineto
          -478 -351 rmoveto
          316 -95 hlineto
          -2 -98 -40 -84 0 vvcurveto
          -123 hlineto
          47 89 -4 73 0 vvcurveto
          -194 hlineto
          350 115 rmoveto
          266 -95 hlineto
          -2 -98 -40 -84 0 vvcurveto
          -123 hlineto
          47 89 -4 73 0 vvcurveto
          -144 hlineto
          endchar
        </CharString>
        <CharString name="cid01284" fdSelectIndex="0">
          1 505 668 rmoveto
          -88 vlineto
          -170 -146 -142 -89 -32 vhcurveto
          117 vlineto
          63 59 39 86 65 vvcurveto
          -98 hlineto
          -20 -213 -214 -107 0 vvcurveto
          123 vlineto
          63 56 35 54 6 87 rrcurveto
          -114 105 hlineto
          614 60 rmoveto
          135 -538 -135 205 -126 116 126 hlineto
          145 -603 rmoveto
          -592 273 142 -153 450 hlineto
          endchar
        </CharString>
        <CharString name="cid01285" fdSelectIndex="0">
          9 495 688 rmoveto
          -88 vlineto
          -170 -136 -132 -89 -32 vhcurveto
          117 vlineto
          63 59 29 76 65 vvcurveto
          -88 hlineto
          -20 -213 -214 -97 0 vvcurveto
          123 vlineto
          63 56 35 44 6 87 rrcurveto
          -114 105 hlineto
          635 42 rmoveto
          124 -470 -124 180 -143 114 143 hlineto
          -459 -667 rmoveto
          218 455 44 -455 79 591 -213 -466 -37 466 -91 vlineto
          endchar
        </CharString>
        <CharString name="cid01286" fdSelectIndex="0">
          -6 505 668 rmoveto
          -88 vlineto
          -170 -146 -142 -89 -32 vhcurveto
          117 vlineto
          63 59 39 86 65 vvcurveto
          -98 hlineto
          -20 -213 -214 -107 0 vvcurveto
          123 vlineto
          63 56 35 54 6 87 rrcurveto
          -114 105 hlineto
          625 60 rmoveto
          125 -488 -125 175 -136 116 136 hlineto
          -467 -338 rmoveto
          594 -300 -594 hlineto
          484 108 rmoveto
          84 -375 -84 vlineto
          endchar
        </CharString>
        <CharString name="cid01287" fdSelectIndex="0">
          -6 505 668 rmoveto
          -88 vlineto
          -170 -146 -142 -89 -32 vhcurveto
          117 vlineto
          63 59 39 86 65 vvcurveto
          -98 hlineto
          -20 -213 -214 -107 0 vvcurveto
          123 vlineto
          63 56 35 54 6 87 rrcurveto
          -114 105 hlineto
          752 -780 rmoveto
          -556 300 127 -73 309 73 120 hlineto
          -429 -212 rmoveto
          309 60 -309 hlineto
          302 692 rmoveto
          125 -488 -125 175 -136 116 136 hlineto
          endchar
        </CharString>
        <CharString name="cid01288" fdSelectIndex="0">
          6 515 668 rmoveto
          -88 vlineto
          -170 -146 -142 -89 -32 vhcurveto
          117 vlineto
          63 59 39 86 65 vvcurveto
          -98 hlineto
          -20 -213 -214 -107 0 vvcurveto
          123 vlineto
          63 56 35 54 6 87 rrcurveto
          -114 105 hlineto
          594 60 rmoveto
          125 -528 -125 195 -106 116 106 hlineto
          -180 -344 rmoveto
          119 hlineto
          44 -90 93 -114 65 -75 rrcurveto
          -148 hlineto
          -44 53 -38 43 -35 52 -33 -46 -42 -59 -41 -43 rrcurveto
          -155 hlineto
          136 145 79 134 0 vvcurveto
          endchar
        </CharString>
        <CharString name="cid01289" fdSelectIndex="0">
          20 515 668 rmoveto
          -88 vlineto
          -170 -146 -142 -89 -32 vhcurveto
          117 vlineto
          63 59 39 86 65 vvcurveto
          -98 hlineto
          -20 -213 -214 -107 0 vvcurveto
          123 vlineto
          63 56 35 54 6 87 rrcurveto
          -114 105 hlineto
          619 -502 rmoveto
          15 -106 144 -173 0 vvcurveto
          -136 hlineto
          -30 40 -34 57 -29 51 rrcurveto
          0 -30 -71 -65 -77 vhcurveto
          -128 hlineto
          14 18 12 14 19 25 rrcurveto
          -36 41 -22 53 0 vvcurveto
          -23 -55 -27 -38 -42 -58 rrcurveto
          -142 hlineto
          92 109 45 96 24 74 rrcurveto
          134 hlineto
          7 -53 28 -41 24 -40 22 38 23 52 8 44 rrcurveto
          118 562 rmoveto
          125 -508 -125 175 -106 116 106 hlineto
          endchar
        </CharString>
        <CharString name="cid01290" fdSelectIndex="0">
          -5 505 668 rmoveto
          -88 vlineto
          -170 -146 -142 -89 -32 vhcurveto
          117 vlineto
          63 59 39 86 65 vvcurveto
          -98 hlineto
          -20 -213 -214 -107 0 vvcurveto
          123 vlineto
          63 56 35 54 6 87 rrcurveto
          -114 105 hlineto
          605 60 rmoveto
          125 -488 -125 156 -116 116 116 hlineto
          31 -342 rmoveto
          60 57 -41 -62 hvcurveto
          -82 vlineto
          -56 -46 -41 -61 vhcurveto
          -388 hlineto
          -35 1 -75 25 70 vvcurveto
          83 vlineto
          73 12 82 30 44 hhcurveto
          307 -104 rmoveto
          -266 hlineto
          -38 -8 -16 -13 -6 hvcurveto
          -1 -26 rlineto
          -26 12 15 0 26 hhcurveto
          267 hlineto
          23 19 7 19 hvcurveto
          19 vlineto
          18 -19 18 -24 vhcurveto
          endchar
        </CharString>
        <CharString name="cid01291" fdSelectIndex="0">
          37 541 441 rmoveto
          289 117 -842 -117 411 -83 106 vlineto
          -46 -189 -126 -109 -71 -38 rrcurveto
          126 vlineto
          104 105 18 105 7 150 rrcurveto
          -77 hlineto
          -15 -335 -222 -115 0 vvcurveto
          141 vlineto
          60 68 42 68 9 173 rrcurveto
          -111 105 445 -108 hlineto
          -40 -4 -37 -6 -34 vhcurveto
          242 289 rmoveto
          118 -842 -118 hlineto
          endchar
        </CharString>
        <CharString name="cid01292" fdSelectIndex="0">
          9 512 541 rmoveto
          189 111 vlineto
          -1 -482 rlineto
          -110 171 -93 52 hlineto
          -35 -116 -85 -84 -69 -25 rrcurveto
          117 vlineto
          63 59 19 78 65 vvcurveto
          -68 hlineto
          -29 -215 -184 -77 0 vvcurveto
          123 vlineto
          59 44 24 64 1 61 rrcurveto
          -85 103 405 -88 hlineto
          -14 -1 -12 -1 -13 vhcurveto
          -256 -346 rmoveto
          604 -118 -1 hlineto
          -2 -101 -41 -88 0 vvcurveto
          -125 hlineto
          47 91 -4 98 0 vvcurveto
          -478 hlineto
          507 653 rmoveto
          113 -482 -113 hlineto
          endchar
        </CharString>
        <CharString name="cid01293" fdSelectIndex="0">
          27 804 -92 rmoveto
          -602 273 125 -153 477 hlineto
          -369 640 rmoveto
          -88 vlineto
          -170 -116 -142 -89 -32 vhcurveto
          117 vlineto
          63 59 19 88 65 vvcurveto
          -68 hlineto
          -29 -215 -184 -87 0 vvcurveto
          123 vlineto
          59 44 24 74 1 61 rrcurveto
          -85 103 hlineto
          492 -137 rmoveto
          199 111 vlineto
          -1 -512 rlineto
          -110 191 -83 122 hlineto
          255 199 rmoveto
          113 -512 -113 hlineto
          endchar
        </CharString>
        <CharString name="cid01294" fdSelectIndex="0">
          31 435 668 rmoveto
          -88 vlineto
          -170 -116 -132 -89 -32 vhcurveto
          117 vlineto
          63 59 19 78 65 vvcurveto
          -68 hlineto
          -29 -215 -184 -77 0 vvcurveto
          123 vlineto
          59 44 24 64 1 61 rrcurveto
          -85 103 hlineto
          492 -137 rmoveto
          199 111 vlineto
          -1 -482 rlineto
          -110 161 -83 122 hlineto
          255 199 rmoveto
          113 -482 -113 hlineto
          -501 -55 rmoveto
          613 -300 -613 hlineto
          503 108 rmoveto
          84 -394 -84 vlineto
          endchar
        </CharString>
        <CharString name="cid01295" fdSelectIndex="0">
          0 435 668 rmoveto
          -88 vlineto
          -170 -116 -132 -89 -32 vhcurveto
          117 vlineto
          63 59 19 78 65 vvcurveto
          -68 hlineto
          -29 -215 -184 -77 0 vvcurveto
          123 vlineto
          59 44 24 64 1 61 rrcurveto
          -85 103 hlineto
          493 -114 rmoveto
          176 101 -532 -101 234 -83 122 vlineto
          235 176 rmoveto
          113 -532 -113 hlineto
          -246 -31 rmoveto
          119 -1 44 -90 91 -113 65 -75 rlinecurve
          -148 hlineto
          -44 53 -36 43 -35 52 -33 -46 -42 -59 -41 -43 rrcurveto
          -155 hlineto
          136 145 79 134 0 vvcurveto
          endchar
        </CharString>
        <CharString name="cid01296" fdSelectIndex="0">
          9 512 531 rmoveto
          199 111 vlineto
          -1 -482 rlineto
          -110 161 -93 62 hlineto
          -35 -116 -85 -84 -69 -25 rrcurveto
          117 vlineto
          63 59 19 78 65 vvcurveto
          -68 hlineto
          -29 -215 -184 -77 0 vvcurveto
          123 vlineto
          59 44 24 64 1 61 rrcurveto
          -85 103 405 -88 hlineto
          -17 -2 -16 -2 -16 vhcurveto
          240 -361 rmoveto
          60 57 -41 -62 hvcurveto
          -82 vlineto
          -56 -46 -41 -61 vhcurveto
          -388 hlineto
          -35 1 -75 27 70 vvcurveto
          83 vlineto
          74 94 27 44 vhcurveto
          363 560 rmoveto
          113 -482 -113 hlineto
          -56 -182 rmoveto
          -266 hlineto
          -38 -8 -16 -13 -6 hvcurveto
          -1 -26 rlineto
          -26 12 15 0 26 hhcurveto
          267 hlineto
          23 19 7 19 hvcurveto
          19 vlineto
          18 -19 18 -24 vhcurveto
          endchar
        </CharString>
        <CharString name="cid01297" fdSelectIndex="0">
          13 508 660 rmoveto
          -108 vlineto
          -280 -174 -156 -88 -47 vhcurveto
          126 vlineto
          104 105 28 105 7 150 rrcurveto
          -98 hlineto
          -15 -315 -242 -135 0 vvcurveto
          125 vlineto
          91 92 37 100 9 133 rrcurveto
          -137 105 hlineto
          631 68 rmoveto
          140 -841 -140 281 -129 118 129 105 -129 116 129 hlineto
          endchar
        </CharString>
        <CharString name="cid01298" fdSelectIndex="0">
          1 505 668 rmoveto
          -88 vlineto
          -170 -146 -142 -89 -32 vhcurveto
          117 vlineto
          63 59 39 86 65 vvcurveto
          -98 hlineto
          -20 -213 -214 -107 0 vvcurveto
          123 vlineto
          63 56 35 54 6 87 rrcurveto
          -114 105 hlineto
          614 60 rmoveto
          140 -551 -140 133 -119 106 119 78 -119 103 119 hlineto
          145 -689 rmoveto
          -592 283 115 -163 477 hlineto
          endchar
        </CharString>
        <CharString name="cid01299" fdSelectIndex="0">
          9 493 688 rmoveto
          -88 vlineto
          -170 -136 -132 -89 -32 vhcurveto
          117 vlineto
          63 59 29 76 65 vvcurveto
          -88 hlineto
          -20 -213 -214 -97 0 vvcurveto
          123 vlineto
          63 56 35 44 6 87 rrcurveto
          -114 105 hlineto
          615 40 rmoveto
          140 -471 -140 91 -119 118 119 65 -119 116 119 hlineto
          -447 -760 rmoveto
          218 455 44 -455 79 591 -213 -466 -37 466 -91 vlineto
          endchar
        </CharString>
        <CharString name="cid01300" fdSelectIndex="0">
          -24 505 668 rmoveto
          -88 vlineto
          -170 -146 -142 -89 -32 vhcurveto
          117 vlineto
          63 59 39 86 65 vvcurveto
          -98 hlineto
          -20 -213 -214 -107 0 vvcurveto
          123 vlineto
          63 56 35 54 6 87 rrcurveto
          -114 105 hlineto
          594 60 rmoveto
          140 -561 -140 133 -99 116 99 68 -99 113 99 hlineto
          -200 -430 rmoveto
          119 -1 44 -90 91 -113 65 -75 rlinecurve
          -148 hlineto
          -44 53 -36 43 -35 52 -33 -46 -42 -59 -41 -43 rrcurveto
          -155 hlineto
          136 145 79 134 0 vvcurveto
          endchar
        </CharString>
        <CharString name="cid01301" fdSelectIndex="0">
          -11 477 688 rmoveto
          -88 vlineto
          -170 -136 -142 -89 -32 vhcurveto
          117 vlineto
          63 59 29 86 65 vvcurveto
          -78 hlineto
          -20 -213 -214 -107 0 vvcurveto
          123 vlineto
          63 56 35 54 6 87 rrcurveto
          -114 105 hlineto
          607 40 rmoveto
          140 -511 -140 99 -115 118 115 85 -115 116 115 hlineto
          12 -469 rmoveto
          15 -106 144 -173 0 vvcurveto
          -136 hlineto
          -30 40 -34 57 -29 51 rrcurveto
          0 -30 -71 -65 -77 vhcurveto
          -128 hlineto
          14 18 12 14 19 25 rrcurveto
          -36 41 -22 53 0 vvcurveto
          -23 -55 -27 -38 -42 -58 rrcurveto
          -142 hlineto
          92 109 45 96 24 74 rrcurveto
          134 hlineto
          7 -53 28 -41 24 -40 22 38 23 52 8 44 rrcurveto
          endchar
        </CharString>
        <CharString name="cid01302" fdSelectIndex="0">
          -21 169 -107 rmoveto
          336 598 -87 -457 -43 457 -85 -457 -42 457 -79 vlineto
          -292 795 rmoveto
          -88 vlineto
          -170 -136 -132 -89 -32 vhcurveto
          117 vlineto
          63 59 29 76 65 vvcurveto
          -78 hlineto
          -20 -213 -214 -97 0 vvcurveto
          123 vlineto
          63 56 35 44 6 87 rrcurveto
          -104 105 hlineto
          601 40 rmoveto
          133 -471 -133 81 -129 118 129 75 -119 116 119 hlineto
          endchar
        </CharString>
        <CharString name="cid01303" fdSelectIndex="0">
          29 454 660 rmoveto
          -108 vlineto
          -280 -170 -156 -88 -47 vhcurveto
          126 vlineto
          104 105 24 105 7 150 rrcurveto
          -74 hlineto
          -15 -315 -212 -135 0 vvcurveto
          125 vlineto
          91 92 7 100 9 133 rrcurveto
          -107 105 hlineto
          680 69 rmoveto
          107 -841 -107 hlineto
          -169 631 rmoveto
          210 114 -841 -114 309 -82 115 82 94 -82 113 vlineto
          endchar
        </CharString>
        <CharString name="cid01304" fdSelectIndex="0">
          16 425 698 rmoveto
          310 -118 hlineto
          -282 -89 -108 0 vhcurveto
          -133 hlineto
          93 156 -7 161 -7 72 rrcurveto
          -167 hlineto
          -360 119 rmoveto
          310 -98 hlineto
          -241 -97 -169 0 vhcurveto
          -135 hlineto
          72 144 24 173 -7 72 rrcurveto
          -167 hlineto
          739 -571 rmoveto
          117 -304 230 -131 -230 -339 -117 vlineto
          endchar
        </CharString>
        <CharString name="cid01305" fdSelectIndex="0">
          11 320 416 rmoveto
          -130 hlineto
          19 64 20 78 1 57 rrcurveto
          -138 103 281 -82 hlineto
          -4 -74 -49 -146 0 vvcurveto
          339 -1 rmoveto
          -120 -1 rlineto
          22 68 8 84 49 vvcurveto
          -137 103 280 -82 hlineto
          -3 -112 -50 -109 0 vvcurveto
          -175 -37 rmoveto
          315 -115 -769 115 326 106 128 hlineto
          -373 -304 rmoveto
          606 -95 hlineto
          -2 -98 -40 -84 0 vvcurveto
          -123 hlineto
          47 89 -4 73 0 vvcurveto
          -484 hlineto
          endchar
        </CharString>
        <CharString name="cid01306" fdSelectIndex="0">
          11 320 416 rmoveto
          -130 hlineto
          19 64 20 78 1 57 rrcurveto
          -138 103 281 -82 hlineto
          -4 -74 -49 -146 0 vvcurveto
          349 -1 rmoveto
          -128 hlineto
          22 68 16 83 49 vvcurveto
          -147 103 280 -82 hlineto
          -3 -112 -40 -109 0 vvcurveto
          -185 -37 rmoveto
          315 -115 -769 115 326 106 128 hlineto
          255 -587 rmoveto
          -630 300 133 -175 497 hlineto
          endchar
        </CharString>
        <CharString name="cid01307" fdSelectIndex="0">
          11 320 436 rmoveto
          -134 hlineto
          23 64 20 58 1 57 rrcurveto
          -138 103 281 -82 hlineto
          -4 -74 -49 -126 0 vvcurveto
          349 -1 rmoveto
          -130 hlineto
          22 68 15 63 49 vvcurveto
          -144 103 280 -82 hlineto
          -3 -112 -40 -89 0 vvcurveto
          -185 -40 rmoveto
          315 -115 -769 115 326 106 128 hlineto
          265 -318 rmoveto
          -73 -77 vlineto
          23 -12 18 -27 -29 vvcurveto
          -77 vlineto
          -47 -33 -34 -47 vhcurveto
          -95 hlineto
          -48 -44 34 47 hvcurveto
          77 vlineto
          29 19 27 22 12 vhcurveto
          -73 73 119 57 97 -57 hlineto
          1 -200 rmoveto
          45 vlineto
          18 -14 16 -19 vhcurveto
          -36 hlineto
          -19 -14 -16 -18 hvcurveto
          -45 vlineto
          -19 14 -15 19 vhcurveto
          36 hlineto
          19 14 15 19 hvcurveto
          -392 195 rmoveto
          -174 187 -105 -304 279 vlineto
          endchar
        </CharString>
        <CharString name="cid01308" fdSelectIndex="0">
          11 320 436 rmoveto
          -130 hlineto
          19 64 20 58 1 57 rrcurveto
          -138 103 281 -82 hlineto
          -4 -74 -49 -126 0 vvcurveto
          339 -2 rmoveto
          -120 hlineto
          22 68 18 64 49 vvcurveto
          -147 103 280 -82 hlineto
          -3 -112 -50 -90 0 vvcurveto
          -175 -29 rmoveto
          315 -115 -769 115 326 106 128 hlineto
          -380 -623 rmoveto
          219 470 42 -470 82 611 -218 -482 -32 482 -94 -615 vlineto
          endchar
        </CharString>
        <CharString name="cid01309" fdSelectIndex="0">
          11 320 416 rmoveto
          -130 hlineto
          19 64 20 78 1 57 rrcurveto
          -138 103 281 -82 hlineto
          -4 -74 -49 -146 0 vvcurveto
          346 -2 rmoveto
          -127 hlineto
          22 68 12 84 49 vvcurveto
          -141 103 280 -82 hlineto
          -3 -112 -43 -110 0 vvcurveto
          -182 -36 rmoveto
          315 -115 -769 115 326 106 128 hlineto
          -359 -280 rmoveto
          596 -300 -596 hlineto
          494 108 rmoveto
          87 -384 -87 vlineto
          endchar
        </CharString>
        <CharString name="cid01310" fdSelectIndex="0">
          11 320 416 rmoveto
          -130 hlineto
          19 64 20 78 1 57 rrcurveto
          -138 103 281 -82 hlineto
          -4 -74 -49 -146 0 vvcurveto
          349 -2 rmoveto
          -130 hlineto
          22 68 13 84 49 vvcurveto
          -142 103 280 -82 hlineto
          -3 -112 -40 -110 0 vvcurveto
          -185 -36 rmoveto
          315 -115 -769 115 326 106 128 hlineto
          228 -595 rmoveto
          -595 320 126 -73 349 73 120 hlineto
          -469 -222 rmoveto
          349 59 -349 hlineto
          endchar
        </CharString>
        <CharString name="cid01311" fdSelectIndex="0">
          11 320 416 rmoveto
          -130 hlineto
          19 64 20 78 1 57 rrcurveto
          -138 103 281 -82 hlineto
          -4 -74 -49 -146 0 vvcurveto
          348 -2 rmoveto
          -129 hlineto
          22 68 13 84 49 vvcurveto
          -142 103 280 -82 hlineto
          -3 -112 -41 -110 0 vvcurveto
          -184 -36 rmoveto
          315 -115 -769 115 326 106 128 hlineto
          -120 -287 rmoveto
          123 hlineto
          42 -116 98 -129 51 -65 rrcurveto
          -145 hlineto
          -40 53 -67 106 0 vvcurveto
          -114 -159 rlineto
          -153 hlineto
          122 145 83 165 0 vvcurveto
          endchar
        </CharString>
        <CharString name="cid01312" fdSelectIndex="0">
          11 320 416 rmoveto
          -130 hlineto
          19 64 20 78 1 57 rrcurveto
          -138 103 281 -82 hlineto
          -4 -74 -49 -146 0 vvcurveto
          345 -2 rmoveto
          -126 hlineto
          22 68 13 84 49 vvcurveto
          -142 103 280 -82 hlineto
          -3 -112 -44 -110 0 vvcurveto
          -181 -36 rmoveto
          315 -115 -769 115 326 106 128 hlineto
          -254 -310 rmoveto
          356 hlineto
          81 49 -42 -64 hvcurveto
          -72 vlineto
          -77 -57 -32 -62 vhcurveto
          -378 hlineto
          -65 -54 41 56 hvcurveto
          84 vlineto
          77 76 29 54 vhcurveto
          322 -107 rmoveto
          -272 hlineto
          -38 -13 -14 -15 hvcurveto
          -26 vlineto
          -30 25 2 26 vhcurveto
          277 hlineto
          24 16 14 19 hvcurveto
          19 vlineto
          20 -19 11 -26 vhcurveto
          endchar
        </CharString>
        <CharString name="cid01313" fdSelectIndex="0">
          11 320 416 rmoveto
          -130 hlineto
          19 64 20 78 1 57 rrcurveto
          -138 103 281 -82 hlineto
          -4 -74 -49 -146 0 vvcurveto
          345 -2 rmoveto
          -126 hlineto
          22 68 18 84 49 vvcurveto
          -147 103 280 -82 hlineto
          -3 -112 -44 -110 0 vvcurveto
          -181 -36 rmoveto
          315 -115 -769 115 326 106 128 hlineto
          -333 -385 rmoveto
          103 565 -103 -171 vlineto
          38 -58 52 -43 87 -31 rrcurveto
          -97 vlineto
          -85 12 -136 55 -64 94 -82 -87 -94 -45 -113 -32 rrcurveto
          99 vlineto
          71 27 84 62 29 44 rrcurveto
          endchar
        </CharString>
        <CharString name="cid01314" fdSelectIndex="0">
          -8 332 264 rmoveto
          136 -67 240 -109 -178 hlineto
          44 -51 61 -31 67 -18 rrcurveto
          -106 vlineto
          -122 11 -94 52 -77 94 -59 -83 -148 -68 -105 -12 rrcurveto
          105 vlineto
          70 17 76 46 41 44 rrcurveto
          -190 109 238 hlineto
          133 208 rmoveto
          315 -115 -750 115 307 106 128 hlineto
          -164 -75 rmoveto
          -130 hlineto
          19 64 20 58 1 57 rrcurveto
          -138 103 281 -82 hlineto
          -4 -74 -49 -126 0 vvcurveto
          343 -2 rmoveto
          -124 hlineto
          22 68 12 64 49 vvcurveto
          -141 103 280 -82 hlineto
          -3 -112 -46 -90 0 vvcurveto
          endchar
        </CharString>
        <CharString name="cid01315" fdSelectIndex="0">
          73 36 688 rmoveto
          258 -98 hlineto
          -67 -17 -85 -22 -72 vhcurveto
          114 -120 hlineto
          45 109 20 69 145 vvcurveto
          -110 119 240 -108 hlineto
          -204 -73 -146 0 vhcurveto
          -122 -74 260 574 140 -243 104 -132 -104 -467 -140 151 -599 117 212 169 hlineto
          -15 -42 -16 -34 -14 -17 rrcurveto
          -135 hlineto
          67 101 26 142 6 94 rrcurveto
          -125 hlineto
          endchar
        </CharString>
        <CharString name="cid01316" fdSelectIndex="0">
          49 845 556 rmoveto
          -117 -104 -208 -129 498 129 -173 vlineto
          -602 -376 rmoveto
          606 -95 hlineto
          -2 -98 -40 -84 0 vvcurveto
          -123 hlineto
          47 89 -4 73 0 vvcurveto
          -484 hlineto
          248 333 rmoveto
          15 53 11 67 10 71 rrcurveto
          -115 109 240 -88 hlineto
          -50 -21 -102 -18 -61 vhcurveto
          -421 1 rmoveto
          19 51 33 106 5 34 rrcurveto
          -115 109 248 -88 hlineto
          -41 -35 -103 -24 -68 vhcurveto
          363 -58 rmoveto
          -105 -523 105 193 139 112 -139 vlineto
          endchar
        </CharString>
        <CharString name="cid01317" fdSelectIndex="0">
          51 738 591 rmoveto
          111 -111 -111 -210 -707 105 216 125 130 -125 235 354 126 hlineto
          -586 -840 rmoveto
          212 452 45 -452 77 584 -209 -462 -39 462 -87 -588 vlineto
          239 530 rmoveto
          15 53 11 67 10 71 rrcurveto
          -115 109 239 -88 hlineto
          -42 -20 -109 -18 -61 vhcurveto
          -431 hmoveto
          19 51 43 106 5 34 rrcurveto
          -115 109 248 -88 hlineto
          -41 -45 -103 -24 -68 vhcurveto
          endchar
        </CharString>
        <CharString name="cid01318" fdSelectIndex="0">
          49 653 166 rmoveto
          35 -106 123 -173 0 vvcurveto
          -130 hlineto
          -30 40 -33 51 -29 57 rrcurveto
          0 -36 -71 -60 -77 vhcurveto
          -131 hlineto
          14 18 9 14 19 25 rrcurveto
          -36 41 -22 53 0 vvcurveto
          -23 -55 -27 -38 -42 -58 rrcurveto
          -142 hlineto
          92 119 37 87 32 74 134 -1 rcurveline
          7 -53 28 -41 24 -40 22 38 23 52 8 44 rrcurveto
          326 390 rmoveto
          -117 -104 -218 -129 508 129 -173 vlineto
          -354 -158 rmoveto
          15 53 11 67 10 71 rrcurveto
          -115 109 240 -88 hlineto
          -50 -21 -102 -18 -61 vhcurveto
          -421 1 rmoveto
          19 51 33 106 5 34 rrcurveto
          -115 109 248 -88 hlineto
          -41 -35 -103 -24 -68 vhcurveto
          363 -58 rmoveto
          -105 -523 105 193 139 112 -139 vlineto
          endchar
        </CharString>
        <CharString name="cid01319" fdSelectIndex="0">
          49 630 170 rmoveto
          60 57 -41 -62 hvcurveto
          -82 vlineto
          -56 -46 -41 -61 vhcurveto
          -388 hlineto
          -35 1 -75 27 70 vvcurveto
          81 vlineto
          84 94 19 44 vhcurveto
          307 -104 rmoveto
          -266 hlineto
          -38 -8 -16 -13 -6 hvcurveto
          -26 vlineto
          -26 12 15 0 26 hhcurveto
          266 hlineto
          23 19 7 19 hvcurveto
          19 vlineto
          18 -19 18 -24 vhcurveto
          258 490 rmoveto
          -117 -104 -218 -129 508 129 -173 vlineto
          -354 -158 rmoveto
          15 53 11 67 10 71 rrcurveto
          -115 109 240 -88 hlineto
          -50 -21 -102 -18 -61 vhcurveto
          -421 1 rmoveto
          19 51 33 106 5 34 rrcurveto
          -115 109 248 -88 hlineto
          -41 -35 -103 -24 -68 vhcurveto
          363 -58 rmoveto
          -105 -523 105 193 139 112 -139 vlineto
          endchar
        </CharString>
        <CharString name="cid01320" fdSelectIndex="0">
          21 703 728 rmoveto
          106 -840 -105 hlineto
          -1 443 rlineto
          -71 -443 -112 151 -490 115 180 170 hlineto
          -10 -32 -10 -31 -10 -27 rrcurveto
          -114 hlineto
          45 110 24 132 5 94 rrcurveto
          -103 118 217 -97 hlineto
          -72 -15 -85 -21 -78 vhcurveto
          103 -202 199 574 112 -280 71 hlineto
          -425 240 rmoveto
          200 -98 hlineto
          -204 -38 -154 0 vhcurveto
          -108 hlineto
          29 128 6 118 92 vvcurveto
          -89 hlineto
          endchar
        </CharString>
        <CharString name="cid01321" fdSelectIndex="0">
          1 313 359 rmoveto
          196 369 113 -211 61 211 106 -504 -106 197 -61 -197 -113 31 -479 104 192 119 91 hlineto
          328 -416 rmoveto
          -482 114 607 -106 hlineto
          -3 -98 -36 -84 0 vvcurveto
          -125 hlineto
          46 88 -7 86 0 vvcurveto
          -572 346 rmoveto
          33 83 17 60 13 58 rrcurveto
          -94 98 206 -78 hlineto
          -38 -31 -103 -31 -80 vhcurveto
          145 9 rmoveto
          7 57 18 72 4 63 rrcurveto
          -88 98 197 -78 hlineto
          -56 -17 -99 -14 -57 vhcurveto
          endchar
        </CharString>
        <CharString name="cid01322" fdSelectIndex="0">
          1 313 359 rmoveto
          196 369 113 -211 61 211 106 -504 -106 197 -61 -197 -113 31 -479 104 192 119 91 hlineto
          302 -300 rmoveto
          90 51 -41 -62 hvcurveto
          -85 vlineto
          -56 -48 -46 -71 vhcurveto
          -367 hlineto
          -65 -54 31 70 hvcurveto
          86 vlineto
          74 85 29 44 vhcurveto
          -211 230 rmoveto
          33 83 17 60 13 58 rrcurveto
          -94 98 206 -78 hlineto
          -38 -31 -103 -31 -80 vhcurveto
          145 9 rmoveto
          7 57 18 72 4 63 rrcurveto
          -88 98 197 -78 hlineto
          -56 -17 -99 -14 -57 vhcurveto
          -116 -343 rmoveto
          -36 -5 -17 -14 hvcurveto
          -27 vlineto
          -28 20 -3 24 vhcurveto
          279 hlineto
          23 16 5 28 hvcurveto
          26 vlineto
          24 -19 6 -24 vhcurveto
          endchar
        </CharString>
        <CharString name="cid01323" fdSelectIndex="0">
          -11 269 324 rmoveto
          114 -167 262 572 132 -842 -132 152 -615 118 239 hlineto
          -226 531 rmoveto
          268 -98 hlineto
          -123 -57 -185 -40 -50 vhcurveto
          -135 hlineto
          67 101 26 142 6 94 rrcurveto
          -135 hlineto
          296 119 rmoveto
          250 -108 hlineto
          -204 -73 -146 0 vhcurveto
          -129 hlineto
          50 119 22 68 152 vvcurveto
          -120 hlineto
          endchar
        </CharString>
        <CharString name="cid01324" fdSelectIndex="0">
          -13 603 330 rmoveto
          -105 -573 105 230 139 108 -139 vlineto
          404 399 rmoveto
          -548 -129 548 vlineto
          132 -833 rmoveto
          -612 272 130 -149 482 hlineto
          -378 361 rmoveto
          15 53 15 85 9 71 rrcurveto
          -128 109 250 -92 hlineto
          -2 -50 -19 -104 -18 -73 rrcurveto
          -431 1 rmoveto
          21 60 33 75 5 74 rrcurveto
          -116 109 248 -86 hlineto
          -63 -36 -103 -24 -66 vhcurveto
          endchar
        </CharString>
        <CharString name="cid01325" fdSelectIndex="0">
          -23 603 380 rmoveto
          -105 -573 105 239 111 119 -111 vlineto
          377 349 rmoveto
          -478 -129 478 vlineto
          -475 -851 rmoveto
          208 462 44 -462 77 594 -209 -472 -33 472 -88 -598 vlineto
          250 543 rmoveto
          15 53 15 55 9 71 rrcurveto
          -128 109 250 -92 hlineto
          -2 -50 -19 -73 -18 -73 rrcurveto
          -431 hmoveto
          21 40 34 85 5 54 rrcurveto
          -117 109 248 -83 hlineto
          -53 -36 -98 -24 -54 vhcurveto
          endchar
        </CharString>
        <CharString name="cid01326" fdSelectIndex="0">
          -23 603 350 rmoveto
          -105 -573 105 243 139 114 -139 vlineto
          378 379 rmoveto
          -518 -129 518 vlineto
          -469 -555 rmoveto
          596 -287 -596 hlineto
          494 108 rmoveto
          71 -385 -71 vlineto
          141 425 rmoveto
          15 53 15 55 9 71 rrcurveto
          -128 109 250 -92 hlineto
          -2 -50 -19 -73 -18 -73 rrcurveto
          -431 hmoveto
          21 40 34 85 5 54 rrcurveto
          -117 109 248 -83 hlineto
          -53 -36 -98 -24 -54 vhcurveto
          endchar
        </CharString>
        <CharString name="cid01327" fdSelectIndex="0">
          -23 765 729 rmoveto
          -488 -129 488 vlineto
          125 -841 rmoveto
          -589 308 130 -73 335 73 124 hlineto
          -459 -210 rmoveto
          335 47 -335 hlineto
          301 337 rmoveto
          -105 -573 105 245 123 119 -123 vlineto
          21 50 rmoveto
          15 53 15 55 9 71 rrcurveto
          -126 109 248 -92 hlineto
          -2 -50 -19 -73 -18 -73 rrcurveto
          -429 hmoveto
          21 40 34 85 5 54 rrcurveto
          -117 109 248 -83 hlineto
          -53 -39 -98 -24 -54 vhcurveto
          endchar
        </CharString>
        <CharString name="cid01328" fdSelectIndex="0">
          -23 765 729 rmoveto
          -518 -129 518 vlineto
          9 -559 rmoveto
          60 57 -41 -62 hvcurveto
          -82 vlineto
          -56 -46 -41 -61 vhcurveto
          -394 hlineto
          -35 1 -75 28 70 vvcurveto
          81 vlineto
          74 94 28 44 vhcurveto
          313 -98 rmoveto
          -275 hlineto
          -38 -11 -13 -22 hvcurveto
          -21 vlineto
          -29 25 -1 26 vhcurveto
          274 hlineto
          23 19 7 19 hvcurveto
          22 vlineto
          28 -19 10 -24 vhcurveto
          1 278 rmoveto
          -105 -573 105 243 139 114 -139 vlineto
          30 70 rmoveto
          15 53 15 55 9 71 rrcurveto
          -128 109 250 -92 hlineto
          -2 -50 -19 -73 -18 -73 rrcurveto
          -431 hmoveto
          21 40 34 85 5 54 rrcurveto
          -117 109 248 -83 hlineto
          -53 -36 -98 -24 -54 vhcurveto
          endchar
        </CharString>
        <CharString name="cid01329" fdSelectIndex="0">
          2 30 113 rmoveto
          230 77 -126 hlineto
          72 144 24 173 -7 72 rrcurveto
          -167 119 310 -98 hlineto
          -126 -26 -106 -26 -73 vhcurveto
          73 -182 79 182 86 hlineto
          41 119 -5 109 -5 56 rrcurveto
          -167 119 310 -118 hlineto
          -282 -89 -108 0 vhcurveto
          -44 -77 197 -115 -760 hlineto
          endchar
        </CharString>
        <CharString name="cid01330" fdSelectIndex="0">
          17 805 286 rmoveto
          -120 -322 -277 -132 277 -321 120 153 vlineto
          60 130 -1 94 8 69 rrcurveto
          -157 119 300 -98 hlineto
          -1 -146 -49 -118 -24 -50 rrcurveto
          203 hlineto
          46 110 14 115 -2 68 rrcurveto
          -147 119 290 -98 hlineto
          -1 -138 -39 -124 -19 -52 rrcurveto
          endchar
        </CharString>
        <CharString name="cid01331" fdSelectIndex="0">
          -15 779 416 rmoveto
          -112 -321 -104 255 -115 vlineto
          -2 -98 -40 -84 0 vvcurveto
          -123 hlineto
          47 89 -4 93 0 vvcurveto
          -484 115 225 104 -302 112 179 hlineto
          15 66 10 58 2 65 rrcurveto
          -137 113 280 -92 hlineto
          -6 -77 -19 -82 -14 -51 rrcurveto
          198 hlineto
          17 76 13 77 -3 36 rrcurveto
          -127 113 270 -92 hlineto
          -2 -87 -19 -76 -15 -47 rrcurveto
          endchar
        </CharString>
        <CharString name="cid01332" fdSelectIndex="0">
          -29 769 394 rmoveto
          -112 -291 -159 -126 159 -322 112 173 vlineto
          19 76 12 63 2 72 rrcurveto
          -137 113 280 -92 hlineto
          -7 -89 -25 -97 -13 -46 rrcurveto
          198 hlineto
          20 82 16 90 -3 39 rrcurveto
          -127 113 270 -92 hlineto
          -2 -102 -26 -88 -15 -42 rrcurveto
          70 -497 rmoveto
          -640 305 134 -189 506 hlineto
          endchar
        </CharString>
        <CharString name="cid01333" fdSelectIndex="0">
          -29 769 436 rmoveto
          -112 -301 -73 257 -228 -496 -42 496 -94 -629 vlineto
          4 1 rlineto
          229 484 52 -484 82 232 73 -302 112 180 vlineto
          15 62 8 55 2 62 rrcurveto
          -137 113 280 -92 hlineto
          -6 -72 -17 -77 -13 -51 rrcurveto
          197 hlineto
          16 72 12 73 -3 34 rrcurveto
          -127 113 270 -92 hlineto
          -2 -81 -16 -71 -15 -48 rrcurveto
          endchar
        </CharString>
        <CharString name="cid01334" fdSelectIndex="0">
          -29 769 429 rmoveto
          -105 -308 -113 -85 -186 -140 -54 165 -80 -287 203 150 50 -150 81 221 99 -305 105 169 vlineto
          15 65 9 57 2 64 rrcurveto
          -137 113 280 -92 hlineto
          -6 -75 -18 -81 -14 -51 rrcurveto
          197 hlineto
          17 75 13 75 -3 36 rrcurveto
          -127 113 270 -92 hlineto
          -2 -85 -18 -74 -15 -48 rrcurveto
          96 -251 rmoveto
          -68 -72 vlineto
          23 -12 18 -27 -29 vvcurveto
          -74 vlineto
          -47 -33 -34 -47 vhcurveto
          -115 hlineto
          -48 -44 34 47 hvcurveto
          74 vlineto
          29 19 27 22 12 vhcurveto
          -81 68 130 57 101 -57 hlineto
          -192 vmoveto
          42 vlineto
          18 -14 16 -19 vhcurveto
          -27 hlineto
          -19 -14 -16 -18 hvcurveto
          -42 vlineto
          -19 14 -15 19 vhcurveto
          27 hlineto
          19 14 15 19 hvcurveto
          endchar
        </CharString>
        <CharString name="cid01335" fdSelectIndex="0">
          -9 779 417 rmoveto
          -112 -296 -91 234 -320 -596 320 228 91 -319 112 179 vlineto
          16 66 9 57 2 65 rrcurveto
          -137 113 280 -92 hlineto
          -6 -76 -19 -82 -13 -51 rrcurveto
          197 hlineto
          17 75 13 77 -3 36 rrcurveto
          -127 113 270 -92 hlineto
          -2 -86 -18 -76 -15 -47 rrcurveto
          -68 -415 rmoveto
          106 -365 -106 vlineto
          endchar
        </CharString>
        <CharString name="cid01336" fdSelectIndex="0">
          -9 779 416 rmoveto
          -112 -301 -113 -136 113 -312 112 179 vlineto
          15 66 10 58 2 65 rrcurveto
          -137 113 280 -92 hlineto
          -6 -77 -19 -82 -14 -51 rrcurveto
          198 hlineto
          17 76 13 77 -3 36 rrcurveto
          -127 113 270 -92 hlineto
          -2 -87 -19 -76 -15 -47 rrcurveto
          36 -527 rmoveto
          -595 340 136 -93 329 93 130 hlineto
          -459 -242 rmoveto
          329 59 -329 hlineto
          endchar
        </CharString>
        <CharString name="cid01337" fdSelectIndex="0">
          -9 779 421 rmoveto
          -117 -301 -101 -126 101 -322 117 180 vlineto
          15 64 9 57 2 63 rrcurveto
          -137 113 280 -92 hlineto
          -6 -74 -18 -80 -13 -51 rrcurveto
          197 hlineto
          17 74 12 75 -3 35 rrcurveto
          -127 113 270 -92 hlineto
          -2 -84 -18 -73 -14 -48 rrcurveto
          -316 -245 rmoveto
          125 hlineto
          37 -69 101 -155 51 -65 rrcurveto
          -145 hlineto
          -40 53 -67 106 0 vvcurveto
          -114 -159 rlineto
          -153 hlineto
          122 145 83 144 0 vvcurveto
          endchar
        </CharString>
        <CharString name="cid01338" fdSelectIndex="0">
          -9 779 423 rmoveto
          -112 -311 -107 114 vlineto
          81 49 -42 -64 hvcurveto
          -102 vlineto
          -77 -57 -32 -62 vhcurveto
          -378 hlineto
          -65 -54 41 56 hvcurveto
          114 vlineto
          77 76 29 54 vhcurveto
          116 107 -312 112 180 hlineto
          15 63 9 56 2 63 rrcurveto
          -137 113 280 -92 hlineto
          -6 -73 -17 -79 -14 -51 rrcurveto
          197 hlineto
          17 73 12 74 -3 35 rrcurveto
          -127 113 270 -92 hlineto
          -2 -83 -17 -72 -15 -48 rrcurveto
          -126 -326 rmoveto
          -272 hlineto
          -38 -13 -14 -15 hvcurveto
          -47 vlineto
          -30 25 2 26 vhcurveto
          277 hlineto
          24 16 14 19 hvcurveto
          40 vlineto
          20 -19 11 -26 vhcurveto
          endchar
        </CharString>
</ttFont>
